<?xml version="1.0" encoding="utf-8"?>
<!-- Generator: Adobe Illustrator 22.1.0, SVG Export Plug-In . SVG Version: 6.00 Build 0)  -->
<svg version="1.1" id="Layer_1" xmlns="http://www.w3.org/2000/svg" xmlns:xlink="http://www.w3.org/1999/xlink" x="0px" y="0px"
	 viewBox="0 0 500 500" style="enable-background:new 0 0 500 500;" xml:space="preserve">
<style type="text/css">
	.st0{fill:#73896E;}
</style>
<g>
	<rect x="443.7" y="271.8" class="st0" width="12.8" height="13.9"/>
	<rect x="443.7" y="285.7" class="st0" width="12.8" height="13.9"/>
	<rect x="443.7" y="230.2" class="st0" width="12.8" height="13.9"/>
	<rect x="443.7" y="257.9" class="st0" width="12.8" height="13.9"/>
	<rect x="443.7" y="244.1" class="st0" width="12.8" height="13.9"/>
	<rect x="456.5" y="271.8" class="st0" width="12.8" height="13.9"/>
	<rect x="456.5" y="257.9" class="st0" width="12.8" height="13.9"/>
	<rect x="456.5" y="244.1" class="st0" width="12.8" height="13.9"/>
	<rect x="456.5" y="230.2" class="st0" width="12.8" height="13.9"/>
	<rect x="443.7" y="299.5" class="st0" width="12.8" height="13.9"/>
	<rect x="443.7" y="216.3" class="st0" width="12.8" height="13.9"/>
	<rect x="430.9" y="257.9" class="st0" width="12.8" height="13.9"/>
	<rect x="430.9" y="244.1" class="st0" width="12.8" height="13.9"/>
	<rect x="430.9" y="230.2" class="st0" width="12.8" height="13.9"/>
	<rect x="430.9" y="216.3" class="st0" width="12.8" height="13.9"/>
	<rect x="430.9" y="299.5" class="st0" width="12.8" height="13.9"/>
	<rect x="430.9" y="285.7" class="st0" width="12.8" height="13.9"/>
	<rect x="430.9" y="271.8" class="st0" width="12.8" height="13.9"/>
	<rect x="418.2" y="271.8" class="st0" width="12.8" height="13.9"/>
	<rect x="418.2" y="257.9" class="st0" width="12.8" height="13.9"/>
	<rect x="418.2" y="230.2" class="st0" width="12.8" height="13.9"/>
	<rect x="418.2" y="216.3" class="st0" width="12.8" height="13.9"/>
	<rect x="405.4" y="271.8" class="st0" width="12.8" height="13.9"/>
	<rect x="405.4" y="257.9" class="st0" width="12.8" height="13.9"/>
	<rect x="405.4" y="244.1" class="st0" width="12.8" height="13.9"/>
	<rect x="418.2" y="285.7" class="st0" width="12.8" height="13.9"/>
	<rect x="418.2" y="244.1" class="st0" width="12.8" height="13.9"/>
	<rect x="418.2" y="299.5" class="st0" width="12.8" height="13.9"/>
	<rect x="469.2" y="285.7" class="st0" width="12.8" height="13.9"/>
	<rect x="469.2" y="271.8" class="st0" width="12.8" height="13.9"/>
	<rect x="469.2" y="257.9" class="st0" width="12.8" height="13.9"/>
	<rect x="469.2" y="244.1" class="st0" width="12.8" height="13.9"/>
	<rect x="469.2" y="230.2" class="st0" width="12.8" height="13.9"/>
	<rect x="469.2" y="216.3" class="st0" width="12.8" height="13.9"/>
	<rect x="456.5" y="313.4" class="st0" width="12.8" height="13.9"/>
	<rect x="456.5" y="299.5" class="st0" width="12.8" height="13.9"/>
	<rect x="456.5" y="285.7" class="st0" width="12.8" height="13.9"/>
	<rect x="456.5" y="216.3" class="st0" width="12.8" height="13.9"/>
	<rect x="456.5" y="202.5" class="st0" width="12.8" height="13.9"/>
	<rect x="443.7" y="313.4" class="st0" width="12.8" height="13.9"/>
	<rect x="443.7" y="202.5" class="st0" width="12.8" height="13.9"/>
	<rect x="443.7" y="188.6" class="st0" width="12.8" height="13.9"/>
	<rect x="430.9" y="313.4" class="st0" width="12.8" height="13.9"/>
	<rect x="430.9" y="202.5" class="st0" width="12.8" height="13.9"/>
	<rect x="430.9" y="188.6" class="st0" width="12.8" height="13.9"/>
	<rect x="418.2" y="313.4" class="st0" width="12.8" height="13.9"/>
	<rect x="418.2" y="202.5" class="st0" width="12.8" height="13.9"/>
	<rect x="405.4" y="299.5" class="st0" width="12.8" height="13.9"/>
	<rect x="405.4" y="285.7" class="st0" width="12.8" height="13.9"/>
	<rect x="405.4" y="230.2" class="st0" width="12.8" height="13.9"/>
	<rect x="405.4" y="216.3" class="st0" width="12.8" height="13.9"/>
	<rect x="405.4" y="202.5" class="st0" width="12.8" height="13.9"/>
	<rect x="392.7" y="285.7" class="st0" width="12.8" height="13.9"/>
	<rect x="392.7" y="271.8" class="st0" width="12.8" height="13.9"/>
	<rect x="392.7" y="257.9" class="st0" width="12.8" height="13.9"/>
	<rect x="392.7" y="244.1" class="st0" width="12.8" height="13.9"/>
	<rect x="367.1" y="355" class="st0" width="12.8" height="13.9"/>
	<rect x="367.1" y="341.1" class="st0" width="12.8" height="13.9"/>
	<rect x="367.1" y="327.2" class="st0" width="12.8" height="13.9"/>
	<rect x="367.1" y="313.4" class="st0" width="12.8" height="13.9"/>
	<rect x="367.1" y="105.5" class="st0" width="12.8" height="13.9"/>
	<rect x="367.1" y="91.6" class="st0" width="12.8" height="13.9"/>
	<rect x="367.1" y="77.7" class="st0" width="12.8" height="13.9"/>
	<rect x="354.4" y="410.4" class="st0" width="12.8" height="13.9"/>
	<rect x="354.4" y="396.5" class="st0" width="12.8" height="13.9"/>
	<rect x="354.4" y="382.7" class="st0" width="12.8" height="13.9"/>
	<rect x="354.4" y="368.8" class="st0" width="12.8" height="13.9"/>
	<rect x="354.4" y="355" class="st0" width="12.8" height="13.9"/>
	<rect x="354.4" y="341.1" class="st0" width="12.8" height="13.9"/>
	<rect x="354.4" y="327.2" class="st0" width="12.8" height="13.9"/>
	<rect x="354.4" y="313.4" class="st0" width="12.8" height="13.9"/>
	<rect x="354.4" y="299.5" class="st0" width="12.8" height="13.9"/>
	<rect x="354.4" y="285.7" class="st0" width="12.8" height="13.9"/>
	<rect x="354.4" y="271.8" class="st0" width="12.8" height="13.9"/>
	<rect x="354.4" y="133.2" class="st0" width="12.8" height="13.9"/>
	<rect x="354.4" y="119.3" class="st0" width="12.8" height="13.9"/>
	<rect x="354.4" y="105.5" class="st0" width="12.8" height="13.9"/>
	<rect x="354.4" y="91.6" class="st0" width="12.8" height="13.9"/>
	<rect x="354.4" y="77.7" class="st0" width="12.8" height="13.9"/>
	<rect x="354.4" y="63.9" class="st0" width="12.8" height="13.9"/>
	<rect x="354.4" y="50" class="st0" width="12.8" height="13.9"/>
	<rect x="341.6" y="424.3" class="st0" width="12.8" height="13.9"/>
	<rect x="341.6" y="410.4" class="st0" width="12.8" height="13.9"/>
	<rect x="341.6" y="396.5" class="st0" width="12.8" height="13.9"/>
	<rect x="341.6" y="382.7" class="st0" width="12.8" height="13.9"/>
	<rect x="341.6" y="368.8" class="st0" width="12.8" height="13.9"/>
	<rect x="341.6" y="355" class="st0" width="12.8" height="13.9"/>
	<rect x="341.6" y="341.1" class="st0" width="12.8" height="13.9"/>
	<rect x="341.6" y="327.2" class="st0" width="12.8" height="13.9"/>
	<rect x="341.6" y="313.4" class="st0" width="12.8" height="13.9"/>
	<rect x="341.6" y="299.5" class="st0" width="12.8" height="13.9"/>
	<rect x="341.6" y="285.7" class="st0" width="12.8" height="13.9"/>
	<rect x="341.6" y="271.8" class="st0" width="12.8" height="13.9"/>
	<rect x="341.6" y="257.9" class="st0" width="12.8" height="13.9"/>
	<rect x="341.6" y="147" class="st0" width="12.8" height="13.9"/>
	<rect x="341.6" y="133.2" class="st0" width="12.8" height="13.9"/>
	<rect x="341.6" y="119.3" class="st0" width="12.8" height="13.9"/>
	<rect x="341.6" y="105.5" class="st0" width="12.8" height="13.9"/>
	<rect x="341.6" y="91.6" class="st0" width="12.8" height="13.9"/>
	<rect x="341.6" y="77.7" class="st0" width="12.8" height="13.9"/>
	<rect x="341.6" y="63.9" class="st0" width="12.8" height="13.9"/>
	<rect x="341.6" y="50" class="st0" width="12.8" height="13.9"/>
	<rect x="328.8" y="424.3" class="st0" width="12.8" height="13.9"/>
	<rect x="328.8" y="410.4" class="st0" width="12.8" height="13.9"/>
	<rect x="328.8" y="396.5" class="st0" width="12.8" height="13.9"/>
	<rect x="328.8" y="382.7" class="st0" width="12.8" height="13.9"/>
	<rect x="328.8" y="368.8" class="st0" width="12.8" height="13.9"/>
	<rect x="328.8" y="355" class="st0" width="12.8" height="13.9"/>
	<rect x="328.8" y="341.1" class="st0" width="12.8" height="13.9"/>
	<rect x="328.8" y="327.2" class="st0" width="12.8" height="13.9"/>
	<rect x="328.8" y="313.4" class="st0" width="12.8" height="13.9"/>
	<rect x="328.8" y="299.5" class="st0" width="12.8" height="13.9"/>
	<rect x="328.8" y="285.7" class="st0" width="12.8" height="13.9"/>
	<rect x="328.8" y="271.8" class="st0" width="12.8" height="13.9"/>
	<rect x="328.8" y="257.9" class="st0" width="12.8" height="13.9"/>
	<rect x="328.8" y="244.1" class="st0" width="12.8" height="13.9"/>
	<rect x="328.8" y="160.9" class="st0" width="12.8" height="13.9"/>
	<rect x="328.8" y="147" class="st0" width="12.8" height="13.9"/>
	<rect x="328.8" y="133.2" class="st0" width="12.8" height="13.9"/>
	<rect x="328.8" y="119.3" class="st0" width="12.8" height="13.9"/>
	<rect x="328.8" y="105.5" class="st0" width="12.8" height="13.9"/>
	<rect x="328.8" y="91.6" class="st0" width="12.8" height="13.9"/>
	<rect x="328.8" y="77.7" class="st0" width="12.8" height="13.9"/>
	<rect x="328.8" y="63.9" class="st0" width="12.8" height="13.9"/>
	<rect x="328.8" y="50" class="st0" width="12.8" height="13.9"/>
	<rect x="316.1" y="438.1" class="st0" width="12.8" height="13.9"/>
	<rect x="316.1" y="424.3" class="st0" width="12.8" height="13.9"/>
	<rect x="316.1" y="410.4" class="st0" width="12.8" height="13.9"/>
	<rect x="316.1" y="396.5" class="st0" width="12.8" height="13.9"/>
	<rect x="316.1" y="382.7" class="st0" width="12.8" height="13.9"/>
	<rect x="316.1" y="368.8" class="st0" width="12.8" height="13.9"/>
	<rect x="316.1" y="355" class="st0" width="12.8" height="13.9"/>
	<rect x="316.1" y="341.1" class="st0" width="12.8" height="13.9"/>
	<rect x="316.1" y="327.2" class="st0" width="12.8" height="13.9"/>
	<rect x="316.1" y="313.4" class="st0" width="12.8" height="13.9"/>
	<rect x="316.1" y="299.5" class="st0" width="12.8" height="13.9"/>
	<rect x="316.1" y="285.7" class="st0" width="12.8" height="13.9"/>
	<rect x="316.1" y="271.8" class="st0" width="12.8" height="13.9"/>
	<rect x="316.1" y="257.9" class="st0" width="12.8" height="13.9"/>
	<rect x="316.1" y="244.1" class="st0" width="12.8" height="13.9"/>
	<rect x="316.1" y="160.9" class="st0" width="12.8" height="13.9"/>
	<rect x="316.1" y="147" class="st0" width="12.8" height="13.9"/>
	<rect x="316.1" y="133.2" class="st0" width="12.8" height="13.9"/>
	<rect x="316.1" y="119.3" class="st0" width="12.8" height="13.9"/>
	<rect x="316.1" y="105.5" class="st0" width="12.8" height="13.9"/>
	<rect x="316.1" y="91.6" class="st0" width="12.8" height="13.9"/>
	<rect x="316.1" y="77.7" class="st0" width="12.8" height="13.9"/>
	<rect x="316.1" y="63.9" class="st0" width="12.8" height="13.9"/>
	<rect x="316.1" y="50" class="st0" width="12.8" height="13.9"/>
	<rect x="303.3" y="438.1" class="st0" width="12.8" height="13.9"/>
	<rect x="303.3" y="424.3" class="st0" width="12.8" height="13.9"/>
	<rect x="303.3" y="410.4" class="st0" width="12.8" height="13.9"/>
	<rect x="303.3" y="396.5" class="st0" width="12.8" height="13.9"/>
	<rect x="303.3" y="382.7" class="st0" width="12.8" height="13.9"/>
	<rect x="303.3" y="368.8" class="st0" width="12.8" height="13.9"/>
	<rect x="303.3" y="355" class="st0" width="12.8" height="13.9"/>
	<rect x="303.3" y="341.1" class="st0" width="12.8" height="13.9"/>
	<rect x="303.3" y="327.2" class="st0" width="12.8" height="13.9"/>
	<rect x="303.3" y="313.4" class="st0" width="12.8" height="13.9"/>
	<rect x="303.3" y="299.5" class="st0" width="12.8" height="13.9"/>
	<rect x="303.3" y="285.7" class="st0" width="12.8" height="13.9"/>
	<rect x="303.3" y="271.8" class="st0" width="12.8" height="13.9"/>
	<rect x="303.3" y="257.9" class="st0" width="12.8" height="13.9"/>
	<rect x="303.3" y="244.1" class="st0" width="12.8" height="13.9"/>
	<rect x="303.3" y="230.2" class="st0" width="12.8" height="13.9"/>
	<rect x="303.3" y="174.8" class="st0" width="12.8" height="13.9"/>
	<rect x="303.3" y="160.9" class="st0" width="12.8" height="13.9"/>
	<rect x="303.3" y="147" class="st0" width="12.8" height="13.9"/>
	<rect x="303.3" y="133.2" class="st0" width="12.8" height="13.9"/>
	<rect x="303.3" y="119.3" class="st0" width="12.8" height="13.9"/>
	<rect x="303.3" y="105.5" class="st0" width="12.8" height="13.9"/>
	<rect x="303.3" y="91.6" class="st0" width="12.8" height="13.9"/>
	<rect x="303.3" y="77.7" class="st0" width="12.8" height="13.9"/>
	<rect x="303.3" y="63.9" class="st0" width="12.8" height="13.9"/>
	<rect x="303.3" y="50" class="st0" width="12.8" height="13.9"/>
	<rect x="290.6" y="438.1" class="st0" width="12.8" height="13.9"/>
	<rect x="290.6" y="424.3" class="st0" width="12.8" height="13.9"/>
	<rect x="290.6" y="410.4" class="st0" width="12.8" height="13.9"/>
	<rect x="290.6" y="396.5" class="st0" width="12.8" height="13.9"/>
	<rect x="290.6" y="382.7" class="st0" width="12.8" height="13.9"/>
	<rect x="290.6" y="368.8" class="st0" width="12.8" height="13.9"/>
	<rect x="290.6" y="355" class="st0" width="12.8" height="13.9"/>
	<rect x="290.6" y="341.1" class="st0" width="12.8" height="13.9"/>
	<rect x="290.6" y="327.2" class="st0" width="12.8" height="13.9"/>
	<rect x="290.6" y="313.4" class="st0" width="12.8" height="13.9"/>
	<rect x="290.6" y="299.5" class="st0" width="12.8" height="13.9"/>
	<rect x="290.6" y="285.7" class="st0" width="12.8" height="13.9"/>
	<rect x="290.6" y="271.8" class="st0" width="12.8" height="13.9"/>
	<rect x="290.6" y="257.9" class="st0" width="12.8" height="13.9"/>
	<rect x="290.6" y="244.1" class="st0" width="12.8" height="13.9"/>
	<rect x="290.6" y="230.2" class="st0" width="12.8" height="13.9"/>
	<rect x="290.6" y="174.8" class="st0" width="12.8" height="13.9"/>
	<rect x="290.6" y="160.9" class="st0" width="12.8" height="13.9"/>
	<rect x="290.6" y="147" class="st0" width="12.8" height="13.9"/>
	<rect x="290.6" y="133.2" class="st0" width="12.8" height="13.9"/>
	<rect x="290.6" y="119.3" class="st0" width="12.8" height="13.9"/>
	<rect x="290.6" y="105.5" class="st0" width="12.8" height="13.9"/>
	<rect x="290.6" y="91.6" class="st0" width="12.8" height="13.9"/>
	<rect x="290.6" y="77.7" class="st0" width="12.8" height="13.9"/>
	<rect x="290.6" y="63.9" class="st0" width="12.8" height="13.9"/>
	<rect x="290.6" y="50" class="st0" width="12.8" height="13.9"/>
	<rect x="277.8" y="438.1" class="st0" width="12.8" height="13.9"/>
	<rect x="277.8" y="424.3" class="st0" width="12.8" height="13.9"/>
	<rect x="277.8" y="410.4" class="st0" width="12.8" height="13.9"/>
	<rect x="277.8" y="396.5" class="st0" width="12.8" height="13.9"/>
	<rect x="277.8" y="382.7" class="st0" width="12.8" height="13.9"/>
	<rect x="277.8" y="368.8" class="st0" width="12.8" height="13.9"/>
	<rect x="277.8" y="355" class="st0" width="12.8" height="13.9"/>
	<rect x="277.8" y="341.1" class="st0" width="12.8" height="13.9"/>
	<rect x="277.8" y="327.2" class="st0" width="12.8" height="13.9"/>
	<rect x="277.8" y="313.4" class="st0" width="12.8" height="13.9"/>
	<rect x="277.8" y="299.5" class="st0" width="12.8" height="13.9"/>
	<rect x="277.8" y="285.7" class="st0" width="12.8" height="13.9"/>
	<rect x="277.8" y="271.8" class="st0" width="12.8" height="13.9"/>
	<rect x="277.8" y="257.9" class="st0" width="12.8" height="13.9"/>
	<rect x="277.8" y="244.1" class="st0" width="12.8" height="13.9"/>
	<rect x="277.8" y="230.2" class="st0" width="12.8" height="13.9"/>
	<rect x="277.8" y="174.8" class="st0" width="12.8" height="13.9"/>
	<rect x="277.8" y="160.9" class="st0" width="12.8" height="13.9"/>
	<rect x="277.8" y="147" class="st0" width="12.8" height="13.9"/>
	<rect x="277.8" y="133.2" class="st0" width="12.8" height="13.9"/>
	<rect x="277.8" y="119.3" class="st0" width="12.8" height="13.9"/>
	<rect x="277.8" y="105.5" class="st0" width="12.8" height="13.9"/>
	<rect x="277.8" y="91.6" class="st0" width="12.8" height="13.9"/>
	<rect x="277.8" y="77.7" class="st0" width="12.8" height="13.9"/>
	<rect x="277.8" y="63.9" class="st0" width="12.8" height="13.9"/>
	<rect x="265" y="424.3" class="st0" width="12.8" height="13.9"/>
	<rect x="265" y="410.4" class="st0" width="12.8" height="13.9"/>
	<rect x="265" y="396.5" class="st0" width="12.8" height="13.9"/>
	<rect x="265" y="382.7" class="st0" width="12.8" height="13.9"/>
	<rect x="265" y="368.8" class="st0" width="12.8" height="13.9"/>
	<rect x="265" y="355" class="st0" width="12.8" height="13.9"/>
	<rect x="265" y="341.1" class="st0" width="12.8" height="13.9"/>
	<rect x="265" y="327.2" class="st0" width="12.8" height="13.9"/>
	<rect x="265" y="313.4" class="st0" width="12.8" height="13.9"/>
	<rect x="265" y="299.5" class="st0" width="12.8" height="13.9"/>
	<rect x="265" y="285.7" class="st0" width="12.8" height="13.9"/>
	<rect x="265" y="271.8" class="st0" width="12.8" height="13.9"/>
	<rect x="265" y="257.9" class="st0" width="12.8" height="13.9"/>
	<rect x="265" y="244.1" class="st0" width="12.8" height="13.9"/>
	<rect x="265" y="230.2" class="st0" width="12.8" height="13.9"/>
	<rect x="265" y="160.9" class="st0" width="12.8" height="13.9"/>
	<rect x="265" y="147" class="st0" width="12.8" height="13.9"/>
	<rect x="265" y="133.2" class="st0" width="12.8" height="13.9"/>
	<rect x="265" y="119.3" class="st0" width="12.8" height="13.9"/>
	<rect x="265" y="105.5" class="st0" width="12.8" height="13.9"/>
	<rect x="265" y="91.6" class="st0" width="12.8" height="13.9"/>
	<rect x="252.3" y="424.3" class="st0" width="12.8" height="13.9"/>
	<rect x="252.3" y="410.4" class="st0" width="12.8" height="13.9"/>
	<rect x="252.3" y="396.5" class="st0" width="12.8" height="13.9"/>
	<rect x="252.3" y="382.7" class="st0" width="12.8" height="13.9"/>
	<rect x="252.3" y="368.8" class="st0" width="12.8" height="13.9"/>
	<rect x="252.3" y="355" class="st0" width="12.8" height="13.9"/>
	<rect x="252.3" y="341.1" class="st0" width="12.8" height="13.9"/>
	<rect x="252.3" y="327.2" class="st0" width="12.8" height="13.9"/>
	<rect x="252.3" y="313.4" class="st0" width="12.8" height="13.9"/>
	<rect x="252.3" y="299.5" class="st0" width="12.8" height="13.9"/>
	<rect x="252.3" y="285.7" class="st0" width="12.8" height="13.9"/>
	<rect x="252.3" y="271.8" class="st0" width="12.8" height="13.9"/>
	<rect x="252.3" y="257.9" class="st0" width="12.8" height="13.9"/>
	<rect x="252.3" y="244.1" class="st0" width="12.8" height="13.9"/>
	<rect x="252.3" y="230.2" class="st0" width="12.8" height="13.9"/>
	<rect x="239.5" y="424.3" class="st0" width="12.8" height="13.9"/>
	<rect x="239.5" y="410.4" class="st0" width="12.8" height="13.9"/>
	<rect x="239.5" y="396.5" class="st0" width="12.8" height="13.9"/>
	<rect x="239.5" y="382.7" class="st0" width="12.8" height="13.9"/>
	<rect x="239.5" y="368.8" class="st0" width="12.8" height="13.9"/>
	<rect x="239.5" y="355" class="st0" width="12.8" height="13.9"/>
	<rect x="239.5" y="341.1" class="st0" width="12.8" height="13.9"/>
	<rect x="239.5" y="327.2" class="st0" width="12.8" height="13.9"/>
	<rect x="239.5" y="313.4" class="st0" width="12.8" height="13.9"/>
	<rect x="239.5" y="299.5" class="st0" width="12.8" height="13.9"/>
	<rect x="239.5" y="285.7" class="st0" width="12.8" height="13.9"/>
	<rect x="239.5" y="271.8" class="st0" width="12.8" height="13.9"/>
	<rect x="239.5" y="257.9" class="st0" width="12.8" height="13.9"/>
	<rect x="239.5" y="244.1" class="st0" width="12.8" height="13.9"/>
	<rect x="239.5" y="230.2" class="st0" width="12.8" height="13.9"/>
	<rect x="226.7" y="424.3" class="st0" width="12.8" height="13.9"/>
	<rect x="226.7" y="410.4" class="st0" width="12.8" height="13.9"/>
	<rect x="226.7" y="396.5" class="st0" width="12.8" height="13.9"/>
	<rect x="226.7" y="382.7" class="st0" width="12.8" height="13.9"/>
	<rect x="226.7" y="368.8" class="st0" width="12.8" height="13.9"/>
	<rect x="226.7" y="355" class="st0" width="12.8" height="13.9"/>
	<rect x="226.7" y="341.1" class="st0" width="12.8" height="13.9"/>
	<rect x="226.7" y="327.2" class="st0" width="12.8" height="13.9"/>
	<rect x="226.7" y="313.4" class="st0" width="12.8" height="13.9"/>
	<rect x="226.7" y="299.5" class="st0" width="12.8" height="13.9"/>
	<rect x="226.7" y="285.7" class="st0" width="12.8" height="13.9"/>
	<rect x="226.7" y="271.8" class="st0" width="12.8" height="13.9"/>
	<rect x="226.7" y="257.9" class="st0" width="12.8" height="13.9"/>
	<rect x="226.7" y="244.1" class="st0" width="12.8" height="13.9"/>
	<rect x="226.7" y="230.2" class="st0" width="12.8" height="13.9"/>
	<rect x="214" y="424.3" class="st0" width="12.8" height="13.9"/>
	<rect x="214" y="410.4" class="st0" width="12.8" height="13.9"/>
	<rect x="214" y="396.5" class="st0" width="12.8" height="13.9"/>
	<rect x="214" y="382.7" class="st0" width="12.8" height="13.9"/>
	<rect x="214" y="368.8" class="st0" width="12.8" height="13.9"/>
	<rect x="214" y="355" class="st0" width="12.8" height="13.9"/>
	<rect x="214" y="341.1" class="st0" width="12.8" height="13.9"/>
	<rect x="214" y="327.2" class="st0" width="12.8" height="13.9"/>
	<rect x="214" y="313.4" class="st0" width="12.8" height="13.9"/>
	<rect x="214" y="299.5" class="st0" width="12.8" height="13.9"/>
	<rect x="214" y="285.7" class="st0" width="12.8" height="13.9"/>
	<rect x="214" y="271.8" class="st0" width="12.8" height="13.9"/>
	<rect x="214" y="257.9" class="st0" width="12.8" height="13.9"/>
	<rect x="214" y="244.1" class="st0" width="12.8" height="13.9"/>
	<rect x="214" y="230.2" class="st0" width="12.8" height="13.9"/>
	<rect x="201.2" y="424.3" class="st0" width="12.8" height="13.9"/>
	<rect x="201.2" y="410.4" class="st0" width="12.8" height="13.9"/>
	<rect x="201.2" y="396.5" class="st0" width="12.8" height="13.9"/>
	<rect x="201.2" y="382.7" class="st0" width="12.8" height="13.9"/>
	<rect x="201.2" y="368.8" class="st0" width="12.8" height="13.9"/>
	<rect x="201.2" y="355" class="st0" width="12.8" height="13.9"/>
	<rect x="201.2" y="341.1" class="st0" width="12.8" height="13.9"/>
	<rect x="201.2" y="327.2" class="st0" width="12.8" height="13.9"/>
	<rect x="201.2" y="313.4" class="st0" width="12.8" height="13.9"/>
	<rect x="201.2" y="299.5" class="st0" width="12.8" height="13.9"/>
	<rect x="201.2" y="285.7" class="st0" width="12.8" height="13.9"/>
	<rect x="201.2" y="271.8" class="st0" width="12.8" height="13.9"/>
	<rect x="201.2" y="257.9" class="st0" width="12.8" height="13.9"/>
	<rect x="201.2" y="244.1" class="st0" width="12.8" height="13.9"/>
	<rect x="201.2" y="230.2" class="st0" width="12.8" height="13.9"/>
	<rect x="188.5" y="424.3" class="st0" width="12.8" height="13.9"/>
	<rect x="188.5" y="410.4" class="st0" width="12.8" height="13.9"/>
	<rect x="188.5" y="396.5" class="st0" width="12.8" height="13.9"/>
	<rect x="188.5" y="382.7" class="st0" width="12.8" height="13.9"/>
	<rect x="188.5" y="368.8" class="st0" width="12.8" height="13.9"/>
	<rect x="188.5" y="355" class="st0" width="12.8" height="13.9"/>
	<rect x="188.5" y="341.1" class="st0" width="12.8" height="13.9"/>
	<rect x="188.5" y="327.2" class="st0" width="12.8" height="13.9"/>
	<rect x="188.5" y="313.4" class="st0" width="12.8" height="13.9"/>
	<rect x="188.5" y="299.5" class="st0" width="12.8" height="13.9"/>
	<rect x="188.5" y="285.7" class="st0" width="12.8" height="13.9"/>
	<rect x="188.5" y="271.8" class="st0" width="12.8" height="13.9"/>
	<rect x="188.5" y="257.9" class="st0" width="12.8" height="13.9"/>
	<rect x="188.5" y="244.1" class="st0" width="12.8" height="13.9"/>
	<rect x="188.5" y="230.2" class="st0" width="12.8" height="13.9"/>
	<rect x="175.7" y="424.3" class="st0" width="12.8" height="13.9"/>
	<rect x="175.7" y="410.4" class="st0" width="12.8" height="13.9"/>
	<rect x="175.7" y="396.5" class="st0" width="12.8" height="13.9"/>
	<rect x="175.7" y="382.7" class="st0" width="12.8" height="13.9"/>
	<rect x="175.7" y="368.8" class="st0" width="12.8" height="13.9"/>
	<rect x="175.7" y="355" class="st0" width="12.8" height="13.9"/>
	<rect x="175.7" y="341.1" class="st0" width="12.8" height="13.9"/>
	<rect x="175.7" y="327.2" class="st0" width="12.8" height="13.9"/>
	<rect x="175.7" y="313.4" class="st0" width="12.8" height="13.9"/>
	<rect x="175.7" y="299.5" class="st0" width="12.8" height="13.9"/>
	<rect x="175.7" y="285.7" class="st0" width="12.8" height="13.9"/>
	<rect x="175.7" y="271.8" class="st0" width="12.8" height="13.9"/>
	<rect x="175.7" y="257.9" class="st0" width="12.8" height="13.9"/>
	<rect x="175.7" y="244.1" class="st0" width="12.8" height="13.9"/>
	<rect x="175.7" y="230.2" class="st0" width="12.8" height="13.9"/>
	<rect x="175.7" y="147" class="st0" width="12.8" height="13.9"/>
	<rect x="175.7" y="133.2" class="st0" width="12.8" height="13.9"/>
	<rect x="175.7" y="119.3" class="st0" width="12.8" height="13.9"/>
	<rect x="175.7" y="105.5" class="st0" width="12.8" height="13.9"/>
	<rect x="175.7" y="91.6" class="st0" width="12.8" height="13.9"/>
	<rect x="175.7" y="77.7" class="st0" width="12.8" height="13.9"/>
	<rect x="162.9" y="438.1" class="st0" width="12.8" height="13.9"/>
	<rect x="162.9" y="424.3" class="st0" width="12.8" height="13.9"/>
	<rect x="162.9" y="410.4" class="st0" width="12.8" height="13.9"/>
	<rect x="162.9" y="396.5" class="st0" width="12.8" height="13.9"/>
	<rect x="162.9" y="382.7" class="st0" width="12.8" height="13.9"/>
	<rect x="162.9" y="368.8" class="st0" width="12.8" height="13.9"/>
	<rect x="162.9" y="355" class="st0" width="12.8" height="13.9"/>
	<rect x="162.9" y="341.1" class="st0" width="12.8" height="13.9"/>
	<rect x="162.9" y="327.2" class="st0" width="12.8" height="13.9"/>
	<rect x="162.9" y="313.4" class="st0" width="12.8" height="13.9"/>
	<rect x="162.9" y="299.5" class="st0" width="12.8" height="13.9"/>
	<rect x="162.9" y="285.7" class="st0" width="12.8" height="13.9"/>
	<rect x="162.9" y="271.8" class="st0" width="12.8" height="13.9"/>
	<rect x="162.9" y="257.9" class="st0" width="12.8" height="13.9"/>
	<rect x="162.9" y="244.1" class="st0" width="12.8" height="13.9"/>
	<rect x="162.9" y="174.8" class="st0" width="12.8" height="13.9"/>
	<rect x="162.9" y="160.9" class="st0" width="12.8" height="13.9"/>
	<rect x="162.9" y="147" class="st0" width="12.8" height="13.9"/>
	<rect x="162.9" y="133.2" class="st0" width="12.8" height="13.9"/>
	<rect x="162.9" y="119.3" class="st0" width="12.8" height="13.9"/>
	<rect x="162.9" y="105.5" class="st0" width="12.8" height="13.9"/>
	<rect x="162.9" y="91.6" class="st0" width="12.8" height="13.9"/>
	<rect x="162.9" y="77.7" class="st0" width="12.8" height="13.9"/>
	<rect x="162.9" y="63.9" class="st0" width="12.8" height="13.9"/>
	<rect x="150.2" y="438.1" class="st0" width="12.8" height="13.9"/>
	<rect x="150.2" y="424.3" class="st0" width="12.8" height="13.9"/>
	<rect x="150.2" y="410.4" class="st0" width="12.8" height="13.9"/>
	<rect x="150.2" y="396.5" class="st0" width="12.8" height="13.9"/>
	<rect x="150.2" y="382.7" class="st0" width="12.8" height="13.9"/>
	<rect x="150.2" y="368.8" class="st0" width="12.8" height="13.9"/>
	<rect x="150.2" y="355" class="st0" width="12.8" height="13.9"/>
	<rect x="150.2" y="341.1" class="st0" width="12.8" height="13.9"/>
	<rect x="150.2" y="327.2" class="st0" width="12.8" height="13.9"/>
	<rect x="150.2" y="313.4" class="st0" width="12.8" height="13.9"/>
	<rect x="150.2" y="299.5" class="st0" width="12.8" height="13.9"/>
	<rect x="150.2" y="285.7" class="st0" width="12.8" height="13.9"/>
	<rect x="150.2" y="271.8" class="st0" width="12.8" height="13.9"/>
	<rect x="150.2" y="257.9" class="st0" width="12.8" height="13.9"/>
	<rect x="150.2" y="244.1" class="st0" width="12.8" height="13.9"/>
	<rect x="150.2" y="188.6" class="st0" width="12.8" height="13.9"/>
	<rect x="150.2" y="174.8" class="st0" width="12.8" height="13.9"/>
	<rect x="150.2" y="160.9" class="st0" width="12.8" height="13.9"/>
	<rect x="150.2" y="147" class="st0" width="12.8" height="13.9"/>
	<rect x="150.2" y="133.2" class="st0" width="12.8" height="13.9"/>
	<rect x="150.2" y="119.3" class="st0" width="12.8" height="13.9"/>
	<rect x="150.2" y="105.5" class="st0" width="12.8" height="13.9"/>
	<rect x="150.2" y="91.6" class="st0" width="12.8" height="13.9"/>
	<rect x="150.2" y="77.7" class="st0" width="12.8" height="13.9"/>
	<rect x="150.2" y="63.9" class="st0" width="12.8" height="13.9"/>
	<rect x="150.2" y="50" class="st0" width="12.8" height="13.9"/>
	<rect x="137.4" y="438.1" class="st0" width="12.8" height="13.9"/>
	<rect x="137.4" y="424.3" class="st0" width="12.8" height="13.9"/>
	<rect x="137.4" y="410.4" class="st0" width="12.8" height="13.9"/>
	<rect x="137.4" y="396.5" class="st0" width="12.8" height="13.9"/>
	<rect x="137.4" y="382.7" class="st0" width="12.8" height="13.9"/>
	<rect x="137.4" y="368.8" class="st0" width="12.8" height="13.9"/>
	<rect x="137.4" y="355" class="st0" width="12.8" height="13.9"/>
	<rect x="137.4" y="341.1" class="st0" width="12.8" height="13.9"/>
	<rect x="137.4" y="327.2" class="st0" width="12.8" height="13.9"/>
	<rect x="137.4" y="313.4" class="st0" width="12.8" height="13.9"/>
	<rect x="137.4" y="299.5" class="st0" width="12.8" height="13.9"/>
	<rect x="137.4" y="285.7" class="st0" width="12.8" height="13.9"/>
	<rect x="137.4" y="271.8" class="st0" width="12.8" height="13.9"/>
	<rect x="137.4" y="257.9" class="st0" width="12.8" height="13.9"/>
	<rect x="137.4" y="188.6" class="st0" width="12.8" height="13.9"/>
	<rect x="137.4" y="174.8" class="st0" width="12.8" height="13.9"/>
	<rect x="137.4" y="160.9" class="st0" width="12.8" height="13.9"/>
	<rect x="137.4" y="147" class="st0" width="12.8" height="13.9"/>
	<rect x="137.4" y="133.2" class="st0" width="12.8" height="13.9"/>
	<rect x="137.4" y="119.3" class="st0" width="12.8" height="13.9"/>
	<rect x="137.4" y="105.5" class="st0" width="12.8" height="13.9"/>
	<rect x="137.4" y="91.6" class="st0" width="12.8" height="13.9"/>
	<rect x="137.4" y="77.7" class="st0" width="12.8" height="13.9"/>
	<rect x="137.4" y="63.9" class="st0" width="12.8" height="13.9"/>
	<rect x="137.4" y="50" class="st0" width="12.8" height="13.9"/>
	<rect x="124.6" y="424.3" class="st0" width="12.8" height="13.9"/>
	<rect x="124.6" y="410.4" class="st0" width="12.8" height="13.9"/>
	<rect x="124.6" y="396.5" class="st0" width="12.8" height="13.9"/>
	<rect x="124.6" y="382.7" class="st0" width="12.8" height="13.9"/>
	<rect x="124.6" y="368.8" class="st0" width="12.8" height="13.9"/>
	<rect x="124.6" y="355" class="st0" width="12.8" height="13.9"/>
	<rect x="124.6" y="341.1" class="st0" width="12.8" height="13.9"/>
	<rect x="124.6" y="327.2" class="st0" width="12.8" height="13.9"/>
	<rect x="124.6" y="313.4" class="st0" width="12.8" height="13.9"/>
	<rect x="124.6" y="299.5" class="st0" width="12.8" height="13.9"/>
	<rect x="124.6" y="285.7" class="st0" width="12.8" height="13.9"/>
	<rect x="124.6" y="271.8" class="st0" width="12.8" height="13.9"/>
	<rect x="124.6" y="188.6" class="st0" width="12.8" height="13.9"/>
	<rect x="124.6" y="174.8" class="st0" width="12.8" height="13.9"/>
	<rect x="124.6" y="160.9" class="st0" width="12.8" height="13.9"/>
	<rect x="124.6" y="147" class="st0" width="12.8" height="13.9"/>
	<rect x="124.6" y="133.2" class="st0" width="12.8" height="13.9"/>
	<rect x="124.6" y="119.3" class="st0" width="12.8" height="13.9"/>
	<rect x="124.6" y="105.5" class="st0" width="12.8" height="13.9"/>
	<rect x="124.6" y="91.6" class="st0" width="12.8" height="13.9"/>
	<rect x="124.6" y="77.7" class="st0" width="12.8" height="13.9"/>
	<rect x="124.6" y="63.9" class="st0" width="12.8" height="13.9"/>
	<rect x="124.6" y="50" class="st0" width="12.8" height="13.9"/>
	<rect x="111.9" y="410.4" class="st0" width="12.8" height="13.9"/>
	<rect x="111.9" y="396.5" class="st0" width="12.8" height="13.9"/>
	<rect x="111.9" y="382.7" class="st0" width="12.8" height="13.9"/>
	<rect x="111.9" y="368.8" class="st0" width="12.8" height="13.9"/>
	<rect x="111.9" y="355" class="st0" width="12.8" height="13.9"/>
	<rect x="111.9" y="341.1" class="st0" width="12.8" height="13.9"/>
	<rect x="111.9" y="327.2" class="st0" width="12.8" height="13.9"/>
	<rect x="111.9" y="313.4" class="st0" width="12.8" height="13.9"/>
	<rect x="111.9" y="299.5" class="st0" width="12.8" height="13.9"/>
	<rect x="111.9" y="174.8" class="st0" width="12.8" height="13.9"/>
	<rect x="111.9" y="160.9" class="st0" width="12.8" height="13.9"/>
	<rect x="111.9" y="147" class="st0" width="12.8" height="13.9"/>
	<rect x="111.9" y="133.2" class="st0" width="12.8" height="13.9"/>
	<rect x="111.9" y="119.3" class="st0" width="12.8" height="13.9"/>
	<rect x="111.9" y="105.5" class="st0" width="12.8" height="13.9"/>
	<rect x="111.9" y="91.6" class="st0" width="12.8" height="13.9"/>
	<rect x="111.9" y="77.7" class="st0" width="12.8" height="13.9"/>
	<rect x="111.9" y="63.9" class="st0" width="12.8" height="13.9"/>
	<rect x="111.9" y="50" class="st0" width="12.8" height="13.9"/>
	<rect x="99.1" y="368.8" class="st0" width="12.8" height="13.9"/>
	<rect x="99.1" y="355" class="st0" width="12.8" height="13.9"/>
	<rect x="99.1" y="341.1" class="st0" width="12.8" height="13.9"/>
	<rect x="99.1" y="327.2" class="st0" width="12.8" height="13.9"/>
	<rect x="99.1" y="160.9" class="st0" width="12.8" height="13.9"/>
	<rect x="99.1" y="147" class="st0" width="12.8" height="13.9"/>
	<rect x="99.1" y="133.2" class="st0" width="12.8" height="13.9"/>
	<rect x="99.1" y="119.3" class="st0" width="12.8" height="13.9"/>
	<rect x="99.1" y="105.5" class="st0" width="12.8" height="13.9"/>
	<rect x="99.1" y="91.6" class="st0" width="12.8" height="13.9"/>
	<rect x="99.1" y="77.7" class="st0" width="12.8" height="13.9"/>
	<rect x="99.1" y="63.9" class="st0" width="12.8" height="13.9"/>
	<rect x="86.4" y="299.5" class="st0" width="12.8" height="13.9"/>
	<rect x="86.4" y="285.7" class="st0" width="12.8" height="13.9"/>
	<rect x="86.4" y="271.8" class="st0" width="12.8" height="13.9"/>
	<rect x="86.4" y="257.9" class="st0" width="12.8" height="13.9"/>
	<rect x="86.4" y="147" class="st0" width="12.8" height="13.9"/>
	<rect x="86.4" y="133.2" class="st0" width="12.8" height="13.9"/>
	<rect x="86.4" y="119.3" class="st0" width="12.8" height="13.9"/>
	<rect x="86.4" y="105.5" class="st0" width="12.8" height="13.9"/>
	<rect x="86.4" y="91.6" class="st0" width="12.8" height="13.9"/>
	<rect x="86.4" y="77.7" class="st0" width="12.8" height="13.9"/>
	<rect x="73.6" y="313.4" class="st0" width="12.8" height="13.9"/>
	<rect x="73.6" y="299.5" class="st0" width="12.8" height="13.9"/>
	<rect x="73.6" y="285.7" class="st0" width="12.8" height="13.9"/>
	<rect x="73.6" y="271.8" class="st0" width="12.8" height="13.9"/>
	<rect x="73.6" y="257.9" class="st0" width="12.8" height="13.9"/>
	<rect x="73.6" y="244.1" class="st0" width="12.8" height="13.9"/>
	<rect x="73.6" y="230.2" class="st0" width="12.8" height="13.9"/>
	<rect x="60.8" y="313.4" class="st0" width="12.8" height="13.9"/>
	<rect x="60.8" y="299.5" class="st0" width="12.8" height="13.9"/>
	<rect x="60.8" y="285.7" class="st0" width="12.8" height="13.9"/>
	<rect x="60.8" y="271.8" class="st0" width="12.8" height="13.9"/>
	<rect x="60.8" y="257.9" class="st0" width="12.8" height="13.9"/>
	<rect x="60.8" y="244.1" class="st0" width="12.8" height="13.9"/>
	<rect x="60.8" y="230.2" class="st0" width="12.8" height="13.9"/>
	<rect x="60.8" y="216.3" class="st0" width="12.8" height="13.9"/>
	<rect x="48.1" y="299.5" class="st0" width="12.8" height="13.9"/>
	<rect x="48.1" y="285.7" class="st0" width="12.8" height="13.9"/>
	<rect x="48.1" y="271.8" class="st0" width="12.8" height="13.9"/>
	<rect x="48.1" y="257.9" class="st0" width="12.8" height="13.9"/>
	<rect x="48.1" y="244.1" class="st0" width="12.8" height="13.9"/>
	<rect x="48.1" y="230.2" class="st0" width="12.8" height="13.9"/>
	<rect x="48.1" y="216.3" class="st0" width="12.8" height="13.9"/>
	<rect x="35.3" y="285.7" class="st0" width="12.8" height="13.9"/>
	<rect x="35.3" y="271.8" class="st0" width="12.8" height="13.9"/>
	<rect x="35.3" y="257.9" class="st0" width="12.8" height="13.9"/>
	<rect x="35.3" y="244.1" class="st0" width="12.8" height="13.9"/>
	<rect x="35.3" y="230.2" class="st0" width="12.8" height="13.9"/>
	<rect x="35.3" y="216.3" class="st0" width="12.8" height="13.9"/>
	<rect x="22.5" y="271.8" class="st0" width="12.8" height="13.9"/>
	<rect x="22.5" y="257.9" class="st0" width="12.8" height="13.9"/>
	<rect x="22.5" y="244.1" class="st0" width="12.8" height="13.9"/>
	<rect x="22.5" y="230.2" class="st0" width="12.8" height="13.9"/>
</g>
</svg>
