<?xml version="1.0" encoding="utf-8"?>
<!-- Generator: Adobe Illustrator 22.1.0, SVG Export Plug-In . SVG Version: 6.00 Build 0)  -->
<svg version="1.1" id="Layer_1" xmlns="http://www.w3.org/2000/svg" xmlns:xlink="http://www.w3.org/1999/xlink" x="0px" y="0px"
	 viewBox="0 0 500 500" style="enable-background:new 0 0 500 500;" xml:space="preserve">
<style type="text/css">
	.st0{fill:#73896E;}
</style>
<g>
	<rect x="287.7" y="94.1" class="st0" width="11.8" height="11.8"/>
	<rect x="287.7" y="105.9" class="st0" width="11.8" height="11.8"/>
	<rect x="275.8" y="117.8" class="st0" width="11.8" height="11.8"/>
	<rect x="204.8" y="58.6" class="st0" width="11.8" height="11.8"/>
	<rect x="465.2" y="437.3" class="st0" width="11.8" height="11.8"/>
	<rect x="453.3" y="437.3" class="st0" width="11.8" height="11.8"/>
	<rect x="453.3" y="425.4" class="st0" width="11.8" height="11.8"/>
	<rect x="453.3" y="413.6" class="st0" width="11.8" height="11.8"/>
	<rect x="441.5" y="437.3" class="st0" width="11.8" height="11.8"/>
	<rect x="441.5" y="425.4" class="st0" width="11.8" height="11.8"/>
	<rect x="441.5" y="413.6" class="st0" width="11.8" height="11.8"/>
	<rect x="441.5" y="401.8" class="st0" width="11.8" height="11.8"/>
	<rect x="441.5" y="366.3" class="st0" width="11.8" height="11.8"/>
	<rect x="441.5" y="236.1" class="st0" width="11.8" height="11.8"/>
	<rect x="429.7" y="437.3" class="st0" width="11.8" height="11.8"/>
	<rect x="429.7" y="425.4" class="st0" width="11.8" height="11.8"/>
	<rect x="429.7" y="413.6" class="st0" width="11.8" height="11.8"/>
	<rect x="429.7" y="401.8" class="st0" width="11.8" height="11.8"/>
	<rect x="429.7" y="389.9" class="st0" width="11.8" height="11.8"/>
	<rect x="429.7" y="378.1" class="st0" width="11.8" height="11.8"/>
	<rect x="429.7" y="259.8" class="st0" width="11.8" height="11.8"/>
	<rect x="429.7" y="247.9" class="st0" width="11.8" height="11.8"/>
	<rect x="429.7" y="236.1" class="st0" width="11.8" height="11.8"/>
	<rect x="417.8" y="437.3" class="st0" width="11.8" height="11.8"/>
	<rect x="417.8" y="413.6" class="st0" width="11.8" height="11.8"/>
	<rect x="417.8" y="401.8" class="st0" width="11.8" height="11.8"/>
	<rect x="417.8" y="378.1" class="st0" width="11.8" height="11.8"/>
	<rect x="417.8" y="366.3" class="st0" width="11.8" height="11.8"/>
	<rect x="417.8" y="354.4" class="st0" width="11.8" height="11.8"/>
	<rect x="417.8" y="342.6" class="st0" width="11.8" height="11.8"/>
	<rect x="417.8" y="330.8" class="st0" width="11.8" height="11.8"/>
	<rect x="417.8" y="318.9" class="st0" width="11.8" height="11.8"/>
	<rect x="417.8" y="307.1" class="st0" width="11.8" height="11.8"/>
	<rect x="417.8" y="295.3" class="st0" width="11.8" height="11.8"/>
	<rect x="417.8" y="283.4" class="st0" width="11.8" height="11.8"/>
	<rect x="417.8" y="271.6" class="st0" width="11.8" height="11.8"/>
	<rect x="417.8" y="259.8" class="st0" width="11.8" height="11.8"/>
	<rect x="417.8" y="236.1" class="st0" width="11.8" height="11.8"/>
	<rect x="417.8" y="117.8" class="st0" width="11.8" height="11.8"/>
	<rect x="417.8" y="105.9" class="st0" width="11.8" height="11.8"/>
	<rect x="417.8" y="94.1" class="st0" width="11.8" height="11.8"/>
	<rect x="406" y="437.3" class="st0" width="11.8" height="11.8"/>
	<rect x="406" y="413.6" class="st0" width="11.8" height="11.8"/>
	<rect x="406" y="401.8" class="st0" width="11.8" height="11.8"/>
	<rect x="406" y="389.9" class="st0" width="11.8" height="11.8"/>
	<rect x="406" y="354.4" class="st0" width="11.8" height="11.8"/>
	<rect x="406" y="259.8" class="st0" width="11.8" height="11.8"/>
	<rect x="406" y="236.1" class="st0" width="11.8" height="11.8"/>
	<rect x="406" y="200.6" class="st0" width="11.8" height="11.8"/>
	<rect x="406" y="129.6" class="st0" width="11.8" height="11.8"/>
	<rect x="406" y="82.3" class="st0" width="11.8" height="11.8"/>
	<rect x="394.2" y="437.3" class="st0" width="11.8" height="11.8"/>
	<rect x="394.2" y="413.6" class="st0" width="11.8" height="11.8"/>
	<rect x="394.2" y="401.8" class="st0" width="11.8" height="11.8"/>
	<rect x="394.2" y="378.1" class="st0" width="11.8" height="11.8"/>
	<rect x="394.2" y="366.3" class="st0" width="11.8" height="11.8"/>
	<rect x="394.2" y="354.4" class="st0" width="11.8" height="11.8"/>
	<rect x="394.2" y="342.6" class="st0" width="11.8" height="11.8"/>
	<rect x="394.2" y="307.1" class="st0" width="11.8" height="11.8"/>
	<rect x="394.2" y="283.4" class="st0" width="11.8" height="11.8"/>
	<rect x="394.2" y="259.8" class="st0" width="11.8" height="11.8"/>
	<rect x="394.2" y="236.1" class="st0" width="11.8" height="11.8"/>
	<rect x="394.2" y="188.8" class="st0" width="11.8" height="11.8"/>
	<rect x="394.2" y="141.4" class="st0" width="11.8" height="11.8"/>
	<rect x="394.2" y="70.4" class="st0" width="11.8" height="11.8"/>
	<rect x="382.3" y="437.3" class="st0" width="11.8" height="11.8"/>
	<rect x="382.3" y="413.6" class="st0" width="11.8" height="11.8"/>
	<rect x="382.3" y="401.8" class="st0" width="11.8" height="11.8"/>
	<rect x="382.3" y="389.9" class="st0" width="11.8" height="11.8"/>
	<rect x="382.3" y="366.3" class="st0" width="11.8" height="11.8"/>
	<rect x="382.3" y="354.4" class="st0" width="11.8" height="11.8"/>
	<rect x="382.3" y="342.6" class="st0" width="11.8" height="11.8"/>
	<rect x="382.3" y="330.8" class="st0" width="11.8" height="11.8"/>
	<rect x="382.3" y="259.8" class="st0" width="11.8" height="11.8"/>
	<rect x="382.3" y="236.1" class="st0" width="11.8" height="11.8"/>
	<rect x="382.3" y="176.9" class="st0" width="11.8" height="11.8"/>
	<rect x="382.3" y="165.1" class="st0" width="11.8" height="11.8"/>
	<rect x="382.3" y="153.3" class="st0" width="11.8" height="11.8"/>
	<rect x="382.3" y="58.6" class="st0" width="11.8" height="11.8"/>
	<rect x="382.3" y="46.8" class="st0" width="11.8" height="11.8"/>
	<rect x="382.3" y="34.9" class="st0" width="11.8" height="11.8"/>
	<rect x="370.5" y="437.3" class="st0" width="11.8" height="11.8"/>
	<rect x="370.5" y="425.4" class="st0" width="11.8" height="11.8"/>
	<rect x="370.5" y="413.6" class="st0" width="11.8" height="11.8"/>
	<rect x="370.5" y="401.8" class="st0" width="11.8" height="11.8"/>
	<rect x="370.5" y="354.4" class="st0" width="11.8" height="11.8"/>
	<rect x="370.5" y="342.6" class="st0" width="11.8" height="11.8"/>
	<rect x="370.5" y="330.8" class="st0" width="11.8" height="11.8"/>
	<rect x="370.5" y="259.8" class="st0" width="11.8" height="11.8"/>
	<rect x="370.5" y="236.1" class="st0" width="11.8" height="11.8"/>
	<rect x="358.7" y="437.3" class="st0" width="11.8" height="11.8"/>
	<rect x="358.7" y="425.4" class="st0" width="11.8" height="11.8"/>
	<rect x="358.7" y="413.6" class="st0" width="11.8" height="11.8"/>
	<rect x="358.7" y="401.8" class="st0" width="11.8" height="11.8"/>
	<rect x="358.7" y="389.9" class="st0" width="11.8" height="11.8"/>
	<rect x="358.7" y="366.3" class="st0" width="11.8" height="11.8"/>
	<rect x="358.7" y="354.4" class="st0" width="11.8" height="11.8"/>
	<rect x="358.7" y="342.6" class="st0" width="11.8" height="11.8"/>
	<rect x="358.7" y="330.8" class="st0" width="11.8" height="11.8"/>
	<rect x="358.7" y="259.8" class="st0" width="11.8" height="11.8"/>
	<rect x="358.7" y="236.1" class="st0" width="11.8" height="11.8"/>
	<rect x="346.8" y="437.3" class="st0" width="11.8" height="11.8"/>
	<rect x="346.8" y="413.6" class="st0" width="11.8" height="11.8"/>
	<rect x="346.8" y="401.8" class="st0" width="11.8" height="11.8"/>
	<rect x="346.8" y="378.1" class="st0" width="11.8" height="11.8"/>
	<rect x="346.8" y="366.3" class="st0" width="11.8" height="11.8"/>
	<rect x="346.8" y="354.4" class="st0" width="11.8" height="11.8"/>
	<rect x="346.8" y="342.6" class="st0" width="11.8" height="11.8"/>
	<rect x="346.8" y="330.8" class="st0" width="11.8" height="11.8"/>
	<rect x="346.8" y="259.8" class="st0" width="11.8" height="11.8"/>
	<rect x="346.8" y="236.1" class="st0" width="11.8" height="11.8"/>
	<rect x="346.8" y="117.8" class="st0" width="11.8" height="11.8"/>
	<rect x="346.8" y="82.3" class="st0" width="11.8" height="11.8"/>
	<rect x="346.8" y="70.4" class="st0" width="11.8" height="11.8"/>
	<rect x="335" y="437.3" class="st0" width="11.8" height="11.8"/>
	<rect x="335" y="413.6" class="st0" width="11.8" height="11.8"/>
	<rect x="335" y="401.8" class="st0" width="11.8" height="11.8"/>
	<rect x="335" y="389.9" class="st0" width="11.8" height="11.8"/>
	<rect x="335" y="366.3" class="st0" width="11.8" height="11.8"/>
	<rect x="335" y="354.4" class="st0" width="11.8" height="11.8"/>
	<rect x="335" y="342.6" class="st0" width="11.8" height="11.8"/>
	<rect x="335" y="330.8" class="st0" width="11.8" height="11.8"/>
	<rect x="335" y="318.9" class="st0" width="11.8" height="11.8"/>
	<rect x="335" y="259.8" class="st0" width="11.8" height="11.8"/>
	<rect x="335" y="236.1" class="st0" width="11.8" height="11.8"/>
	<rect x="335" y="105.9" class="st0" width="11.8" height="11.8"/>
	<rect x="335" y="94.1" class="st0" width="11.8" height="11.8"/>
	<rect x="335" y="58.6" class="st0" width="11.8" height="11.8"/>
	<rect x="323.2" y="437.3" class="st0" width="11.8" height="11.8"/>
	<rect x="323.2" y="413.6" class="st0" width="11.8" height="11.8"/>
	<rect x="323.2" y="401.8" class="st0" width="11.8" height="11.8"/>
	<rect x="323.2" y="354.4" class="st0" width="11.8" height="11.8"/>
	<rect x="323.2" y="342.6" class="st0" width="11.8" height="11.8"/>
	<rect x="323.2" y="330.8" class="st0" width="11.8" height="11.8"/>
	<rect x="323.2" y="318.9" class="st0" width="11.8" height="11.8"/>
	<rect x="323.2" y="259.8" class="st0" width="11.8" height="11.8"/>
	<rect x="323.2" y="236.1" class="st0" width="11.8" height="11.8"/>
	<rect x="323.2" y="188.8" class="st0" width="11.8" height="11.8"/>
	<rect x="323.2" y="176.9" class="st0" width="11.8" height="11.8"/>
	<rect x="311.3" y="437.3" class="st0" width="11.8" height="11.8"/>
	<rect x="311.3" y="413.6" class="st0" width="11.8" height="11.8"/>
	<rect x="311.3" y="401.8" class="st0" width="11.8" height="11.8"/>
	<rect x="311.3" y="389.9" class="st0" width="11.8" height="11.8"/>
	<rect x="311.3" y="366.3" class="st0" width="11.8" height="11.8"/>
	<rect x="311.3" y="354.4" class="st0" width="11.8" height="11.8"/>
	<rect x="311.3" y="342.6" class="st0" width="11.8" height="11.8"/>
	<rect x="311.3" y="330.8" class="st0" width="11.8" height="11.8"/>
	<rect x="311.3" y="318.9" class="st0" width="11.8" height="11.8"/>
	<rect x="311.3" y="307.1" class="st0" width="11.8" height="11.8"/>
	<rect x="311.3" y="259.8" class="st0" width="11.8" height="11.8"/>
	<rect x="311.3" y="236.1" class="st0" width="11.8" height="11.8"/>
	<rect x="311.3" y="200.6" class="st0" width="11.8" height="11.8"/>
	<rect x="311.3" y="188.8" class="st0" width="11.8" height="11.8"/>
	<rect x="311.3" y="165.1" class="st0" width="11.8" height="11.8"/>
	<rect x="299.5" y="437.3" class="st0" width="11.8" height="11.8"/>
	<rect x="299.5" y="425.4" class="st0" width="11.8" height="11.8"/>
	<rect x="299.5" y="413.6" class="st0" width="11.8" height="11.8"/>
	<rect x="299.5" y="401.8" class="st0" width="11.8" height="11.8"/>
	<rect x="299.5" y="378.1" class="st0" width="11.8" height="11.8"/>
	<rect x="299.5" y="366.3" class="st0" width="11.8" height="11.8"/>
	<rect x="299.5" y="354.4" class="st0" width="11.8" height="11.8"/>
	<rect x="299.5" y="342.6" class="st0" width="11.8" height="11.8"/>
	<rect x="299.5" y="330.8" class="st0" width="11.8" height="11.8"/>
	<rect x="299.5" y="318.9" class="st0" width="11.8" height="11.8"/>
	<rect x="299.5" y="307.1" class="st0" width="11.8" height="11.8"/>
	<rect x="299.5" y="295.3" class="st0" width="11.8" height="11.8"/>
	<rect x="299.5" y="259.8" class="st0" width="11.8" height="11.8"/>
	<rect x="299.5" y="236.1" class="st0" width="11.8" height="11.8"/>
	<rect x="299.5" y="224.3" class="st0" width="11.8" height="11.8"/>
	<rect x="299.5" y="200.6" class="st0" width="11.8" height="11.8"/>
	<rect x="299.5" y="188.8" class="st0" width="11.8" height="11.8"/>
	<rect x="299.5" y="165.1" class="st0" width="11.8" height="11.8"/>
	<rect x="287.7" y="437.3" class="st0" width="11.8" height="11.8"/>
	<rect x="287.7" y="425.4" class="st0" width="11.8" height="11.8"/>
	<rect x="287.7" y="413.6" class="st0" width="11.8" height="11.8"/>
	<rect x="287.7" y="401.8" class="st0" width="11.8" height="11.8"/>
	<rect x="287.7" y="389.9" class="st0" width="11.8" height="11.8"/>
	<rect x="287.7" y="366.3" class="st0" width="11.8" height="11.8"/>
	<rect x="287.7" y="354.4" class="st0" width="11.8" height="11.8"/>
	<rect x="287.7" y="342.6" class="st0" width="11.8" height="11.8"/>
	<rect x="287.7" y="330.8" class="st0" width="11.8" height="11.8"/>
	<rect x="287.7" y="318.9" class="st0" width="11.8" height="11.8"/>
	<rect x="287.7" y="307.1" class="st0" width="11.8" height="11.8"/>
	<rect x="287.7" y="295.3" class="st0" width="11.8" height="11.8"/>
	<rect x="287.7" y="259.8" class="st0" width="11.8" height="11.8"/>
	<rect x="287.7" y="236.1" class="st0" width="11.8" height="11.8"/>
	<rect x="287.7" y="224.3" class="st0" width="11.8" height="11.8"/>
	<rect x="287.7" y="212.4" class="st0" width="11.8" height="11.8"/>
	<rect x="287.7" y="200.6" class="st0" width="11.8" height="11.8"/>
	<rect x="287.7" y="188.8" class="st0" width="11.8" height="11.8"/>
	<rect x="287.7" y="176.9" class="st0" width="11.8" height="11.8"/>
	<rect x="287.7" y="165.1" class="st0" width="11.8" height="11.8"/>
	<rect x="275.8" y="437.3" class="st0" width="11.8" height="11.8"/>
	<rect x="275.8" y="425.4" class="st0" width="11.8" height="11.8"/>
	<rect x="275.8" y="413.6" class="st0" width="11.8" height="11.8"/>
	<rect x="275.8" y="401.8" class="st0" width="11.8" height="11.8"/>
	<rect x="275.8" y="354.4" class="st0" width="11.8" height="11.8"/>
	<rect x="275.8" y="342.6" class="st0" width="11.8" height="11.8"/>
	<rect x="275.8" y="330.8" class="st0" width="11.8" height="11.8"/>
	<rect x="275.8" y="318.9" class="st0" width="11.8" height="11.8"/>
	<rect x="275.8" y="307.1" class="st0" width="11.8" height="11.8"/>
	<rect x="275.8" y="295.3" class="st0" width="11.8" height="11.8"/>
	<rect x="275.8" y="259.8" class="st0" width="11.8" height="11.8"/>
	<rect x="275.8" y="236.1" class="st0" width="11.8" height="11.8"/>
	<rect x="275.8" y="224.3" class="st0" width="11.8" height="11.8"/>
	<rect x="275.8" y="212.4" class="st0" width="11.8" height="11.8"/>
	<rect x="275.8" y="200.6" class="st0" width="11.8" height="11.8"/>
	<rect x="275.8" y="188.8" class="st0" width="11.8" height="11.8"/>
	<rect x="275.8" y="165.1" class="st0" width="11.8" height="11.8"/>
	<rect x="264" y="437.3" class="st0" width="11.8" height="11.8"/>
	<rect x="264" y="425.4" class="st0" width="11.8" height="11.8"/>
	<rect x="264" y="413.6" class="st0" width="11.8" height="11.8"/>
	<rect x="264" y="389.9" class="st0" width="11.8" height="11.8"/>
	<rect x="264" y="366.3" class="st0" width="11.8" height="11.8"/>
	<rect x="264" y="354.4" class="st0" width="11.8" height="11.8"/>
	<rect x="264" y="342.6" class="st0" width="11.8" height="11.8"/>
	<rect x="264" y="330.8" class="st0" width="11.8" height="11.8"/>
	<rect x="264" y="318.9" class="st0" width="11.8" height="11.8"/>
	<rect x="264" y="307.1" class="st0" width="11.8" height="11.8"/>
	<rect x="264" y="295.3" class="st0" width="11.8" height="11.8"/>
	<rect x="264" y="283.4" class="st0" width="11.8" height="11.8"/>
	<rect x="264" y="259.8" class="st0" width="11.8" height="11.8"/>
	<rect x="264" y="236.1" class="st0" width="11.8" height="11.8"/>
	<rect x="264" y="224.3" class="st0" width="11.8" height="11.8"/>
	<rect x="264" y="212.4" class="st0" width="11.8" height="11.8"/>
	<rect x="264" y="200.6" class="st0" width="11.8" height="11.8"/>
	<rect x="264" y="188.8" class="st0" width="11.8" height="11.8"/>
	<rect x="264" y="165.1" class="st0" width="11.8" height="11.8"/>
	<rect x="252.2" y="437.3" class="st0" width="11.8" height="11.8"/>
	<rect x="252.2" y="425.4" class="st0" width="11.8" height="11.8"/>
	<rect x="252.2" y="413.6" class="st0" width="11.8" height="11.8"/>
	<rect x="252.2" y="378.1" class="st0" width="11.8" height="11.8"/>
	<rect x="252.2" y="366.3" class="st0" width="11.8" height="11.8"/>
	<rect x="252.2" y="354.4" class="st0" width="11.8" height="11.8"/>
	<rect x="252.2" y="342.6" class="st0" width="11.8" height="11.8"/>
	<rect x="252.2" y="330.8" class="st0" width="11.8" height="11.8"/>
	<rect x="252.2" y="318.9" class="st0" width="11.8" height="11.8"/>
	<rect x="252.2" y="307.1" class="st0" width="11.8" height="11.8"/>
	<rect x="252.2" y="295.3" class="st0" width="11.8" height="11.8"/>
	<rect x="252.2" y="283.4" class="st0" width="11.8" height="11.8"/>
	<rect x="252.2" y="259.8" class="st0" width="11.8" height="11.8"/>
	<rect x="252.2" y="236.1" class="st0" width="11.8" height="11.8"/>
	<rect x="252.2" y="224.3" class="st0" width="11.8" height="11.8"/>
	<rect x="252.2" y="212.4" class="st0" width="11.8" height="11.8"/>
	<rect x="252.2" y="200.6" class="st0" width="11.8" height="11.8"/>
	<rect x="252.2" y="188.8" class="st0" width="11.8" height="11.8"/>
	<rect x="252.2" y="165.1" class="st0" width="11.8" height="11.8"/>
	<rect x="240.3" y="437.3" class="st0" width="11.8" height="11.8"/>
	<rect x="240.3" y="425.4" class="st0" width="11.8" height="11.8"/>
	<rect x="240.3" y="413.6" class="st0" width="11.8" height="11.8"/>
	<rect x="240.3" y="389.9" class="st0" width="11.8" height="11.8"/>
	<rect x="240.3" y="366.3" class="st0" width="11.8" height="11.8"/>
	<rect x="240.3" y="354.4" class="st0" width="11.8" height="11.8"/>
	<rect x="240.3" y="342.6" class="st0" width="11.8" height="11.8"/>
	<rect x="240.3" y="330.8" class="st0" width="11.8" height="11.8"/>
	<rect x="240.3" y="318.9" class="st0" width="11.8" height="11.8"/>
	<rect x="240.3" y="307.1" class="st0" width="11.8" height="11.8"/>
	<rect x="240.3" y="295.3" class="st0" width="11.8" height="11.8"/>
	<rect x="240.3" y="283.4" class="st0" width="11.8" height="11.8"/>
	<rect x="240.3" y="271.6" class="st0" width="11.8" height="11.8"/>
	<rect x="240.3" y="259.8" class="st0" width="11.8" height="11.8"/>
	<rect x="240.3" y="236.1" class="st0" width="11.8" height="11.8"/>
	<rect x="240.3" y="224.3" class="st0" width="11.8" height="11.8"/>
	<rect x="240.3" y="212.4" class="st0" width="11.8" height="11.8"/>
	<rect x="240.3" y="200.6" class="st0" width="11.8" height="11.8"/>
	<rect x="240.3" y="188.8" class="st0" width="11.8" height="11.8"/>
	<rect x="240.3" y="165.1" class="st0" width="11.8" height="11.8"/>
	<rect x="228.5" y="437.3" class="st0" width="11.8" height="11.8"/>
	<rect x="228.5" y="425.4" class="st0" width="11.8" height="11.8"/>
	<rect x="228.5" y="413.6" class="st0" width="11.8" height="11.8"/>
	<rect x="228.5" y="401.8" class="st0" width="11.8" height="11.8"/>
	<rect x="228.5" y="354.4" class="st0" width="11.8" height="11.8"/>
	<rect x="228.5" y="342.6" class="st0" width="11.8" height="11.8"/>
	<rect x="228.5" y="330.8" class="st0" width="11.8" height="11.8"/>
	<rect x="228.5" y="318.9" class="st0" width="11.8" height="11.8"/>
	<rect x="228.5" y="307.1" class="st0" width="11.8" height="11.8"/>
	<rect x="228.5" y="295.3" class="st0" width="11.8" height="11.8"/>
	<rect x="98" y="272" class="st0" width="297" height="71"/>
	<rect x="228.5" y="271.6" class="st0" width="11.8" height="11.8"/>
	<rect x="228.5" y="259.8" class="st0" width="11.8" height="11.8"/>
	<rect x="228.5" y="236.1" class="st0" width="11.8" height="11.8"/>
	<rect x="228.5" y="224.3" class="st0" width="11.8" height="11.8"/>
	<rect x="228.5" y="212.4" class="st0" width="11.8" height="11.8"/>
	<rect x="228.5" y="200.6" class="st0" width="11.8" height="11.8"/>
	<rect x="228.5" y="188.8" class="st0" width="11.8" height="11.8"/>
	<rect x="228.5" y="165.1" class="st0" width="11.8" height="11.8"/>
	<rect x="228.5" y="105.9" class="st0" width="11.8" height="11.8"/>
	<rect x="228.5" y="94.1" class="st0" width="11.8" height="11.8"/>
	<rect x="216.6" y="437.3" class="st0" width="11.8" height="11.8"/>
	<rect x="216.6" y="425.4" class="st0" width="11.8" height="11.8"/>
	<rect x="216.6" y="413.6" class="st0" width="11.8" height="11.8"/>
	<rect x="216.6" y="401.8" class="st0" width="11.8" height="11.8"/>
	<rect x="216.6" y="389.9" class="st0" width="11.8" height="11.8"/>
	<rect x="216.6" y="366.3" class="st0" width="11.8" height="11.8"/>
	<rect x="216.6" y="354.4" class="st0" width="11.8" height="11.8"/>
	<rect x="216.6" y="342.6" class="st0" width="11.8" height="11.8"/>
	<rect x="216.6" y="330.8" class="st0" width="11.8" height="11.8"/>
	<rect x="216.6" y="318.9" class="st0" width="11.8" height="11.8"/>
	<rect x="216.6" y="307.1" class="st0" width="11.8" height="11.8"/>
	<rect x="216.6" y="295.3" class="st0" width="11.8" height="11.8"/>
	<rect x="216.6" y="283.4" class="st0" width="11.8" height="11.8"/>
	<rect x="216.6" y="271.6" class="st0" width="11.8" height="11.8"/>
	<rect x="216.6" y="259.8" class="st0" width="11.8" height="11.8"/>
	<rect x="216.6" y="236.1" class="st0" width="11.8" height="11.8"/>
	<rect x="216.6" y="224.3" class="st0" width="11.8" height="11.8"/>
	<rect x="216.6" y="212.4" class="st0" width="11.8" height="11.8"/>
	<rect x="216.6" y="200.6" class="st0" width="11.8" height="11.8"/>
	<rect x="216.6" y="188.8" class="st0" width="11.8" height="11.8"/>
	<rect x="216.6" y="165.1" class="st0" width="11.8" height="11.8"/>
	<rect x="216.6" y="117.8" class="st0" width="11.8" height="11.8"/>
	<rect x="216.6" y="82.3" class="st0" width="11.8" height="11.8"/>
	<rect x="216.6" y="70.4" class="st0" width="11.8" height="11.8"/>
	<rect x="204.8" y="437.3" class="st0" width="11.8" height="11.8"/>
	<rect x="204.8" y="425.4" class="st0" width="11.8" height="11.8"/>
	<rect x="204.8" y="413.6" class="st0" width="11.8" height="11.8"/>
	<rect x="204.8" y="401.8" class="st0" width="11.8" height="11.8"/>
	<rect x="204.8" y="378.1" class="st0" width="11.8" height="11.8"/>
	<rect x="204.8" y="366.3" class="st0" width="11.8" height="11.8"/>
	<rect x="204.8" y="354.4" class="st0" width="11.8" height="11.8"/>
	<rect x="204.8" y="342.6" class="st0" width="11.8" height="11.8"/>
	<rect x="204.8" y="330.8" class="st0" width="11.8" height="11.8"/>
	<rect x="204.8" y="318.9" class="st0" width="11.8" height="11.8"/>
	<rect x="204.8" y="307.1" class="st0" width="11.8" height="11.8"/>
	<rect x="204.8" y="295.3" class="st0" width="11.8" height="11.8"/>
	<rect x="204.8" y="283.4" class="st0" width="11.8" height="11.8"/>
	<rect x="204.8" y="271.6" class="st0" width="11.8" height="11.8"/>
	<rect x="204.8" y="259.8" class="st0" width="11.8" height="11.8"/>
	<rect x="204.8" y="236.1" class="st0" width="11.8" height="11.8"/>
	<rect x="204.8" y="224.3" class="st0" width="11.8" height="11.8"/>
	<rect x="204.8" y="200.6" class="st0" width="11.8" height="11.8"/>
	<rect x="204.8" y="188.8" class="st0" width="11.8" height="11.8"/>
	<rect x="204.8" y="165.1" class="st0" width="11.8" height="11.8"/>
	<rect x="193" y="437.3" class="st0" width="11.8" height="11.8"/>
	<rect x="193" y="413.6" class="st0" width="11.8" height="11.8"/>
	<rect x="193" y="401.8" class="st0" width="11.8" height="11.8"/>
	<rect x="193" y="389.9" class="st0" width="11.8" height="11.8"/>
	<rect x="193" y="366.3" class="st0" width="11.8" height="11.8"/>
	<rect x="193" y="354.4" class="st0" width="11.8" height="11.8"/>
	<rect x="193" y="342.6" class="st0" width="11.8" height="11.8"/>
	<rect x="193" y="330.8" class="st0" width="11.8" height="11.8"/>
	<rect x="193" y="318.9" class="st0" width="11.8" height="11.8"/>
	<rect x="193" y="307.1" class="st0" width="11.8" height="11.8"/>
	<rect x="193" y="295.3" class="st0" width="11.8" height="11.8"/>
	<rect x="193" y="283.4" class="st0" width="11.8" height="11.8"/>
	<rect x="193" y="271.6" class="st0" width="11.8" height="11.8"/>
	<rect x="193" y="259.8" class="st0" width="11.8" height="11.8"/>
	<rect x="193" y="236.1" class="st0" width="11.8" height="11.8"/>
	<rect x="193" y="200.6" class="st0" width="11.8" height="11.8"/>
	<rect x="193" y="188.8" class="st0" width="11.8" height="11.8"/>
	<rect x="193" y="176.9" class="st0" width="11.8" height="11.8"/>
	<rect x="193" y="165.1" class="st0" width="11.8" height="11.8"/>
	<rect x="181.1" y="437.3" class="st0" width="11.8" height="11.8"/>
	<rect x="181.1" y="413.6" class="st0" width="11.8" height="11.8"/>
	<rect x="181.1" y="401.8" class="st0" width="11.8" height="11.8"/>
	<rect x="181.1" y="354.4" class="st0" width="11.8" height="11.8"/>
	<rect x="181.1" y="342.6" class="st0" width="11.8" height="11.8"/>
	<rect x="181.1" y="330.8" class="st0" width="11.8" height="11.8"/>
	<rect x="181.1" y="318.9" class="st0" width="11.8" height="11.8"/>
	<rect x="181.1" y="307.1" class="st0" width="11.8" height="11.8"/>
	<rect x="181.1" y="295.3" class="st0" width="11.8" height="11.8"/>
	<rect x="181.1" y="283.4" class="st0" width="11.8" height="11.8"/>
	<rect x="181.1" y="271.6" class="st0" width="11.8" height="11.8"/>
	<rect x="181.1" y="259.8" class="st0" width="11.8" height="11.8"/>
	<rect x="181.1" y="236.1" class="st0" width="11.8" height="11.8"/>
	<rect x="181.1" y="188.8" class="st0" width="11.8" height="11.8"/>
	<rect x="181.1" y="176.9" class="st0" width="11.8" height="11.8"/>
	<rect x="169.3" y="437.3" class="st0" width="11.8" height="11.8"/>
	<rect x="169.3" y="413.6" class="st0" width="11.8" height="11.8"/>
	<rect x="169.3" y="401.8" class="st0" width="11.8" height="11.8"/>
	<rect x="169.3" y="389.9" class="st0" width="11.8" height="11.8"/>
	<rect x="169.3" y="366.3" class="st0" width="11.8" height="11.8"/>
	<rect x="169.3" y="354.4" class="st0" width="11.8" height="11.8"/>
	<rect x="169.3" y="342.6" class="st0" width="11.8" height="11.8"/>
	<rect x="169.3" y="330.8" class="st0" width="11.8" height="11.8"/>
	<rect x="169.3" y="318.9" class="st0" width="11.8" height="11.8"/>
	<rect x="169.3" y="307.1" class="st0" width="11.8" height="11.8"/>
	<rect x="169.3" y="295.3" class="st0" width="11.8" height="11.8"/>
	<rect x="169.3" y="283.4" class="st0" width="11.8" height="11.8"/>
	<rect x="169.3" y="271.6" class="st0" width="11.8" height="11.8"/>
	<rect x="169.3" y="259.8" class="st0" width="11.8" height="11.8"/>
	<rect x="169.3" y="236.1" class="st0" width="11.8" height="11.8"/>
	<rect x="157.5" y="437.3" class="st0" width="11.8" height="11.8"/>
	<rect x="157.5" y="413.6" class="st0" width="11.8" height="11.8"/>
	<rect x="157.5" y="401.8" class="st0" width="11.8" height="11.8"/>
	<rect x="157.5" y="378.1" class="st0" width="11.8" height="11.8"/>
	<rect x="157.5" y="366.3" class="st0" width="11.8" height="11.8"/>
	<rect x="157.5" y="354.4" class="st0" width="11.8" height="11.8"/>
	<rect x="157.5" y="342.6" class="st0" width="11.8" height="11.8"/>
	<rect x="157.5" y="330.8" class="st0" width="11.8" height="11.8"/>
	<rect x="157.5" y="318.9" class="st0" width="11.8" height="11.8"/>
	<rect x="157.5" y="307.1" class="st0" width="11.8" height="11.8"/>
	<rect x="157.5" y="295.3" class="st0" width="11.8" height="11.8"/>
	<rect x="157.5" y="283.4" class="st0" width="11.8" height="11.8"/>
	<rect x="157.5" y="271.6" class="st0" width="11.8" height="11.8"/>
	<rect x="157.5" y="259.8" class="st0" width="11.8" height="11.8"/>
	<rect x="157.5" y="236.1" class="st0" width="11.8" height="11.8"/>
	<rect x="145.6" y="437.3" class="st0" width="11.8" height="11.8"/>
	<rect x="145.6" y="425.4" class="st0" width="11.8" height="11.8"/>
	<rect x="145.6" y="413.6" class="st0" width="11.8" height="11.8"/>
	<rect x="145.6" y="401.8" class="st0" width="11.8" height="11.8"/>
	<rect x="145.6" y="389.9" class="st0" width="11.8" height="11.8"/>
	<rect x="145.6" y="366.3" class="st0" width="11.8" height="11.8"/>
	<rect x="145.6" y="354.4" class="st0" width="11.8" height="11.8"/>
	<rect x="145.6" y="342.6" class="st0" width="11.8" height="11.8"/>
	<rect x="145.6" y="330.8" class="st0" width="11.8" height="11.8"/>
	<rect x="145.6" y="318.9" class="st0" width="11.8" height="11.8"/>
	<rect x="145.6" y="307.1" class="st0" width="11.8" height="11.8"/>
	<rect x="145.6" y="295.3" class="st0" width="11.8" height="11.8"/>
	<rect x="145.6" y="283.4" class="st0" width="11.8" height="11.8"/>
	<rect x="145.6" y="271.6" class="st0" width="11.8" height="11.8"/>
	<rect x="145.6" y="259.8" class="st0" width="11.8" height="11.8"/>
	<rect x="145.6" y="236.1" class="st0" width="11.8" height="11.8"/>
	<rect x="133.8" y="437.3" class="st0" width="11.8" height="11.8"/>
	<rect x="133.8" y="425.4" class="st0" width="11.8" height="11.8"/>
	<rect x="133.8" y="413.6" class="st0" width="11.8" height="11.8"/>
	<rect x="133.8" y="401.8" class="st0" width="11.8" height="11.8"/>
	<rect x="133.8" y="354.4" class="st0" width="11.8" height="11.8"/>
	<rect x="133.8" y="342.6" class="st0" width="11.8" height="11.8"/>
	<rect x="133.8" y="330.8" class="st0" width="11.8" height="11.8"/>
	<rect x="133.8" y="318.9" class="st0" width="11.8" height="11.8"/>
	<rect x="133.8" y="307.1" class="st0" width="11.8" height="11.8"/>
	<rect x="133.8" y="295.3" class="st0" width="11.8" height="11.8"/>
	<rect x="133.8" y="283.4" class="st0" width="11.8" height="11.8"/>
	<rect x="133.8" y="259.8" class="st0" width="11.8" height="11.8"/>
	<rect x="133.8" y="236.1" class="st0" width="11.8" height="11.8"/>
	<rect x="133.8" y="117.8" class="st0" width="11.8" height="11.8"/>
	<rect x="133.8" y="105.9" class="st0" width="11.8" height="11.8"/>
	<rect x="133.8" y="94.1" class="st0" width="11.8" height="11.8"/>
	<rect x="122" y="437.3" class="st0" width="11.8" height="11.8"/>
	<rect x="122" y="413.6" class="st0" width="11.8" height="11.8"/>
	<rect x="122" y="401.8" class="st0" width="11.8" height="11.8"/>
	<rect x="122" y="389.9" class="st0" width="11.8" height="11.8"/>
	<rect x="122" y="366.3" class="st0" width="11.8" height="11.8"/>
	<rect x="122" y="354.4" class="st0" width="11.8" height="11.8"/>
	<rect x="122" y="342.6" class="st0" width="11.8" height="11.8"/>
	<rect x="122" y="330.8" class="st0" width="11.8" height="11.8"/>
	<rect x="122" y="318.9" class="st0" width="11.8" height="11.8"/>
	<rect x="122" y="307.1" class="st0" width="11.8" height="11.8"/>
	<rect x="122" y="295.3" class="st0" width="11.8" height="11.8"/>
	<rect x="122" y="259.8" class="st0" width="11.8" height="11.8"/>
	<rect x="122" y="236.1" class="st0" width="11.8" height="11.8"/>
	<rect x="122" y="200.6" class="st0" width="11.8" height="11.8"/>
	<rect x="122" y="129.6" class="st0" width="11.8" height="11.8"/>
	<rect x="122" y="82.3" class="st0" width="11.8" height="11.8"/>
	<rect x="110.1" y="437.3" class="st0" width="11.8" height="11.8"/>
	<rect x="110.1" y="413.6" class="st0" width="11.8" height="11.8"/>
	<rect x="110.1" y="401.8" class="st0" width="11.8" height="11.8"/>
	<rect x="110.1" y="378.1" class="st0" width="11.8" height="11.8"/>
	<rect x="110.1" y="366.3" class="st0" width="11.8" height="11.8"/>
	<rect x="110.1" y="354.4" class="st0" width="11.8" height="11.8"/>
	<rect x="110.1" y="342.6" class="st0" width="11.8" height="11.8"/>
	<rect x="110.1" y="330.8" class="st0" width="11.8" height="11.8"/>
	<rect x="110.1" y="318.9" class="st0" width="11.8" height="11.8"/>
	<rect x="110.1" y="259.8" class="st0" width="11.8" height="11.8"/>
	<rect x="110.1" y="236.1" class="st0" width="11.8" height="11.8"/>
	<rect x="110.1" y="188.8" class="st0" width="11.8" height="11.8"/>
	<rect x="110.1" y="141.4" class="st0" width="11.8" height="11.8"/>
	<rect x="110.1" y="70.4" class="st0" width="11.8" height="11.8"/>
	<rect x="98.3" y="437.3" class="st0" width="11.8" height="11.8"/>
	<rect x="98.3" y="413.6" class="st0" width="11.8" height="11.8"/>
	<rect x="98.3" y="401.8" class="st0" width="11.8" height="11.8"/>
	<rect x="98.3" y="389.9" class="st0" width="11.8" height="11.8"/>
	<rect x="98.3" y="354.4" class="st0" width="11.8" height="11.8"/>
	<rect x="98.3" y="342.6" class="st0" width="11.8" height="11.8"/>
	<rect x="98.3" y="330.8" class="st0" width="11.8" height="11.8"/>
	<rect x="98.3" y="259.8" class="st0" width="11.8" height="11.8"/>
	<rect x="98.3" y="236.1" class="st0" width="11.8" height="11.8"/>
	<rect x="98.3" y="176.9" class="st0" width="11.8" height="11.8"/>
	<rect x="98.3" y="165.1" class="st0" width="11.8" height="11.8"/>
	<rect x="98.3" y="153.3" class="st0" width="11.8" height="11.8"/>
	<rect x="98.3" y="58.6" class="st0" width="11.8" height="11.8"/>
	<rect x="98.3" y="46.8" class="st0" width="11.8" height="11.8"/>
	<rect x="98.3" y="34.9" class="st0" width="11.8" height="11.8"/>
	<rect x="86.5" y="437.3" class="st0" width="11.8" height="11.8"/>
	<rect x="86.5" y="413.6" class="st0" width="11.8" height="11.8"/>
	<rect x="86.5" y="401.8" class="st0" width="11.8" height="11.8"/>
	<rect x="86.5" y="378.1" class="st0" width="11.8" height="11.8"/>
	<rect x="86.5" y="366.3" class="st0" width="11.8" height="11.8"/>
	<rect x="86.5" y="354.4" class="st0" width="11.8" height="11.8"/>
	<rect x="86.5" y="342.6" class="st0" width="11.8" height="11.8"/>
	<rect x="86.5" y="330.8" class="st0" width="11.8" height="11.8"/>
	<rect x="86.5" y="318.9" class="st0" width="11.8" height="11.8"/>
	<rect x="86.5" y="307.1" class="st0" width="11.8" height="11.8"/>
	<rect x="86.5" y="295.3" class="st0" width="11.8" height="11.8"/>
	<rect x="86.5" y="283.4" class="st0" width="11.8" height="11.8"/>
	<rect x="86.5" y="271.6" class="st0" width="11.8" height="11.8"/>
	<rect x="86.5" y="259.8" class="st0" width="11.8" height="11.8"/>
	<rect x="86.5" y="236.1" class="st0" width="11.8" height="11.8"/>
	<rect x="74.6" y="437.3" class="st0" width="11.8" height="11.8"/>
	<rect x="74.6" y="425.4" class="st0" width="11.8" height="11.8"/>
	<rect x="74.6" y="413.6" class="st0" width="11.8" height="11.8"/>
	<rect x="74.6" y="401.8" class="st0" width="11.8" height="11.8"/>
	<rect x="74.6" y="389.9" class="st0" width="11.8" height="11.8"/>
	<rect x="74.6" y="378.1" class="st0" width="11.8" height="11.8"/>
	<rect x="74.6" y="259.8" class="st0" width="11.8" height="11.8"/>
	<rect x="74.6" y="247.9" class="st0" width="11.8" height="11.8"/>
	<rect x="74.6" y="236.1" class="st0" width="11.8" height="11.8"/>
	<rect x="62.8" y="437.3" class="st0" width="11.8" height="11.8"/>
	<rect x="62.8" y="425.4" class="st0" width="11.8" height="11.8"/>
	<rect x="62.8" y="413.6" class="st0" width="11.8" height="11.8"/>
	<rect x="62.8" y="401.8" class="st0" width="11.8" height="11.8"/>
	<rect x="62.8" y="366.3" class="st0" width="11.8" height="11.8"/>
	<rect x="62.8" y="236.1" class="st0" width="11.8" height="11.8"/>
	<rect x="51" y="437.3" class="st0" width="11.8" height="11.8"/>
	<rect x="51" y="425.4" class="st0" width="11.8" height="11.8"/>
	<rect x="51" y="413.6" class="st0" width="11.8" height="11.8"/>
	<rect x="39.1" y="437.3" class="st0" width="11.8" height="11.8"/>
</g>
</svg>
