<?xml version="1.0" encoding="utf-8"?>
<!-- Generator: Adobe Illustrator 22.1.0, SVG Export Plug-In . SVG Version: 6.00 Build 0)  -->
<svg version="1.1" id="Layer_1" xmlns="http://www.w3.org/2000/svg" xmlns:xlink="http://www.w3.org/1999/xlink" x="0px" y="0px"
	 viewBox="0 0 500 500" style="enable-background:new 0 0 500 500;" xml:space="preserve">
<style type="text/css">
	.st0{fill:#73896E;}
</style>
<g>
	<rect x="233.6" y="386.3" class="st0" width="12" height="12"/>
	<rect x="221.7" y="374.3" class="st0" width="12" height="12"/>
	<rect x="233.6" y="362.4" class="st0" width="12" height="12"/>
	<rect x="245.6" y="374.3" class="st0" width="12" height="12"/>
	<rect x="245.6" y="386.3" class="st0" width="12" height="12"/>
	<rect x="233.6" y="398.2" class="st0" width="12" height="12"/>
	<rect x="221.7" y="398.2" class="st0" width="12" height="12"/>
	<rect x="209.7" y="386.3" class="st0" width="12" height="12"/>
	<rect x="209.7" y="374.3" class="st0" width="12" height="12"/>
	<rect x="221.7" y="362.4" class="st0" width="12" height="12"/>
	<rect x="436.9" y="99.3" class="st0" width="12" height="12"/>
	<rect x="425" y="111.2" class="st0" width="12" height="12"/>
	<rect x="413" y="111.2" class="st0" width="12" height="12"/>
	<rect x="425" y="123.2" class="st0" width="12" height="12"/>
	<rect x="436.9" y="123.2" class="st0" width="12" height="12"/>
	<rect x="448.9" y="111.2" class="st0" width="12" height="12"/>
	<rect x="448.9" y="99.3" class="st0" width="12" height="12"/>
	<rect x="436.9" y="87.3" class="st0" width="12" height="12"/>
	<rect x="460.8" y="302.6" class="st0" width="12" height="12"/>
	<rect x="448.9" y="314.5" class="st0" width="12" height="12"/>
	<rect x="448.9" y="302.6" class="st0" width="12" height="12"/>
	<rect x="436.9" y="374.3" class="st0" width="12" height="12"/>
	<rect x="436.9" y="326.5" class="st0" width="12" height="12"/>
	<rect x="436.9" y="314.5" class="st0" width="12" height="12"/>
	<rect x="436.9" y="302.6" class="st0" width="12" height="12"/>
	<rect x="436.9" y="290.6" class="st0" width="12" height="12"/>
	<rect x="425" y="458" class="st0" width="12" height="12"/>
	<rect x="425" y="446.1" class="st0" width="12" height="12"/>
	<rect x="425" y="434.1" class="st0" width="12" height="12"/>
	<rect x="425" y="422.2" class="st0" width="12" height="12"/>
	<rect x="425" y="410.2" class="st0" width="12" height="12"/>
	<rect x="425" y="398.2" class="st0" width="12" height="12"/>
	<rect x="425" y="386.3" class="st0" width="12" height="12"/>
	<rect x="425" y="374.3" class="st0" width="12" height="12"/>
	<rect x="425" y="290.6" class="st0" width="12" height="12"/>
	<rect x="425" y="278.7" class="st0" width="12" height="12"/>
	<rect x="425" y="87.3" class="st0" width="12" height="12"/>
	<rect x="413" y="434.1" class="st0" width="12" height="12"/>
	<rect x="413" y="422.2" class="st0" width="12" height="12"/>
	<rect x="413" y="410.2" class="st0" width="12" height="12"/>
	<rect x="413" y="398.2" class="st0" width="12" height="12"/>
	<rect x="413" y="386.3" class="st0" width="12" height="12"/>
	<rect x="413" y="374.3" class="st0" width="12" height="12"/>
	<rect x="413" y="278.7" class="st0" width="12" height="12"/>
	<rect x="413" y="266.7" class="st0" width="12" height="12"/>
	<rect x="413" y="99.3" class="st0" width="12" height="12"/>
	<rect x="401.1" y="374.3" class="st0" width="12" height="12"/>
	<rect x="401.1" y="266.7" class="st0" width="12" height="12"/>
	<rect x="389.1" y="254.7" class="st0" width="12" height="12"/>
	<rect x="353.2" y="362.4" class="st0" width="12" height="12"/>
	<rect x="341.3" y="362.4" class="st0" width="12" height="12"/>
	<rect x="341.3" y="350.4" class="st0" width="12" height="12"/>
	<rect x="341.3" y="338.5" class="st0" width="12" height="12"/>
	<rect x="341.3" y="326.5" class="st0" width="12" height="12"/>
	<rect x="341.3" y="314.5" class="st0" width="12" height="12"/>
	<rect x="341.3" y="302.6" class="st0" width="12" height="12"/>
	<rect x="341.3" y="159.1" class="st0" width="12" height="12"/>
	<rect x="341.3" y="147.1" class="st0" width="12" height="12"/>
	<rect x="329.3" y="362.4" class="st0" width="12" height="12"/>
	<rect x="329.3" y="350.4" class="st0" width="12" height="12"/>
	<rect x="329.3" y="338.5" class="st0" width="12" height="12"/>
	<rect x="329.3" y="326.5" class="st0" width="12" height="12"/>
	<rect x="329.3" y="314.5" class="st0" width="12" height="12"/>
	<rect x="329.3" y="302.6" class="st0" width="12" height="12"/>
	<rect x="329.3" y="290.6" class="st0" width="12" height="12"/>
	<rect x="329.3" y="183" class="st0" width="12" height="12"/>
	<rect x="329.3" y="171" class="st0" width="12" height="12"/>
	<rect x="329.3" y="159.1" class="st0" width="12" height="12"/>
	<rect x="329.3" y="147.1" class="st0" width="12" height="12"/>
	<rect x="329.3" y="135.1" class="st0" width="12" height="12"/>
	<rect x="317.3" y="362.4" class="st0" width="12" height="12"/>
	<rect x="317.3" y="194.9" class="st0" width="12" height="12"/>
	<rect x="317.3" y="183" class="st0" width="12" height="12"/>
	<rect x="317.3" y="171" class="st0" width="12" height="12"/>
	<rect x="317.3" y="159.1" class="st0" width="12" height="12"/>
	<rect x="317.3" y="147.1" class="st0" width="12" height="12"/>
	<rect x="317.3" y="135.1" class="st0" width="12" height="12"/>
	<rect x="317.3" y="123.2" class="st0" width="12" height="12"/>
	<rect x="305.4" y="194.9" class="st0" width="12" height="12"/>
	<rect x="305.4" y="183" class="st0" width="12" height="12"/>
	<rect x="305.4" y="171" class="st0" width="12" height="12"/>
	<rect x="305.4" y="159.1" class="st0" width="12" height="12"/>
	<rect x="305.4" y="147.1" class="st0" width="12" height="12"/>
	<rect x="305.4" y="135.1" class="st0" width="12" height="12"/>
	<rect x="305.4" y="123.2" class="st0" width="12" height="12"/>
	<rect x="293.4" y="194.9" class="st0" width="12" height="12"/>
	<rect x="293.4" y="183" class="st0" width="12" height="12"/>
	<rect x="293.4" y="171" class="st0" width="12" height="12"/>
	<rect x="293.4" y="159.1" class="st0" width="12" height="12"/>
	<rect x="293.4" y="147.1" class="st0" width="12" height="12"/>
	<rect x="293.4" y="135.1" class="st0" width="12" height="12"/>
	<rect x="293.4" y="123.2" class="st0" width="12" height="12"/>
	<rect x="281.5" y="194.9" class="st0" width="12" height="12"/>
	<rect x="281.5" y="183" class="st0" width="12" height="12"/>
	<rect x="281.5" y="171" class="st0" width="12" height="12"/>
	<rect x="281.5" y="159.1" class="st0" width="12" height="12"/>
	<rect x="281.5" y="147.1" class="st0" width="12" height="12"/>
	<rect x="281.5" y="135.1" class="st0" width="12" height="12"/>
	<rect x="281.5" y="123.2" class="st0" width="12" height="12"/>
	<rect x="281.5" y="99.3" class="st0" width="12" height="12"/>
	<rect x="281.5" y="87.3" class="st0" width="12" height="12"/>
	<rect x="281.5" y="75.3" class="st0" width="12" height="12"/>
	<rect x="269.5" y="171" class="st0" width="12" height="12"/>
	<rect x="269.5" y="159.1" class="st0" width="12" height="12"/>
	<rect x="269.5" y="147.1" class="st0" width="12" height="12"/>
	<rect x="269.5" y="135.1" class="st0" width="12" height="12"/>
	<rect x="269.5" y="123.2" class="st0" width="12" height="12"/>
	<rect x="269.5" y="99.3" class="st0" width="12" height="12"/>
	<rect x="269.5" y="87.3" class="st0" width="12" height="12"/>
	<rect x="269.5" y="75.3" class="st0" width="12" height="12"/>
	<rect x="269.5" y="63.4" class="st0" width="12" height="12"/>
	<rect x="257.5" y="99.3" class="st0" width="12" height="12"/>
	<rect x="257.5" y="87.3" class="st0" width="12" height="12"/>
	<rect x="257.5" y="75.3" class="st0" width="12" height="12"/>
	<rect x="257.5" y="63.4" class="st0" width="12" height="12"/>
	<rect x="245.6" y="147.1" class="st0" width="12" height="12"/>
	<rect x="245.6" y="135.1" class="st0" width="12" height="12"/>
	<rect x="245.6" y="75.3" class="st0" width="12" height="12"/>
	<rect x="245.6" y="63.4" class="st0" width="12" height="12"/>
	<rect x="233.6" y="159.1" class="st0" width="12" height="12"/>
	<rect x="233.6" y="147.1" class="st0" width="12" height="12"/>
	<rect x="233.6" y="135.1" class="st0" width="12" height="12"/>
	<rect x="233.6" y="123.2" class="st0" width="12" height="12"/>
	<rect x="233.6" y="99.3" class="st0" width="12" height="12"/>
	<rect x="233.6" y="87.3" class="st0" width="12" height="12"/>
	<rect x="221.7" y="171" class="st0" width="12" height="12"/>
	<rect x="221.7" y="159.1" class="st0" width="12" height="12"/>
	<rect x="221.7" y="147.1" class="st0" width="12" height="12"/>
	<rect x="221.7" y="135.1" class="st0" width="12" height="12"/>
	<rect x="221.7" y="123.2" class="st0" width="12" height="12"/>
	<rect x="221.7" y="99.3" class="st0" width="12" height="12"/>
	<rect x="221.7" y="87.3" class="st0" width="12" height="12"/>
	<rect x="221.7" y="75.3" class="st0" width="12" height="12"/>
	<rect x="221.7" y="63.4" class="st0" width="12" height="12"/>
	<rect x="209.7" y="171" class="st0" width="12" height="12"/>
	<rect x="209.7" y="159.1" class="st0" width="12" height="12"/>
	<rect x="209.7" y="147.1" class="st0" width="12" height="12"/>
	<rect x="209.7" y="135.1" class="st0" width="12" height="12"/>
	<rect x="209.7" y="123.2" class="st0" width="12" height="12"/>
	<rect x="209.7" y="99.3" class="st0" width="12" height="12"/>
	<rect x="209.7" y="87.3" class="st0" width="12" height="12"/>
	<rect x="209.7" y="75.3" class="st0" width="12" height="12"/>
	<rect x="209.7" y="63.4" class="st0" width="12" height="12"/>
	<rect x="209.7" y="51.4" class="st0" width="12" height="12"/>
	<rect x="197.8" y="206.9" class="st0" width="12" height="12"/>
	<rect x="197.8" y="194.9" class="st0" width="12" height="12"/>
	<rect x="197.8" y="171" class="st0" width="12" height="12"/>
	<rect x="197.8" y="159.1" class="st0" width="12" height="12"/>
	<rect x="197.8" y="147.1" class="st0" width="12" height="12"/>
	<rect x="197.8" y="135.1" class="st0" width="12" height="12"/>
	<rect x="197.8" y="87.3" class="st0" width="12" height="12"/>
	<rect x="197.8" y="75.3" class="st0" width="12" height="12"/>
	<rect x="197.8" y="63.4" class="st0" width="12" height="12"/>
	<rect x="197.8" y="51.4" class="st0" width="12" height="12"/>
	<rect x="185.8" y="218.9" class="st0" width="12" height="12"/>
	<rect x="185.8" y="206.9" class="st0" width="12" height="12"/>
	<rect x="185.8" y="194.9" class="st0" width="12" height="12"/>
	<rect x="185.8" y="159.1" class="st0" width="12" height="12"/>
	<rect x="185.8" y="75.3" class="st0" width="12" height="12"/>
	<rect x="185.8" y="63.4" class="st0" width="12" height="12"/>
	<rect x="185.8" y="51.4" class="st0" width="12" height="12"/>
	<rect x="185.8" y="39.5" class="st0" width="12" height="12"/>
	<rect x="173.8" y="230.8" class="st0" width="12" height="12"/>
	<rect x="173.8" y="218.9" class="st0" width="12" height="12"/>
	<rect x="173.8" y="206.9" class="st0" width="12" height="12"/>
	<rect x="173.8" y="194.9" class="st0" width="12" height="12"/>
	<rect x="173.8" y="183" class="st0" width="12" height="12"/>
	<rect x="173.8" y="75.3" class="st0" width="12" height="12"/>
	<rect x="173.8" y="63.4" class="st0" width="12" height="12"/>
	<rect x="173.8" y="51.4" class="st0" width="12" height="12"/>
	<rect x="173.8" y="39.5" class="st0" width="12" height="12"/>
	<rect x="161.9" y="254.7" class="st0" width="12" height="12"/>
	<rect x="161.9" y="242.8" class="st0" width="12" height="12"/>
	<rect x="161.9" y="230.8" class="st0" width="12" height="12"/>
	<rect x="161.9" y="218.9" class="st0" width="12" height="12"/>
	<rect x="161.9" y="206.9" class="st0" width="12" height="12"/>
	<rect x="161.9" y="194.9" class="st0" width="12" height="12"/>
	<rect x="161.9" y="63.4" class="st0" width="12" height="12"/>
	<rect x="161.9" y="51.4" class="st0" width="12" height="12"/>
	<rect x="161.9" y="39.5" class="st0" width="12" height="12"/>
	<rect x="149.9" y="230.8" class="st0" width="12" height="12"/>
	<rect x="149.9" y="218.9" class="st0" width="12" height="12"/>
	<rect x="149.9" y="206.9" class="st0" width="12" height="12"/>
	<rect x="149.9" y="63.4" class="st0" width="12" height="12"/>
	<rect x="149.9" y="51.4" class="st0" width="12" height="12"/>
	<rect x="149.9" y="39.5" class="st0" width="12" height="12"/>
	<rect x="138" y="290.6" class="st0" width="12" height="12"/>
	<rect x="138" y="266.7" class="st0" width="12" height="12"/>
	<rect x="138" y="254.7" class="st0" width="12" height="12"/>
	<rect x="138" y="63.4" class="st0" width="12" height="12"/>
	<rect x="138" y="51.4" class="st0" width="12" height="12"/>
	<rect x="138" y="39.5" class="st0" width="12" height="12"/>
	<rect x="126" y="314.5" class="st0" width="12" height="12"/>
	<rect x="126" y="302.6" class="st0" width="12" height="12"/>
	<rect x="126" y="290.6" class="st0" width="12" height="12"/>
	<rect x="126" y="266.7" class="st0" width="12" height="12"/>
	<rect x="126" y="254.7" class="st0" width="12" height="12"/>
	<rect x="126" y="242.8" class="st0" width="12" height="12"/>
	<rect x="126" y="63.4" class="st0" width="12" height="12"/>
	<rect x="126" y="51.4" class="st0" width="12" height="12"/>
	<rect x="114" y="350.4" class="st0" width="12" height="12"/>
	<rect x="114" y="338.5" class="st0" width="12" height="12"/>
	<rect x="114" y="326.5" class="st0" width="12" height="12"/>
	<rect x="114" y="314.5" class="st0" width="12" height="12"/>
	<rect x="114" y="302.6" class="st0" width="12" height="12"/>
	<rect x="114" y="290.6" class="st0" width="12" height="12"/>
	<rect x="114" y="266.7" class="st0" width="12" height="12"/>
	<rect x="114" y="254.7" class="st0" width="12" height="12"/>
	<rect x="114" y="63.4" class="st0" width="12" height="12"/>
	<rect x="114" y="51.4" class="st0" width="12" height="12"/>
	<rect x="102.1" y="374.3" class="st0" width="12" height="12"/>
	<rect x="102.1" y="362.4" class="st0" width="12" height="12"/>
	<rect x="102.1" y="350.4" class="st0" width="12" height="12"/>
	<rect x="102.1" y="338.5" class="st0" width="12" height="12"/>
	<rect x="102.1" y="326.5" class="st0" width="12" height="12"/>
	<rect x="102.1" y="314.5" class="st0" width="12" height="12"/>
	<rect x="102.1" y="302.6" class="st0" width="12" height="12"/>
	<rect x="102.1" y="290.6" class="st0" width="12" height="12"/>
	<rect x="102.1" y="266.7" class="st0" width="12" height="12"/>
	<rect x="102.1" y="63.4" class="st0" width="12" height="12"/>
	<rect x="102.1" y="51.4" class="st0" width="12" height="12"/>
	<rect x="90.1" y="386.3" class="st0" width="12" height="12"/>
	<rect x="90.1" y="374.3" class="st0" width="12" height="12"/>
	<rect x="90.1" y="362.4" class="st0" width="12" height="12"/>
	<rect x="90.1" y="350.4" class="st0" width="12" height="12"/>
	<rect x="90.1" y="338.5" class="st0" width="12" height="12"/>
	<rect x="90.1" y="326.5" class="st0" width="12" height="12"/>
	<rect x="90.1" y="314.5" class="st0" width="12" height="12"/>
	<rect x="90.1" y="302.6" class="st0" width="12" height="12"/>
	<rect x="78.2" y="386.3" class="st0" width="12" height="12"/>
	<rect x="78.2" y="374.3" class="st0" width="12" height="12"/>
	<rect x="78.2" y="362.4" class="st0" width="12" height="12"/>
	<rect x="78.2" y="350.4" class="st0" width="12" height="12"/>
	<rect x="78.2" y="338.5" class="st0" width="12" height="12"/>
	<rect x="78.2" y="326.5" class="st0" width="12" height="12"/>
	<rect x="78.2" y="314.5" class="st0" width="12" height="12"/>
	<rect x="78.2" y="302.6" class="st0" width="12" height="12"/>
	<rect x="66.2" y="386.3" class="st0" width="12" height="12"/>
	<rect x="66.2" y="374.3" class="st0" width="12" height="12"/>
	<rect x="66.2" y="362.4" class="st0" width="12" height="12"/>
	<rect x="66.2" y="350.4" class="st0" width="12" height="12"/>
	<rect x="66.2" y="338.5" class="st0" width="12" height="12"/>
	<rect x="66.2" y="326.5" class="st0" width="12" height="12"/>
	<rect x="66.2" y="314.5" class="st0" width="12" height="12"/>
	<rect x="54.2" y="386.3" class="st0" width="12" height="12"/>
	<rect x="54.2" y="374.3" class="st0" width="12" height="12"/>
	<rect x="54.2" y="362.4" class="st0" width="12" height="12"/>
	<rect x="54.2" y="350.4" class="st0" width="12" height="12"/>
	<rect x="54.2" y="338.5" class="st0" width="12" height="12"/>
	<rect x="54.2" y="326.5" class="st0" width="12" height="12"/>
	<rect x="42.3" y="374.3" class="st0" width="12" height="12"/>
	<rect x="42.3" y="362.4" class="st0" width="12" height="12"/>
	<rect x="42.3" y="350.4" class="st0" width="12" height="12"/>
	<rect x="42.3" y="338.5" class="st0" width="12" height="12"/>
	<rect x="30.3" y="362.4" class="st0" width="12" height="12"/>
	<rect x="30.3" y="350.4" class="st0" width="12" height="12"/>
</g>
</svg>
