<?xml version="1.0" encoding="utf-8"?>
<!-- Generator: Adobe Illustrator 22.1.0, SVG Export Plug-In . SVG Version: 6.00 Build 0)  -->
<svg version="1.1" id="Layer_1" xmlns="http://www.w3.org/2000/svg" xmlns:xlink="http://www.w3.org/1999/xlink" x="0px" y="0px"
	 viewBox="0 0 500 500" style="enable-background:new 0 0 500 500;" xml:space="preserve">
<style type="text/css">
	.st0{fill:#73896E;}
</style>
<g>
	<rect x="431.9" y="292.7" class="st0" width="14.4" height="17.3"/>
	<rect x="446.2" y="275.4" class="st0" width="14.4" height="17.3"/>
	<rect x="460.6" y="258.1" class="st0" width="14.4" height="17.3"/>
	<rect x="460.6" y="223.5" class="st0" width="14.4" height="17.3"/>
	<rect x="403.1" y="275.4" class="st0" width="14.4" height="17.3"/>
	<rect x="403.1" y="327.3" class="st0" width="14.4" height="17.3"/>
	<rect x="345.6" y="344.7" class="st0" width="14.4" height="17.3"/>
	<rect x="360" y="327.3" class="st0" width="14.4" height="17.3"/>
	<rect x="374.3" y="310" class="st0" width="14.4" height="17.3"/>
	<rect x="345.6" y="362" class="st0" width="14.4" height="17.3"/>
	<rect x="345.6" y="379.3" class="st0" width="14.4" height="17.3"/>
	<rect x="360" y="362" class="st0" width="14.4" height="17.3"/>
	<rect x="374.3" y="344.7" class="st0" width="14.4" height="17.3"/>
	<rect x="460.6" y="240.8" class="st0" width="14.4" height="17.3"/>
	<rect x="446.2" y="258.1" class="st0" width="14.4" height="17.3"/>
	<rect x="446.2" y="223.5" class="st0" width="14.4" height="17.3"/>
	<rect x="431.9" y="275.4" class="st0" width="14.4" height="17.3"/>
	<rect x="431.9" y="240.8" class="st0" width="14.4" height="17.3"/>
	<rect x="417.5" y="292.7" class="st0" width="14.4" height="17.3"/>
	<rect x="417.5" y="258.1" class="st0" width="14.4" height="17.3"/>
	<rect x="403.1" y="431.2" class="st0" width="14.4" height="17.3"/>
	<rect x="403.1" y="413.9" class="st0" width="14.4" height="17.3"/>
	<rect x="403.1" y="396.6" class="st0" width="14.4" height="17.3"/>
	<rect x="403.1" y="379.3" class="st0" width="14.4" height="17.3"/>
	<rect x="403.1" y="362" class="st0" width="14.4" height="17.3"/>
	<rect x="403.1" y="344.7" class="st0" width="14.4" height="17.3"/>
	<rect x="403.1" y="310" class="st0" width="14.4" height="17.3"/>
	<rect x="403.1" y="258.1" class="st0" width="14.4" height="17.3"/>
	<rect x="403.1" y="240.8" class="st0" width="14.4" height="17.3"/>
	<rect x="403.1" y="223.5" class="st0" width="14.4" height="17.3"/>
	<rect x="403.1" y="206.1" class="st0" width="14.4" height="17.3"/>
	<rect x="403.1" y="188.8" class="st0" width="14.4" height="17.3"/>
	<rect x="403.1" y="171.5" class="st0" width="14.4" height="17.3"/>
	<rect x="403.1" y="154.2" class="st0" width="14.4" height="17.3"/>
	<rect x="403.1" y="136.9" class="st0" width="14.4" height="17.3"/>
	<rect x="403.1" y="119.6" class="st0" width="14.4" height="17.3"/>
	<rect x="403.1" y="102.3" class="st0" width="14.4" height="17.3"/>
	<rect x="403.1" y="85" class="st0" width="14.4" height="17.3"/>
	<rect x="403.1" y="67.6" class="st0" width="14.4" height="17.3"/>
	<rect x="388.7" y="448.5" class="st0" width="14.4" height="17.3"/>
	<rect x="388.7" y="431.2" class="st0" width="14.4" height="17.3"/>
	<rect x="388.7" y="413.9" class="st0" width="14.4" height="17.3"/>
	<rect x="388.7" y="396.6" class="st0" width="14.4" height="17.3"/>
	<rect x="388.7" y="379.3" class="st0" width="14.4" height="17.3"/>
	<rect x="388.7" y="327.3" class="st0" width="14.4" height="17.3"/>
	<rect x="388.7" y="292.7" class="st0" width="14.4" height="17.3"/>
	<rect x="388.7" y="275.4" class="st0" width="14.4" height="17.3"/>
	<rect x="388.7" y="258.1" class="st0" width="14.4" height="17.3"/>
	<rect x="388.7" y="240.8" class="st0" width="14.4" height="17.3"/>
	<rect x="388.7" y="223.5" class="st0" width="14.4" height="17.3"/>
	<rect x="388.7" y="206.1" class="st0" width="14.4" height="17.3"/>
	<rect x="388.7" y="188.8" class="st0" width="14.4" height="17.3"/>
	<rect x="388.7" y="171.5" class="st0" width="14.4" height="17.3"/>
	<rect x="388.7" y="154.2" class="st0" width="14.4" height="17.3"/>
	<rect x="388.7" y="136.9" class="st0" width="14.4" height="17.3"/>
	<rect x="388.7" y="119.6" class="st0" width="14.4" height="17.3"/>
	<rect x="388.7" y="102.3" class="st0" width="14.4" height="17.3"/>
	<rect x="388.7" y="85" class="st0" width="14.4" height="17.3"/>
	<rect x="388.7" y="67.6" class="st0" width="14.4" height="17.3"/>
	<rect x="388.7" y="50.3" class="st0" width="14.4" height="17.3"/>
	<rect x="374.3" y="448.5" class="st0" width="14.4" height="17.3"/>
	<rect x="374.3" y="431.2" class="st0" width="14.4" height="17.3"/>
	<rect x="374.3" y="413.9" class="st0" width="14.4" height="17.3"/>
	<rect x="374.3" y="275.4" class="st0" width="14.4" height="17.3"/>
	<rect x="374.3" y="258.1" class="st0" width="14.4" height="17.3"/>
	<rect x="374.3" y="154.2" class="st0" width="14.4" height="17.3"/>
	<rect x="374.3" y="136.9" class="st0" width="14.4" height="17.3"/>
	<rect x="374.3" y="119.6" class="st0" width="14.4" height="17.3"/>
	<rect x="374.3" y="102.3" class="st0" width="14.4" height="17.3"/>
	<rect x="374.3" y="67.6" class="st0" width="14.4" height="17.3"/>
	<rect x="374.3" y="50.3" class="st0" width="14.4" height="17.3"/>
	<rect x="360" y="448.5" class="st0" width="14.4" height="17.3"/>
	<rect x="360" y="431.2" class="st0" width="14.4" height="17.3"/>
	<rect x="360" y="50.3" class="st0" width="14.4" height="17.3"/>
	<rect x="345.6" y="448.5" class="st0" width="14.4" height="17.3"/>
	<rect x="345.6" y="431.2" class="st0" width="14.4" height="17.3"/>
	<rect x="345.6" y="258.1" class="st0" width="14.4" height="17.3"/>
	<rect x="345.6" y="240.8" class="st0" width="14.4" height="17.3"/>
	<rect x="345.6" y="223.5" class="st0" width="14.4" height="17.3"/>
	<rect x="345.6" y="206.1" class="st0" width="14.4" height="17.3"/>
	<rect x="345.6" y="188.8" class="st0" width="14.4" height="17.3"/>
	<rect x="345.6" y="136.9" class="st0" width="14.4" height="17.3"/>
	<rect x="345.6" y="119.6" class="st0" width="14.4" height="17.3"/>
	<rect x="345.6" y="102.3" class="st0" width="14.4" height="17.3"/>
	<rect x="345.6" y="85" class="st0" width="14.4" height="17.3"/>
	<rect x="345.6" y="67.6" class="st0" width="14.4" height="17.3"/>
	<rect x="345.6" y="50.3" class="st0" width="14.4" height="17.3"/>
	<rect x="345.6" y="33" class="st0" width="14.4" height="17.3"/>
	<rect x="331.2" y="448.5" class="st0" width="14.4" height="17.3"/>
	<rect x="331.2" y="431.2" class="st0" width="14.4" height="17.3"/>
	<rect x="331.2" y="344.7" class="st0" width="14.4" height="17.3"/>
	<rect x="331.2" y="275.4" class="st0" width="14.4" height="17.3"/>
	<rect x="331.2" y="188.8" class="st0" width="14.4" height="17.3"/>
	<rect x="331.2" y="119.6" class="st0" width="14.4" height="17.3"/>
	<rect x="331.2" y="102.3" class="st0" width="14.4" height="17.3"/>
	<rect x="331.2" y="85" class="st0" width="14.4" height="17.3"/>
	<rect x="331.2" y="67.6" class="st0" width="14.4" height="17.3"/>
	<rect x="331.2" y="50.3" class="st0" width="14.4" height="17.3"/>
	<rect x="331.2" y="33" class="st0" width="14.4" height="17.3"/>
	<rect x="316.8" y="448.5" class="st0" width="14.4" height="17.3"/>
	<rect x="316.8" y="431.2" class="st0" width="14.4" height="17.3"/>
	<rect x="316.8" y="327.3" class="st0" width="14.4" height="17.3"/>
	<rect x="316.8" y="275.4" class="st0" width="14.4" height="17.3"/>
	<rect x="316.8" y="258.1" class="st0" width="14.4" height="17.3"/>
	<rect x="316.8" y="240.8" class="st0" width="14.4" height="17.3"/>
	<rect x="316.8" y="223.5" class="st0" width="14.4" height="17.3"/>
	<rect x="316.8" y="188.8" class="st0" width="14.4" height="17.3"/>
	<rect x="316.8" y="136.9" class="st0" width="14.4" height="17.3"/>
	<rect x="316.8" y="119.6" class="st0" width="14.4" height="17.3"/>
	<rect x="316.8" y="102.3" class="st0" width="14.4" height="17.3"/>
	<rect x="316.8" y="85" class="st0" width="14.4" height="17.3"/>
	<rect x="316.8" y="67.6" class="st0" width="14.4" height="17.3"/>
	<rect x="316.8" y="50.3" class="st0" width="14.4" height="17.3"/>
	<rect x="316.8" y="33" class="st0" width="14.4" height="17.3"/>
	<rect x="302.4" y="448.5" class="st0" width="14.4" height="17.3"/>
	<rect x="302.4" y="431.2" class="st0" width="14.4" height="17.3"/>
	<rect x="302.4" y="344.7" class="st0" width="14.4" height="17.3"/>
	<rect x="302.4" y="275.4" class="st0" width="14.4" height="17.3"/>
	<rect x="302.4" y="258.1" class="st0" width="14.4" height="17.3"/>
	<rect x="302.4" y="240.8" class="st0" width="14.4" height="17.3"/>
	<rect x="302.4" y="223.5" class="st0" width="14.4" height="17.3"/>
	<rect x="302.4" y="188.8" class="st0" width="14.4" height="17.3"/>
	<rect x="302.4" y="119.6" class="st0" width="14.4" height="17.3"/>
	<rect x="302.4" y="50.3" class="st0" width="14.4" height="17.3"/>
	<rect x="288" y="448.5" class="st0" width="14.4" height="17.3"/>
	<rect x="288" y="431.2" class="st0" width="14.4" height="17.3"/>
	<rect x="288" y="258.1" class="st0" width="14.4" height="17.3"/>
	<rect x="288" y="223.5" class="st0" width="14.4" height="17.3"/>
	<rect x="288" y="188.8" class="st0" width="14.4" height="17.3"/>
	<rect x="288" y="136.9" class="st0" width="14.4" height="17.3"/>
	<rect x="288" y="119.6" class="st0" width="14.4" height="17.3"/>
	<rect x="288" y="50.3" class="st0" width="14.4" height="17.3"/>
	<rect x="273.7" y="448.5" class="st0" width="14.4" height="17.3"/>
	<rect x="273.7" y="431.2" class="st0" width="14.4" height="17.3"/>
	<rect x="273.7" y="413.9" class="st0" width="14.4" height="17.3"/>
	<rect x="273.7" y="344.7" class="st0" width="14.4" height="17.3"/>
	<rect x="273.7" y="327.3" class="st0" width="14.4" height="17.3"/>
	<rect x="273.7" y="258.1" class="st0" width="14.4" height="17.3"/>
	<rect x="273.7" y="240.8" class="st0" width="14.4" height="17.3"/>
	<rect x="273.7" y="223.5" class="st0" width="14.4" height="17.3"/>
	<rect x="273.7" y="171.5" class="st0" width="14.4" height="17.3"/>
	<rect x="273.7" y="136.9" class="st0" width="14.4" height="17.3"/>
	<rect x="273.7" y="50.3" class="st0" width="14.4" height="17.3"/>
	<rect x="259.3" y="448.5" class="st0" width="14.4" height="17.3"/>
	<rect x="259.3" y="431.2" class="st0" width="14.4" height="17.3"/>
	<rect x="259.3" y="413.9" class="st0" width="14.4" height="17.3"/>
	<rect x="259.3" y="344.7" class="st0" width="14.4" height="17.3"/>
	<rect x="259.3" y="258.1" class="st0" width="14.4" height="17.3"/>
	<rect x="259.3" y="240.8" class="st0" width="14.4" height="17.3"/>
	<rect x="259.3" y="223.5" class="st0" width="14.4" height="17.3"/>
	<rect x="259.3" y="206.1" class="st0" width="14.4" height="17.3"/>
	<rect x="259.3" y="171.5" class="st0" width="14.4" height="17.3"/>
	<rect x="259.3" y="119.6" class="st0" width="14.4" height="17.3"/>
	<rect x="259.3" y="50.3" class="st0" width="14.4" height="17.3"/>
	<rect x="244.9" y="448.5" class="st0" width="14.4" height="17.3"/>
	<rect x="244.9" y="431.2" class="st0" width="14.4" height="17.3"/>
	<rect x="244.9" y="413.9" class="st0" width="14.4" height="17.3"/>
	<rect x="244.9" y="327.3" class="st0" width="14.4" height="17.3"/>
	<rect x="244.9" y="258.1" class="st0" width="14.4" height="17.3"/>
	<rect x="244.9" y="171.5" class="st0" width="14.4" height="17.3"/>
	<rect x="244.9" y="136.9" class="st0" width="14.4" height="17.3"/>
	<rect x="244.9" y="119.6" class="st0" width="14.4" height="17.3"/>
	<rect x="244.9" y="50.3" class="st0" width="14.4" height="17.3"/>
	<rect x="230.5" y="448.5" class="st0" width="14.4" height="17.3"/>
	<rect x="230.5" y="431.2" class="st0" width="14.4" height="17.3"/>
	<rect x="230.5" y="327.3" class="st0" width="14.4" height="17.3"/>
	<rect x="230.5" y="258.1" class="st0" width="14.4" height="17.3"/>
	<rect x="230.5" y="240.8" class="st0" width="14.4" height="17.3"/>
	<rect x="230.5" y="223.5" class="st0" width="14.4" height="17.3"/>
	<rect x="230.5" y="206.1" class="st0" width="14.4" height="17.3"/>
	<rect x="230.5" y="188.8" class="st0" width="14.4" height="17.3"/>
	<rect x="230.5" y="67.6" class="st0" width="14.4" height="17.3"/>
	<rect x="230.5" y="50.3" class="st0" width="14.4" height="17.3"/>
	<rect x="216.1" y="448.5" class="st0" width="14.4" height="17.3"/>
	<rect x="216.1" y="431.2" class="st0" width="14.4" height="17.3"/>
	<rect x="216.1" y="413.9" class="st0" width="14.4" height="17.3"/>
	<rect x="216.1" y="344.7" class="st0" width="14.4" height="17.3"/>
	<rect x="216.1" y="136.9" class="st0" width="14.4" height="17.3"/>
	<rect x="216.1" y="50.3" class="st0" width="14.4" height="17.3"/>
	<rect x="201.8" y="448.5" class="st0" width="14.4" height="17.3"/>
	<rect x="201.8" y="431.2" class="st0" width="14.4" height="17.3"/>
	<rect x="201.8" y="413.9" class="st0" width="14.4" height="17.3"/>
	<rect x="201.8" y="396.6" class="st0" width="14.4" height="17.3"/>
	<rect x="201.8" y="327.3" class="st0" width="14.4" height="17.3"/>
	<rect x="201.8" y="292.7" class="st0" width="14.4" height="17.3"/>
	<rect x="201.8" y="223.5" class="st0" width="14.4" height="17.3"/>
	<rect x="201.8" y="119.6" class="st0" width="14.4" height="17.3"/>
	<rect x="201.8" y="50.3" class="st0" width="14.4" height="17.3"/>
	<rect x="187.4" y="448.5" class="st0" width="14.4" height="17.3"/>
	<rect x="187.4" y="431.2" class="st0" width="14.4" height="17.3"/>
	<rect x="187.4" y="396.6" class="st0" width="14.4" height="17.3"/>
	<rect x="187.4" y="379.3" class="st0" width="14.4" height="17.3"/>
	<rect x="187.4" y="344.7" class="st0" width="14.4" height="17.3"/>
	<rect x="187.4" y="275.4" class="st0" width="14.4" height="17.3"/>
	<rect x="187.4" y="240.8" class="st0" width="14.4" height="17.3"/>
	<rect x="187.4" y="136.9" class="st0" width="14.4" height="17.3"/>
	<rect x="187.4" y="50.3" class="st0" width="14.4" height="17.3"/>
	<rect x="173" y="448.5" class="st0" width="14.4" height="17.3"/>
	<rect x="173" y="431.2" class="st0" width="14.4" height="17.3"/>
	<rect x="173" y="223.5" class="st0" width="14.4" height="17.3"/>
	<rect x="173" y="188.8" class="st0" width="14.4" height="17.3"/>
	<rect x="173" y="119.6" class="st0" width="14.4" height="17.3"/>
	<rect x="173" y="50.3" class="st0" width="14.4" height="17.3"/>
	<rect x="158.6" y="448.5" class="st0" width="14.4" height="17.3"/>
	<rect x="158.6" y="431.2" class="st0" width="14.4" height="17.3"/>
	<rect x="158.6" y="327.3" class="st0" width="14.4" height="17.3"/>
	<rect x="158.6" y="292.7" class="st0" width="14.4" height="17.3"/>
	<rect x="158.6" y="240.8" class="st0" width="14.4" height="17.3"/>
	<rect x="158.6" y="171.5" class="st0" width="14.4" height="17.3"/>
	<rect x="158.6" y="67.6" class="st0" width="14.4" height="17.3"/>
	<rect x="158.6" y="50.3" class="st0" width="14.4" height="17.3"/>
	<rect x="144.2" y="448.5" class="st0" width="14.4" height="17.3"/>
	<rect x="144.2" y="431.2" class="st0" width="14.4" height="17.3"/>
	<rect x="144.2" y="413.9" class="st0" width="14.4" height="17.3"/>
	<rect x="144.2" y="344.7" class="st0" width="14.4" height="17.3"/>
	<rect x="144.2" y="275.4" class="st0" width="14.4" height="17.3"/>
	<rect x="144.2" y="240.8" class="st0" width="14.4" height="17.3"/>
	<rect x="144.2" y="223.5" class="st0" width="14.4" height="17.3"/>
	<rect x="144.2" y="188.8" class="st0" width="14.4" height="17.3"/>
	<rect x="144.2" y="136.9" class="st0" width="14.4" height="17.3"/>
	<rect x="144.2" y="67.6" class="st0" width="14.4" height="17.3"/>
	<rect x="144.2" y="50.3" class="st0" width="14.4" height="17.3"/>
	<rect x="129.9" y="448.5" class="st0" width="14.4" height="17.3"/>
	<rect x="129.9" y="431.2" class="st0" width="14.4" height="17.3"/>
	<rect x="129.9" y="327.3" class="st0" width="14.4" height="17.3"/>
	<rect x="129.9" y="292.7" class="st0" width="14.4" height="17.3"/>
	<rect x="129.9" y="223.5" class="st0" width="14.4" height="17.3"/>
	<rect x="129.9" y="171.5" class="st0" width="14.4" height="17.3"/>
	<rect x="129.9" y="119.6" class="st0" width="14.4" height="17.3"/>
	<rect x="129.9" y="67.6" class="st0" width="14.4" height="17.3"/>
	<rect x="129.9" y="50.3" class="st0" width="14.4" height="17.3"/>
	<rect x="115.5" y="448.5" class="st0" width="14.4" height="17.3"/>
	<rect x="115.5" y="431.2" class="st0" width="14.4" height="17.3"/>
	<rect x="115.5" y="50.3" class="st0" width="14.4" height="17.3"/>
	<rect x="101.1" y="448.5" class="st0" width="14.4" height="17.3"/>
	<rect x="101.1" y="431.2" class="st0" width="14.4" height="17.3"/>
	<rect x="101.1" y="413.9" class="st0" width="14.4" height="17.3"/>
	<rect x="101.1" y="50.3" class="st0" width="14.4" height="17.3"/>
	<rect x="86.7" y="448.5" class="st0" width="14.4" height="17.3"/>
	<rect x="86.7" y="431.2" class="st0" width="14.4" height="17.3"/>
	<rect x="86.7" y="413.9" class="st0" width="14.4" height="17.3"/>
	<rect x="86.7" y="396.6" class="st0" width="14.4" height="17.3"/>
	<rect x="86.7" y="379.3" class="st0" width="14.4" height="17.3"/>
	<rect x="86.7" y="344.7" class="st0" width="14.4" height="17.3"/>
	<rect x="86.7" y="310" class="st0" width="14.4" height="17.3"/>
	<rect x="86.7" y="275.4" class="st0" width="14.4" height="17.3"/>
	<rect x="86.7" y="240.8" class="st0" width="14.4" height="17.3"/>
	<rect x="86.7" y="206.1" class="st0" width="14.4" height="17.3"/>
	<rect x="86.7" y="171.5" class="st0" width="14.4" height="17.3"/>
	<rect x="86.7" y="136.9" class="st0" width="14.4" height="17.3"/>
	<rect x="86.7" y="102.3" class="st0" width="14.4" height="17.3"/>
	<rect x="86.7" y="67.6" class="st0" width="14.4" height="17.3"/>
	<rect x="86.7" y="50.3" class="st0" width="14.4" height="17.3"/>
	<rect x="72.3" y="431.2" class="st0" width="14.4" height="17.3"/>
	<rect x="72.3" y="413.9" class="st0" width="14.4" height="17.3"/>
	<rect x="72.3" y="396.6" class="st0" width="14.4" height="17.3"/>
	<rect x="72.3" y="379.3" class="st0" width="14.4" height="17.3"/>
	<rect x="72.3" y="362" class="st0" width="14.4" height="17.3"/>
	<rect x="72.3" y="344.7" class="st0" width="14.4" height="17.3"/>
	<rect x="72.3" y="327.3" class="st0" width="14.4" height="17.3"/>
	<rect x="72.3" y="310" class="st0" width="14.4" height="17.3"/>
	<rect x="72.3" y="292.7" class="st0" width="14.4" height="17.3"/>
	<rect x="72.3" y="275.4" class="st0" width="14.4" height="17.3"/>
	<rect x="72.3" y="258.1" class="st0" width="14.4" height="17.3"/>
	<rect x="72.3" y="240.8" class="st0" width="14.4" height="17.3"/>
	<rect x="72.3" y="223.5" class="st0" width="14.4" height="17.3"/>
	<rect x="72.3" y="206.1" class="st0" width="14.4" height="17.3"/>
	<rect x="72.3" y="188.8" class="st0" width="14.4" height="17.3"/>
	<rect x="72.3" y="171.5" class="st0" width="14.4" height="17.3"/>
	<rect x="72.3" y="154.2" class="st0" width="14.4" height="17.3"/>
	<rect x="72.3" y="136.9" class="st0" width="14.4" height="17.3"/>
	<rect x="72.3" y="119.6" class="st0" width="14.4" height="17.3"/>
	<rect x="72.3" y="102.3" class="st0" width="14.4" height="17.3"/>
	<rect x="72.3" y="85" class="st0" width="14.4" height="17.3"/>
	<rect x="72.3" y="67.6" class="st0" width="14.4" height="17.3"/>
	<rect x="58" y="396.6" class="st0" width="14.4" height="17.3"/>
	<rect x="58" y="362" class="st0" width="14.4" height="17.3"/>
	<rect x="58" y="327.3" class="st0" width="14.4" height="17.3"/>
	<rect x="58" y="292.7" class="st0" width="14.4" height="17.3"/>
	<rect x="58" y="258.1" class="st0" width="14.4" height="17.3"/>
	<rect x="58" y="223.5" class="st0" width="14.4" height="17.3"/>
	<rect x="58" y="188.8" class="st0" width="14.4" height="17.3"/>
	<rect x="58" y="154.2" class="st0" width="14.4" height="17.3"/>
	<rect x="58" y="119.6" class="st0" width="14.4" height="17.3"/>
	<rect x="58" y="85" class="st0" width="14.4" height="17.3"/>
</g>
</svg>
