<?xml version="1.0" encoding="utf-8"?>
<!-- Generator: Adobe Illustrator 22.1.0, SVG Export Plug-In . SVG Version: 6.00 Build 0)  -->
<svg version="1.1" id="Layer_1" xmlns="http://www.w3.org/2000/svg"  x="0px" y="0px"
	 viewBox="0 0 500 500" style="enable-background:new 0 0 500 500;" xml:space="preserve">
<style type="text/css">
	.st0{fill:#73896E;}
</style>
<g>
	<rect x="402.4" y="172.1" class="st0" width="15.6" height="15.6"/>
	<rect x="449.4" y="422.5" class="st0" width="15.6" height="15.7"/>
	<rect x="449.4" y="406.8" class="st0" width="15.6" height="15.6"/>
	<rect x="449.4" y="391.2" class="st0" width="15.6" height="15.7"/>
	<rect x="433.7" y="453.8" class="st0" width="15.6" height="15.6"/>
	<rect x="433.7" y="422.5" class="st0" width="15.6" height="15.7"/>
	<rect x="433.7" y="406.8" class="st0" width="15.6" height="15.6"/>
	<rect x="433.7" y="391.2" class="st0" width="15.6" height="15.7"/>
	<rect x="433.7" y="375.5" class="st0" width="15.6" height="15.6"/>
	<rect x="418.1" y="453.8" class="st0" width="15.7" height="15.6"/>
	<rect x="418.1" y="406.8" class="st0" width="15.7" height="15.6"/>
	<rect x="418.1" y="391.2" class="st0" width="15.7" height="15.7"/>
	<rect x="418.1" y="375.5" class="st0" width="15.7" height="15.6"/>
	<rect x="418.1" y="359.9" class="st0" width="15.7" height="15.6"/>
	<rect x="418.1" y="312.9" class="st0" width="15.7" height="15.7"/>
	<rect x="418.1" y="297.3" class="st0" width="15.7" height="15.6"/>
	<rect x="418.1" y="281.7" class="st0" width="15.7" height="15.6"/>
	<rect x="402.4" y="453.8" class="st0" width="15.6" height="15.6"/>
	<rect x="402.4" y="422.5" class="st0" width="15.6" height="15.7"/>
	<rect x="402.4" y="406.8" class="st0" width="15.6" height="15.6"/>
	<rect x="402.4" y="391.2" class="st0" width="15.6" height="15.7"/>
	<rect x="402.4" y="375.5" class="st0" width="15.6" height="15.6"/>
	<rect x="402.4" y="359.9" class="st0" width="15.6" height="15.6"/>
	<rect x="402.4" y="328.6" class="st0" width="15.6" height="15.6"/>
	<rect x="402.4" y="312.9" class="st0" width="15.6" height="15.7"/>
	<rect x="402.4" y="297.3" class="st0" width="15.6" height="15.6"/>
	<rect x="402.4" y="281.7" class="st0" width="15.6" height="15.6"/>
	<rect x="402.4" y="266" class="st0" width="15.6" height="15.7"/>
	<rect x="402.4" y="31.3" class="st0" width="15.6" height="15.7"/>
	<rect x="386.8" y="453.8" class="st0" width="15.7" height="15.6"/>
	<rect x="386.8" y="422.5" class="st0" width="15.7" height="15.7"/>
	<rect x="386.8" y="406.8" class="st0" width="15.7" height="15.6"/>
	<rect x="386.8" y="391.2" class="st0" width="15.7" height="15.7"/>
	<rect x="386.8" y="375.5" class="st0" width="15.7" height="15.6"/>
	<rect x="386.8" y="359.9" class="st0" width="15.7" height="15.6"/>
	<rect x="386.8" y="344.2" class="st0" width="15.7" height="15.7"/>
	<rect x="386.8" y="328.6" class="st0" width="15.7" height="15.6"/>
	<rect x="386.8" y="312.9" class="st0" width="15.7" height="15.7"/>
	<rect x="386.8" y="297.3" class="st0" width="15.7" height="15.6"/>
	<rect x="386.8" y="281.7" class="st0" width="15.7" height="15.6"/>
	<rect x="386.8" y="266" class="st0" width="15.7" height="15.7"/>
	<rect x="386.8" y="250.4" class="st0" width="15.7" height="15.6"/>
	<rect x="371.1" y="422.5" class="st0" width="15.6" height="15.7"/>
	<rect x="371.1" y="406.8" class="st0" width="15.6" height="15.6"/>
	<rect x="371.1" y="391.2" class="st0" width="15.6" height="15.7"/>
	<rect x="371.1" y="375.5" class="st0" width="15.6" height="15.6"/>
	<rect x="371.1" y="359.9" class="st0" width="15.6" height="15.6"/>
	<rect x="371.1" y="344.2" class="st0" width="15.6" height="15.7"/>
	<rect x="371.1" y="328.6" class="st0" width="15.6" height="15.6"/>
	<rect x="371.1" y="312.9" class="st0" width="15.6" height="15.7"/>
	<rect x="371.1" y="297.3" class="st0" width="15.6" height="15.6"/>
	<rect x="371.1" y="281.7" class="st0" width="15.6" height="15.6"/>
	<rect x="371.1" y="266" class="st0" width="15.6" height="15.7"/>
	<rect x="371.1" y="250.4" class="st0" width="15.6" height="15.6"/>
	<rect x="355.5" y="344.2" class="st0" width="15.6" height="15.7"/>
	<rect x="355.5" y="328.6" class="st0" width="15.6" height="15.6"/>
	<rect x="355.5" y="312.9" class="st0" width="15.6" height="15.7"/>
	<rect x="355.5" y="297.3" class="st0" width="15.6" height="15.6"/>
	<rect x="355.5" y="281.7" class="st0" width="15.6" height="15.6"/>
	<rect x="355.5" y="266" class="st0" width="15.6" height="15.7"/>
	<rect x="355.5" y="250.4" class="st0" width="15.6" height="15.6"/>
	<rect x="355.5" y="109.5" class="st0" width="15.6" height="15.7"/>
	<rect x="355.5" y="93.9" class="st0" width="15.6" height="15.6"/>
	<rect x="355.5" y="78.3" class="st0" width="15.6" height="15.6"/>
	<rect x="355.5" y="62.6" class="st0" width="15.6" height="15.7"/>
	<rect x="339.8" y="422.5" class="st0" width="15.7" height="15.7"/>
	<rect x="339.8" y="406.8" class="st0" width="15.7" height="15.6"/>
	<rect x="339.8" y="391.2" class="st0" width="15.7" height="15.7"/>
	<rect x="339.8" y="375.5" class="st0" width="15.7" height="15.6"/>
	<rect x="339.8" y="328.6" class="st0" width="15.7" height="15.6"/>
	<rect x="339.8" y="312.9" class="st0" width="15.7" height="15.7"/>
	<rect x="339.8" y="297.3" class="st0" width="15.7" height="15.6"/>
	<rect x="339.8" y="281.7" class="st0" width="15.7" height="15.6"/>
	<rect x="339.8" y="266" class="st0" width="15.7" height="15.7"/>
	<rect x="339.8" y="125.2" class="st0" width="15.7" height="15.6"/>
	<rect x="339.8" y="109.5" class="st0" width="15.7" height="15.7"/>
	<rect x="339.8" y="93.9" class="st0" width="15.7" height="15.6"/>
	<rect x="339.8" y="78.3" class="st0" width="15.7" height="15.6"/>
	<rect x="339.8" y="62.6" class="st0" width="15.7" height="15.7"/>
	<rect x="339.8" y="47" class="st0" width="15.7" height="15.6"/>
	<rect x="324.2" y="453.8" class="st0" width="15.6" height="15.6"/>
	<rect x="324.2" y="422.5" class="st0" width="15.6" height="15.7"/>
	<rect x="324.2" y="406.8" class="st0" width="15.6" height="15.6"/>
	<rect x="324.2" y="391.2" class="st0" width="15.6" height="15.7"/>
	<rect x="324.2" y="375.5" class="st0" width="15.6" height="15.6"/>
	<rect x="324.2" y="359.9" class="st0" width="15.6" height="15.6"/>
	<rect x="324.2" y="312.9" class="st0" width="15.6" height="15.7"/>
	<rect x="324.2" y="297.3" class="st0" width="15.6" height="15.6"/>
	<rect x="324.2" y="281.7" class="st0" width="15.6" height="15.6"/>
	<rect x="324.2" y="140.8" class="st0" width="15.6" height="15.6"/>
	<rect x="324.2" y="125.2" class="st0" width="15.6" height="15.6"/>
	<rect x="324.2" y="47" class="st0" width="15.6" height="15.6"/>
	<rect x="324.2" y="31.3" class="st0" width="15.6" height="15.7"/>
	<rect x="308.6" y="453.8" class="st0" width="15.6" height="15.6"/>
	<rect x="308.6" y="406.8" class="st0" width="15.6" height="15.6"/>
	<rect x="308.6" y="391.2" class="st0" width="15.6" height="15.7"/>
	<rect x="308.6" y="375.5" class="st0" width="15.6" height="15.6"/>
	<rect x="308.6" y="359.9" class="st0" width="15.6" height="15.6"/>
	<rect x="308.6" y="344.2" class="st0" width="15.6" height="15.7"/>
	<rect x="308.6" y="140.8" class="st0" width="15.6" height="15.6"/>
	<rect x="308.6" y="31.3" class="st0" width="15.6" height="15.7"/>
	<rect x="292.9" y="453.8" class="st0" width="15.7" height="15.6"/>
	<rect x="292.9" y="422.5" class="st0" width="15.7" height="15.7"/>
	<rect x="292.9" y="406.8" class="st0" width="15.7" height="15.6"/>
	<rect x="292.9" y="391.2" class="st0" width="15.7" height="15.7"/>
	<rect x="292.9" y="375.5" class="st0" width="15.7" height="15.6"/>
	<rect x="292.9" y="359.9" class="st0" width="15.7" height="15.6"/>
	<rect x="292.9" y="344.2" class="st0" width="15.7" height="15.7"/>
	<rect x="292.9" y="297.3" class="st0" width="15.7" height="15.6"/>
	<rect x="292.9" y="281.7" class="st0" width="15.7" height="15.6"/>
	<rect x="292.9" y="266" class="st0" width="15.7" height="15.7"/>
	<rect x="277.3" y="453.8" class="st0" width="15.6" height="15.6"/>
	<rect x="277.3" y="422.5" class="st0" width="15.6" height="15.7"/>
	<rect x="277.3" y="406.8" class="st0" width="15.6" height="15.6"/>
	<rect x="277.3" y="391.2" class="st0" width="15.6" height="15.7"/>
	<rect x="277.3" y="375.5" class="st0" width="15.6" height="15.6"/>
	<rect x="277.3" y="359.9" class="st0" width="15.6" height="15.6"/>
	<rect x="277.3" y="344.2" class="st0" width="15.6" height="15.7"/>
	<rect x="277.3" y="312.9" class="st0" width="15.6" height="15.7"/>
	<rect x="277.3" y="297.3" class="st0" width="15.6" height="15.6"/>
	<rect x="277.3" y="281.7" class="st0" width="15.6" height="15.6"/>
	<rect x="277.3" y="266" class="st0" width="15.6" height="15.7"/>
	<rect x="277.3" y="250.4" class="st0" width="15.6" height="15.6"/>
	<rect x="261.6" y="453.8" class="st0" width="15.7" height="15.6"/>
	<rect x="261.6" y="422.5" class="st0" width="15.7" height="15.7"/>
	<rect x="261.6" y="406.8" class="st0" width="15.7" height="15.6"/>
	<rect x="261.6" y="391.2" class="st0" width="15.7" height="15.7"/>
	<rect x="261.6" y="375.5" class="st0" width="15.7" height="15.6"/>
	<rect x="261.6" y="359.9" class="st0" width="15.7" height="15.6"/>
	<rect x="261.6" y="344.2" class="st0" width="15.7" height="15.7"/>
	<rect x="261.6" y="328.6" class="st0" width="15.7" height="15.6"/>
	<rect x="261.6" y="312.9" class="st0" width="15.7" height="15.7"/>
	<rect x="261.6" y="297.3" class="st0" width="15.7" height="15.6"/>
	<rect x="261.6" y="281.7" class="st0" width="15.7" height="15.6"/>
	<rect x="261.6" y="266" class="st0" width="15.7" height="15.7"/>
	<rect x="261.6" y="250.4" class="st0" width="15.7" height="15.6"/>
	<rect x="261.6" y="234.7" class="st0" width="15.7" height="15.7"/>
	<rect x="246" y="453.8" class="st0" width="15.6" height="15.6"/>
	<rect x="246" y="422.5" class="st0" width="15.6" height="15.7"/>
	<rect x="246" y="406.8" class="st0" width="15.6" height="15.6"/>
	<rect x="246" y="391.2" class="st0" width="15.6" height="15.7"/>
	<rect x="246" y="375.5" class="st0" width="15.6" height="15.6"/>
	<rect x="246" y="359.9" class="st0" width="15.6" height="15.6"/>
	<rect x="246" y="344.2" class="st0" width="15.6" height="15.7"/>
	<rect x="246" y="328.6" class="st0" width="15.6" height="15.6"/>
	<rect x="246" y="312.9" class="st0" width="15.6" height="15.7"/>
	<rect x="246" y="297.3" class="st0" width="15.6" height="15.6"/>
	<rect x="246" y="281.7" class="st0" width="15.6" height="15.6"/>
	<rect x="246" y="266" class="st0" width="15.6" height="15.7"/>
	<rect x="246" y="250.4" class="st0" width="15.6" height="15.6"/>
	<rect x="246" y="234.7" class="st0" width="15.6" height="15.7"/>
	<rect x="230.3" y="453.8" class="st0" width="15.6" height="15.6"/>
	<rect x="230.3" y="422.5" class="st0" width="15.6" height="15.7"/>
	<rect x="230.3" y="406.8" class="st0" width="15.6" height="15.6"/>
	<rect x="230.3" y="391.2" class="st0" width="15.6" height="15.7"/>
	<rect x="230.3" y="375.5" class="st0" width="15.6" height="15.6"/>
	<rect x="230.3" y="359.9" class="st0" width="15.6" height="15.6"/>
	<rect x="230.3" y="344.2" class="st0" width="15.6" height="15.7"/>
	<rect x="230.3" y="328.6" class="st0" width="15.6" height="15.6"/>
	<rect x="230.3" y="312.9" class="st0" width="15.6" height="15.7"/>
	<rect x="230.3" y="297.3" class="st0" width="15.6" height="15.6"/>
	<rect x="230.3" y="281.7" class="st0" width="15.6" height="15.6"/>
	<rect x="230.3" y="266" class="st0" width="15.6" height="15.7"/>
	<rect x="230.3" y="250.4" class="st0" width="15.6" height="15.6"/>
	<rect x="230.3" y="234.7" class="st0" width="15.6" height="15.7"/>
	<rect x="230.3" y="109.5" class="st0" width="15.6" height="15.7"/>
	<rect x="214.7" y="453.8" class="st0" width="15.7" height="15.6"/>
	<rect x="214.7" y="422.5" class="st0" width="15.7" height="15.7"/>
	<rect x="214.7" y="406.8" class="st0" width="15.7" height="15.6"/>
	<rect x="214.7" y="391.2" class="st0" width="15.7" height="15.7"/>
	<rect x="214.7" y="375.5" class="st0" width="15.7" height="15.6"/>
	<rect x="214.7" y="359.9" class="st0" width="15.7" height="15.6"/>
	<rect x="214.7" y="344.2" class="st0" width="15.7" height="15.7"/>
	<rect x="214.7" y="312.9" class="st0" width="15.7" height="15.7"/>
	<rect x="214.7" y="297.3" class="st0" width="15.7" height="15.6"/>
	<rect x="214.7" y="281.7" class="st0" width="15.7" height="15.6"/>
	<rect x="214.7" y="266" class="st0" width="15.7" height="15.7"/>
	<rect x="214.7" y="250.4" class="st0" width="15.7" height="15.6"/>
	<rect x="199" y="453.8" class="st0" width="15.6" height="15.6"/>
	<rect x="199" y="422.5" class="st0" width="15.6" height="15.7"/>
	<rect x="199" y="406.8" class="st0" width="15.6" height="15.6"/>
	<rect x="199" y="391.2" class="st0" width="15.6" height="15.7"/>
	<rect x="199" y="375.5" class="st0" width="15.6" height="15.6"/>
	<rect x="199" y="359.9" class="st0" width="15.6" height="15.6"/>
	<rect x="199" y="344.2" class="st0" width="15.6" height="15.7"/>
	<rect x="199" y="297.3" class="st0" width="15.6" height="15.6"/>
	<rect x="199" y="281.7" class="st0" width="15.6" height="15.6"/>
	<rect x="199" y="266" class="st0" width="15.6" height="15.7"/>
	<rect x="183.4" y="453.8" class="st0" width="15.7" height="15.6"/>
	<rect x="183.4" y="406.8" class="st0" width="15.7" height="15.6"/>
	<rect x="183.4" y="391.2" class="st0" width="15.7" height="15.7"/>
	<rect x="183.4" y="375.5" class="st0" width="15.7" height="15.6"/>
	<rect x="183.4" y="359.9" class="st0" width="15.7" height="15.6"/>
	<rect x="183.4" y="344.2" class="st0" width="15.7" height="15.7"/>
	<rect x="167.7" y="453.8" class="st0" width="15.6" height="15.6"/>
	<rect x="167.7" y="422.5" class="st0" width="15.6" height="15.7"/>
	<rect x="167.7" y="406.8" class="st0" width="15.6" height="15.6"/>
	<rect x="167.7" y="391.2" class="st0" width="15.6" height="15.7"/>
	<rect x="167.7" y="375.5" class="st0" width="15.6" height="15.6"/>
	<rect x="167.7" y="359.9" class="st0" width="15.6" height="15.6"/>
	<rect x="167.7" y="312.9" class="st0" width="15.6" height="15.7"/>
	<rect x="167.7" y="297.3" class="st0" width="15.6" height="15.6"/>
	<rect x="167.7" y="281.7" class="st0" width="15.6" height="15.6"/>
	<rect x="152.1" y="422.5" class="st0" width="15.6" height="15.7"/>
	<rect x="152.1" y="406.8" class="st0" width="15.6" height="15.6"/>
	<rect x="152.1" y="391.2" class="st0" width="15.6" height="15.7"/>
	<rect x="152.1" y="375.5" class="st0" width="15.6" height="15.6"/>
	<rect x="152.1" y="328.6" class="st0" width="15.6" height="15.6"/>
	<rect x="152.1" y="312.9" class="st0" width="15.6" height="15.7"/>
	<rect x="152.1" y="297.3" class="st0" width="15.6" height="15.6"/>
	<rect x="152.1" y="281.7" class="st0" width="15.6" height="15.6"/>
	<rect x="152.1" y="266" class="st0" width="15.6" height="15.7"/>
	<rect x="152.1" y="172.1" class="st0" width="15.6" height="15.6"/>
	<rect x="152.1" y="78.3" class="st0" width="15.6" height="15.6"/>
	<rect x="152.1" y="47" class="st0" width="15.6" height="15.6"/>
	<rect x="136.4" y="344.2" class="st0" width="15.7" height="15.7"/>
	<rect x="136.4" y="328.6" class="st0" width="15.7" height="15.6"/>
	<rect x="136.4" y="312.9" class="st0" width="15.7" height="15.7"/>
	<rect x="136.4" y="297.3" class="st0" width="15.7" height="15.6"/>
	<rect x="136.4" y="281.7" class="st0" width="15.7" height="15.6"/>
	<rect x="136.4" y="266" class="st0" width="15.7" height="15.7"/>
	<rect x="136.4" y="250.4" class="st0" width="15.7" height="15.6"/>
	<rect x="136.4" y="62.6" class="st0" width="15.7" height="15.7"/>
	<rect x="120.8" y="422.5" class="st0" width="15.6" height="15.7"/>
	<rect x="120.8" y="406.8" class="st0" width="15.6" height="15.6"/>
	<rect x="120.8" y="391.2" class="st0" width="15.6" height="15.7"/>
	<rect x="120.8" y="375.5" class="st0" width="15.6" height="15.6"/>
	<rect x="120.8" y="359.9" class="st0" width="15.6" height="15.6"/>
	<rect x="120.8" y="344.2" class="st0" width="15.6" height="15.7"/>
	<rect x="120.8" y="328.6" class="st0" width="15.6" height="15.6"/>
	<rect x="120.8" y="312.9" class="st0" width="15.6" height="15.7"/>
	<rect x="120.8" y="297.3" class="st0" width="15.6" height="15.6"/>
	<rect x="120.8" y="281.7" class="st0" width="15.6" height="15.6"/>
	<rect x="120.8" y="266" class="st0" width="15.6" height="15.7"/>
	<rect x="120.8" y="250.4" class="st0" width="15.6" height="15.6"/>
	<rect x="120.8" y="78.3" class="st0" width="15.6" height="15.6"/>
	<rect x="120.8" y="47" class="st0" width="15.6" height="15.6"/>
	<rect x="105.2" y="453.8" class="st0" width="15.7" height="15.6"/>
	<rect x="105.2" y="422.5" class="st0" width="15.7" height="15.7"/>
	<rect x="105.2" y="406.8" class="st0" width="15.7" height="15.6"/>
	<rect x="105.2" y="391.2" class="st0" width="15.7" height="15.7"/>
	<rect x="105.2" y="375.5" class="st0" width="15.7" height="15.6"/>
	<rect x="105.2" y="359.9" class="st0" width="15.7" height="15.6"/>
	<rect x="105.2" y="344.2" class="st0" width="15.7" height="15.7"/>
	<rect x="105.2" y="328.6" class="st0" width="15.7" height="15.6"/>
	<rect x="105.2" y="312.9" class="st0" width="15.7" height="15.7"/>
	<rect x="105.2" y="297.3" class="st0" width="15.7" height="15.6"/>
	<rect x="105.2" y="281.7" class="st0" width="15.7" height="15.6"/>
	<rect x="105.2" y="266" class="st0" width="15.7" height="15.7"/>
	<rect x="105.2" y="250.4" class="st0" width="15.7" height="15.6"/>
	<rect x="89.5" y="453.8" class="st0" width="15.6" height="15.6"/>
	<rect x="89.5" y="422.5" class="st0" width="15.6" height="15.7"/>
	<rect x="89.5" y="406.8" class="st0" width="15.6" height="15.6"/>
	<rect x="89.5" y="391.2" class="st0" width="15.6" height="15.7"/>
	<rect x="89.5" y="375.5" class="st0" width="15.6" height="15.6"/>
	<rect x="89.5" y="359.9" class="st0" width="15.6" height="15.6"/>
	<rect x="89.5" y="328.6" class="st0" width="15.6" height="15.6"/>
	<rect x="89.5" y="312.9" class="st0" width="15.6" height="15.7"/>
	<rect x="89.5" y="297.3" class="st0" width="15.6" height="15.6"/>
	<rect x="89.5" y="281.7" class="st0" width="15.6" height="15.6"/>
	<rect x="89.5" y="266" class="st0" width="15.6" height="15.7"/>
	<rect x="73.9" y="453.8" class="st0" width="15.6" height="15.6"/>
	<rect x="73.9" y="406.8" class="st0" width="15.6" height="15.6"/>
	<rect x="73.9" y="391.2" class="st0" width="15.6" height="15.7"/>
	<rect x="73.9" y="375.5" class="st0" width="15.6" height="15.6"/>
	<rect x="73.9" y="359.9" class="st0" width="15.6" height="15.6"/>
	<rect x="73.9" y="312.9" class="st0" width="15.6" height="15.7"/>
	<rect x="73.9" y="297.3" class="st0" width="15.6" height="15.6"/>
	<rect x="73.9" y="281.7" class="st0" width="15.6" height="15.6"/>
	<rect x="58.2" y="453.8" class="st0" width="15.7" height="15.6"/>
	<rect x="58.2" y="422.5" class="st0" width="15.7" height="15.7"/>
	<rect x="58.2" y="406.8" class="st0" width="15.7" height="15.6"/>
	<rect x="58.2" y="391.2" class="st0" width="15.7" height="15.7"/>
	<rect x="58.2" y="375.5" class="st0" width="15.7" height="15.6"/>
	<rect x="42.6" y="422.5" class="st0" width="15.6" height="15.7"/>
	<rect x="42.6" y="406.8" class="st0" width="15.6" height="15.6"/>
	<rect x="42.6" y="391.2" class="st0" width="15.6" height="15.7"/>
</g>
</svg>
