<svg xmlns="http://www.w3.org/2000/svg" viewBox="0 0 437.03 403.43">
	<defs>
		<style>.a{fill:#4e594c;}</style>
	</defs>
	<title>heart_half</title>
	<rect class="a" x="403.43" y="168.09" width="33.6" height="33.64"/>
	<rect class="a" x="403.43" y="134.49" width="33.6" height="33.6"/>
	<rect class="a" x="403.43" y="100.85" width="33.6" height="33.64"/>
	<rect class="a" x="403.43" y="67.24" width="33.6" height="33.6"/>
	<rect class="a" x="369.79" y="201.73" width="33.64" height="33.6"/>
	<rect class="a" x="369.79" y="168.09" width="33.64" height="33.64"/>
	<rect class="a" x="369.79" y="33.64" width="33.64" height="33.6"/>
	<rect class="a" x="336.18" y="235.33" width="33.6" height="33.6"/>
	<rect class="a" x="336.18" y="201.73" width="33.6" height="33.6"/>
	<rect class="a" x="336.18" y="168.09" width="33.6" height="33.64"/>
	<rect class="a" x="336.18" width="33.6" height="33.64"/>
	<rect class="a" x="302.58" y="268.94" width="33.6" height="33.64"/>
	<rect class="a" x="302.58" y="235.33" width="33.6" height="33.6"/>
	<rect class="a" x="302.58" y="201.73" width="33.6" height="33.6"/>
	<rect class="a" x="302.58" y="168.09" width="33.6" height="33.64"/>
	<rect class="a" x="302.58" width="33.6" height="33.64"/>
	<rect class="a" x="268.94" y="302.58" width="33.64" height="33.6"/>
	<rect class="a" x="268.94" y="268.94" width="33.64" height="33.64"/>
	<rect class="a" x="268.94" y="235.33" width="33.64" height="33.6"/>
	<rect class="a" x="268.94" y="201.73" width="33.64" height="33.6"/>
	<rect class="a" x="268.94" y="168.09" width="33.64" height="33.64"/>
	<rect class="a" x="268.94" width="33.64" height="33.64"/>
	<rect class="a" x="235.33" y="336.18" width="33.6" height="33.6"/>
	<rect class="a" x="235.33" y="302.58" width="33.6" height="33.6"/>
	<rect class="a" x="235.33" y="268.94" width="33.6" height="33.64"/>
	<rect class="a" x="235.33" y="235.33" width="33.6" height="33.6"/>
	<rect class="a" x="235.33" y="201.73" width="33.6" height="33.6"/>
	<rect class="a" x="235.33" y="168.09" width="33.6" height="33.64"/>
	<rect class="a" x="235.33" y="33.64" width="33.6" height="33.6"/>
	<rect class="a" x="201.7" y="369.79" width="33.64" height="33.64"/>
	<rect class="a" x="201.7" y="336.18" width="33.64" height="33.6"/>
	<rect class="a" x="201.7" y="302.58" width="33.64" height="33.6"/>
	<rect class="a" x="201.7" y="268.94" width="33.64" height="33.64"/>
	<rect class="a" x="201.7" y="235.33" width="33.64" height="33.6"/>
	<rect class="a" x="201.7" y="201.73" width="33.64" height="33.6"/>
	<rect class="a" x="201.7" y="168.09" width="33.64" height="33.64"/>
	<rect class="a" x="201.7" y="67.24" width="33.64" height="33.6"/>
	<rect class="a" x="168.09" y="336.18" width="33.6" height="33.6"/>
	<rect class="a" x="168.09" y="302.58" width="33.6" height="33.6"/>
	<rect class="a" x="168.09" y="268.94" width="33.6" height="33.64"/>
	<rect class="a" x="168.09" y="235.33" width="33.6" height="33.6"/>
	<rect class="a" x="168.09" y="201.73" width="33.6" height="33.6"/>
	<rect class="a" x="168.09" y="168.09" width="33.6" height="33.64"/>
	<rect class="a" x="168.09" y="33.64" width="33.6" height="33.6"/>
	<rect class="a" x="134.49" y="302.58" width="33.6" height="33.6"/>
	<rect class="a" x="134.49" y="268.94" width="33.6" height="33.64"/>
	<rect class="a" x="134.49" y="235.33" width="33.6" height="33.6"/>
	<rect class="a" x="134.49" y="201.73" width="33.6" height="33.6"/>
	<rect class="a" x="134.49" y="168.09" width="33.6" height="33.64"/>
	<rect class="a" x="134.49" width="33.6" height="33.64"/>
	<rect class="a" x="100.85" y="268.94" width="33.64" height="33.64"/>
	<rect class="a" x="100.85" y="235.33" width="33.64" height="33.6"/>
	<rect class="a" x="100.85" y="201.73" width="33.64" height="33.6"/>
	<rect class="a" x="100.85" y="168.09" width="33.64" height="33.64"/>
	<rect class="a" x="100.85" width="33.64" height="33.64"/>
	<rect class="a" x="67.24" y="235.33" width="33.6" height="33.6"/>
	<rect class="a" x="67.24" y="201.73" width="33.6" height="33.6"/>
	<rect class="a" x="67.24" y="168.09" width="33.6" height="33.64"/>
	<rect class="a" x="67.24" width="33.6" height="33.64"/>
	<rect class="a" x="33.6" y="201.73" width="33.64" height="33.6"/>
	<rect class="a" x="33.6" y="168.09" width="33.64" height="33.64"/>
	<rect class="a" x="33.6" y="33.64" width="33.64" height="33.6"/>
	<rect class="a" y="168.09" width="33.6" height="33.64"/>
	<rect class="a" y="134.49" width="33.6" height="33.6"/>
	<rect class="a" y="100.85" width="33.6" height="33.64"/>
	<rect class="a" y="67.24" width="33.6" height="33.6"/>
</svg>