<?xml version="1.0" encoding="utf-8"?>
<!-- Generator: Adobe Illustrator 22.1.0, SVG Export Plug-In . SVG Version: 6.00 Build 0)  -->
<svg version="1.1" id="Layer_1" xmlns="http://www.w3.org/2000/svg" xmlns:xlink="http://www.w3.org/1999/xlink" x="0px" y="0px"
	 viewBox="0 0 500 500" style="enable-background:new 0 0 500 500;" xml:space="preserve">
<style type="text/css">
	.st0{fill:#73896E;}
</style>
<g>
	<rect x="444.6" y="396.9" class="st0" width="18.5" height="18.5"/>
	<rect x="444.6" y="378.4" class="st0" width="18.5" height="18.5"/>
	<rect x="444.6" y="359.8" class="st0" width="18.5" height="18.5"/>
	<rect x="444.6" y="322.8" class="st0" width="18.5" height="18.5"/>
	<rect x="444.6" y="304.3" class="st0" width="18.5" height="18.5"/>
	<rect x="444.6" y="285.8" class="st0" width="18.5" height="18.5"/>
	<rect x="426.1" y="396.9" class="st0" width="18.5" height="18.5"/>
	<rect x="426.1" y="359.8" class="st0" width="18.5" height="18.5"/>
	<rect x="426.1" y="341.3" class="st0" width="18.5" height="18.5"/>
	<rect x="426.1" y="322.8" class="st0" width="18.5" height="18.5"/>
	<rect x="426.1" y="285.8" class="st0" width="18.5" height="18.5"/>
	<rect x="426.1" y="174.6" class="st0" width="18.5" height="18.5"/>
	<rect x="426.1" y="156.1" class="st0" width="18.5" height="18.5"/>
	<rect x="426.1" y="137.6" class="st0" width="18.5" height="18.5"/>
	<rect x="426.1" y="119.1" class="st0" width="18.5" height="18.5"/>
	<rect x="426.1" y="100.6" class="st0" width="18.5" height="18.5"/>
	<rect x="426.1" y="82" class="st0" width="18.5" height="18.5"/>
	<rect x="407.5" y="415.4" class="st0" width="18.5" height="18.5"/>
	<rect x="407.5" y="396.9" class="st0" width="18.5" height="18.5"/>
	<rect x="407.5" y="378.4" class="st0" width="18.5" height="18.5"/>
	<rect x="407.5" y="359.8" class="st0" width="18.5" height="18.5"/>
	<rect x="407.5" y="341.3" class="st0" width="18.5" height="18.5"/>
	<rect x="407.5" y="322.8" class="st0" width="18.5" height="18.5"/>
	<rect x="407.5" y="304.3" class="st0" width="18.5" height="18.5"/>
	<rect x="407.5" y="285.8" class="st0" width="18.5" height="18.5"/>
	<rect x="407.5" y="267.2" class="st0" width="18.5" height="18.5"/>
	<rect x="407.5" y="248.7" class="st0" width="18.5" height="18.5"/>
	<rect x="407.5" y="230.2" class="st0" width="18.5" height="18.5"/>
	<rect x="407.5" y="211.7" class="st0" width="18.5" height="18.5"/>
	<rect x="407.5" y="174.6" class="st0" width="18.5" height="18.5"/>
	<rect x="407.5" y="156.1" class="st0" width="18.5" height="18.5"/>
	<rect x="407.5" y="119.1" class="st0" width="18.5" height="18.5"/>
	<rect x="407.5" y="100.6" class="st0" width="18.5" height="18.5"/>
	<rect x="407.5" y="82" class="st0" width="18.5" height="18.5"/>
	<rect x="407.5" y="63.5" class="st0" width="18.5" height="18.5"/>
	<rect x="389" y="433.9" class="st0" width="18.5" height="18.5"/>
	<rect x="389" y="415.4" class="st0" width="18.5" height="18.5"/>
	<rect x="389" y="396.9" class="st0" width="18.5" height="18.5"/>
	<rect x="389" y="378.4" class="st0" width="18.5" height="18.5"/>
	<rect x="389" y="359.8" class="st0" width="18.5" height="18.5"/>
	<rect x="389" y="248.7" class="st0" width="18.5" height="18.5"/>
	<rect x="389" y="211.7" class="st0" width="18.5" height="18.5"/>
	<rect x="389" y="193.2" class="st0" width="18.5" height="18.5"/>
	<rect x="389" y="174.6" class="st0" width="18.5" height="18.5"/>
	<rect x="389" y="137.6" class="st0" width="18.5" height="18.5"/>
	<rect x="389" y="119.1" class="st0" width="18.5" height="18.5"/>
	<rect x="389" y="100.6" class="st0" width="18.5" height="18.5"/>
	<rect x="389" y="82" class="st0" width="18.5" height="18.5"/>
	<rect x="389" y="63.5" class="st0" width="18.5" height="18.5"/>
	<rect x="389" y="45" class="st0" width="18.5" height="18.5"/>
	<rect x="370.5" y="433.9" class="st0" width="18.5" height="18.5"/>
	<rect x="370.5" y="415.4" class="st0" width="18.5" height="18.5"/>
	<rect x="370.5" y="359.8" class="st0" width="18.5" height="18.5"/>
	<rect x="370.5" y="341.3" class="st0" width="18.5" height="18.5"/>
	<rect x="370.5" y="322.8" class="st0" width="18.5" height="18.5"/>
	<rect x="370.5" y="304.3" class="st0" width="18.5" height="18.5"/>
	<rect x="370.5" y="285.8" class="st0" width="18.5" height="18.5"/>
	<rect x="370.5" y="267.2" class="st0" width="18.5" height="18.5"/>
	<rect x="370.5" y="248.7" class="st0" width="18.5" height="18.5"/>
	<rect x="370.5" y="230.2" class="st0" width="18.5" height="18.5"/>
	<rect x="370.5" y="211.7" class="st0" width="18.5" height="18.5"/>
	<rect x="370.5" y="193.2" class="st0" width="18.5" height="18.5"/>
	<rect x="370.5" y="174.6" class="st0" width="18.5" height="18.5"/>
	<rect x="370.5" y="137.6" class="st0" width="18.5" height="18.5"/>
	<rect x="370.5" y="119.1" class="st0" width="18.5" height="18.5"/>
	<rect x="370.5" y="100.6" class="st0" width="18.5" height="18.5"/>
	<rect x="370.5" y="82" class="st0" width="18.5" height="18.5"/>
	<rect x="370.5" y="45" class="st0" width="18.5" height="18.5"/>
	<rect x="352" y="433.9" class="st0" width="18.5" height="18.5"/>
	<rect x="352" y="396.9" class="st0" width="18.5" height="18.5"/>
	<rect x="352" y="359.8" class="st0" width="18.5" height="18.5"/>
	<rect x="352" y="341.3" class="st0" width="18.5" height="18.5"/>
	<rect x="352" y="322.8" class="st0" width="18.5" height="18.5"/>
	<rect x="352" y="304.3" class="st0" width="18.5" height="18.5"/>
	<rect x="352" y="285.8" class="st0" width="18.5" height="18.5"/>
	<rect x="352" y="267.2" class="st0" width="18.5" height="18.5"/>
	<rect x="352" y="248.7" class="st0" width="18.5" height="18.5"/>
	<rect x="352" y="230.2" class="st0" width="18.5" height="18.5"/>
	<rect x="352" y="211.7" class="st0" width="18.5" height="18.5"/>
	<rect x="352" y="193.2" class="st0" width="18.5" height="18.5"/>
	<rect x="352" y="156.1" class="st0" width="18.5" height="18.5"/>
	<rect x="352" y="137.6" class="st0" width="18.5" height="18.5"/>
	<rect x="352" y="119.1" class="st0" width="18.5" height="18.5"/>
	<rect x="352" y="100.6" class="st0" width="18.5" height="18.5"/>
	<rect x="352" y="82" class="st0" width="18.5" height="18.5"/>
	<rect x="352" y="45" class="st0" width="18.5" height="18.5"/>
	<rect x="333.5" y="433.9" class="st0" width="18.5" height="18.5"/>
	<rect x="333.5" y="396.9" class="st0" width="18.5" height="18.5"/>
	<rect x="333.5" y="359.8" class="st0" width="18.5" height="18.5"/>
	<rect x="333.5" y="341.3" class="st0" width="18.5" height="18.5"/>
	<rect x="333.5" y="304.3" class="st0" width="18.5" height="18.5"/>
	<rect x="333.5" y="285.8" class="st0" width="18.5" height="18.5"/>
	<rect x="333.5" y="267.2" class="st0" width="18.5" height="18.5"/>
	<rect x="333.5" y="156.1" class="st0" width="18.5" height="18.5"/>
	<rect x="333.5" y="137.6" class="st0" width="18.5" height="18.5"/>
	<rect x="333.5" y="119.1" class="st0" width="18.5" height="18.5"/>
	<rect x="333.5" y="100.6" class="st0" width="18.5" height="18.5"/>
	<rect x="333.5" y="82" class="st0" width="18.5" height="18.5"/>
	<rect x="333.5" y="45" class="st0" width="18.5" height="18.5"/>
	<rect x="314.9" y="433.9" class="st0" width="18.5" height="18.5"/>
	<rect x="314.9" y="396.9" class="st0" width="18.5" height="18.5"/>
	<rect x="314.9" y="359.8" class="st0" width="18.5" height="18.5"/>
	<rect x="314.9" y="341.3" class="st0" width="18.5" height="18.5"/>
	<rect x="314.9" y="285.8" class="st0" width="18.5" height="18.5"/>
	<rect x="314.9" y="230.2" class="st0" width="18.5" height="18.5"/>
	<rect x="314.9" y="193.2" class="st0" width="18.5" height="18.5"/>
	<rect x="314.9" y="156.1" class="st0" width="18.5" height="18.5"/>
	<rect x="314.9" y="137.6" class="st0" width="18.5" height="18.5"/>
	<rect x="314.9" y="119.1" class="st0" width="18.5" height="18.5"/>
	<rect x="314.9" y="100.6" class="st0" width="18.5" height="18.5"/>
	<rect x="314.9" y="82" class="st0" width="18.5" height="18.5"/>
	<rect x="314.9" y="45" class="st0" width="18.5" height="18.5"/>
	<rect x="296.4" y="433.9" class="st0" width="18.5" height="18.5"/>
	<rect x="296.4" y="415.4" class="st0" width="18.5" height="18.5"/>
	<rect x="296.4" y="359.8" class="st0" width="18.5" height="18.5"/>
	<rect x="296.4" y="341.3" class="st0" width="18.5" height="18.5"/>
	<rect x="296.4" y="304.3" class="st0" width="18.5" height="18.5"/>
	<rect x="296.4" y="285.8" class="st0" width="18.5" height="18.5"/>
	<rect x="296.4" y="267.2" class="st0" width="18.5" height="18.5"/>
	<rect x="296.4" y="156.1" class="st0" width="18.5" height="18.5"/>
	<rect x="296.4" y="137.6" class="st0" width="18.5" height="18.5"/>
	<rect x="296.4" y="100.6" class="st0" width="18.5" height="18.5"/>
	<rect x="296.4" y="82" class="st0" width="18.5" height="18.5"/>
	<rect x="296.4" y="45" class="st0" width="18.5" height="18.5"/>
	<rect x="277.9" y="433.9" class="st0" width="18.5" height="18.5"/>
	<rect x="277.9" y="415.4" class="st0" width="18.5" height="18.5"/>
	<rect x="277.9" y="396.9" class="st0" width="18.5" height="18.5"/>
	<rect x="277.9" y="378.4" class="st0" width="18.5" height="18.5"/>
	<rect x="277.9" y="359.8" class="st0" width="18.5" height="18.5"/>
	<rect x="277.9" y="341.3" class="st0" width="18.5" height="18.5"/>
	<rect x="277.9" y="322.8" class="st0" width="18.5" height="18.5"/>
	<rect x="277.9" y="304.3" class="st0" width="18.5" height="18.5"/>
	<rect x="277.9" y="285.8" class="st0" width="18.5" height="18.5"/>
	<rect x="277.9" y="267.2" class="st0" width="18.5" height="18.5"/>
	<rect x="277.9" y="248.7" class="st0" width="18.5" height="18.5"/>
	<rect x="277.9" y="230.2" class="st0" width="18.5" height="18.5"/>
	<rect x="277.9" y="211.7" class="st0" width="18.5" height="18.5"/>
	<rect x="277.9" y="193.2" class="st0" width="18.5" height="18.5"/>
	<rect x="277.9" y="156.1" class="st0" width="18.5" height="18.5"/>
	<rect x="277.9" y="137.6" class="st0" width="18.5" height="18.5"/>
	<rect x="277.9" y="119.1" class="st0" width="18.5" height="18.5"/>
	<rect x="277.9" y="100.6" class="st0" width="18.5" height="18.5"/>
	<rect x="277.9" y="82" class="st0" width="18.5" height="18.5"/>
	<rect x="277.9" y="45" class="st0" width="18.5" height="18.5"/>
	<rect x="259.4" y="433.9" class="st0" width="18.5" height="18.5"/>
	<rect x="259.4" y="415.4" class="st0" width="18.5" height="18.5"/>
	<rect x="259.4" y="396.9" class="st0" width="18.5" height="18.5"/>
	<rect x="259.4" y="378.4" class="st0" width="18.5" height="18.5"/>
	<rect x="259.4" y="359.8" class="st0" width="18.5" height="18.5"/>
	<rect x="259.4" y="341.3" class="st0" width="18.5" height="18.5"/>
	<rect x="259.4" y="322.8" class="st0" width="18.5" height="18.5"/>
	<rect x="259.4" y="304.3" class="st0" width="18.5" height="18.5"/>
	<rect x="259.4" y="285.8" class="st0" width="18.5" height="18.5"/>
	<rect x="259.4" y="267.2" class="st0" width="18.5" height="18.5"/>
	<rect x="259.4" y="248.7" class="st0" width="18.5" height="18.5"/>
	<rect x="259.4" y="230.2" class="st0" width="18.5" height="18.5"/>
	<rect x="259.4" y="211.7" class="st0" width="18.5" height="18.5"/>
	<rect x="259.4" y="193.2" class="st0" width="18.5" height="18.5"/>
	<rect x="259.4" y="174.6" class="st0" width="18.5" height="18.5"/>
	<rect x="259.4" y="156.1" class="st0" width="18.5" height="18.5"/>
	<rect x="259.4" y="137.6" class="st0" width="18.5" height="18.5"/>
	<rect x="259.4" y="119.1" class="st0" width="18.5" height="18.5"/>
	<rect x="259.4" y="100.6" class="st0" width="18.5" height="18.5"/>
	<rect x="259.4" y="82" class="st0" width="18.5" height="18.5"/>
	<rect x="259.4" y="45" class="st0" width="18.5" height="18.5"/>
	<rect x="240.9" y="433.9" class="st0" width="18.5" height="18.5"/>
	<rect x="240.9" y="415.4" class="st0" width="18.5" height="18.5"/>
	<rect x="240.9" y="396.9" class="st0" width="18.5" height="18.5"/>
	<rect x="240.9" y="378.4" class="st0" width="18.5" height="18.5"/>
	<rect x="240.9" y="359.8" class="st0" width="18.5" height="18.5"/>
	<rect x="240.9" y="341.3" class="st0" width="18.5" height="18.5"/>
	<rect x="240.9" y="322.8" class="st0" width="18.5" height="18.5"/>
	<rect x="240.9" y="304.3" class="st0" width="18.5" height="18.5"/>
	<rect x="240.9" y="285.8" class="st0" width="18.5" height="18.5"/>
	<rect x="240.9" y="267.2" class="st0" width="18.5" height="18.5"/>
	<rect x="240.9" y="248.7" class="st0" width="18.5" height="18.5"/>
	<rect x="240.9" y="230.2" class="st0" width="18.5" height="18.5"/>
	<rect x="240.9" y="211.7" class="st0" width="18.5" height="18.5"/>
	<rect x="240.9" y="193.2" class="st0" width="18.5" height="18.5"/>
	<rect x="240.9" y="156.1" class="st0" width="18.5" height="18.5"/>
	<rect x="240.9" y="137.6" class="st0" width="18.5" height="18.5"/>
	<rect x="240.9" y="119.1" class="st0" width="18.5" height="18.5"/>
	<rect x="240.9" y="100.6" class="st0" width="18.5" height="18.5"/>
	<rect x="240.9" y="82" class="st0" width="18.5" height="18.5"/>
	<rect x="240.9" y="45" class="st0" width="18.5" height="18.5"/>
	<rect x="222.3" y="433.9" class="st0" width="18.5" height="18.5"/>
	<rect x="222.3" y="415.4" class="st0" width="18.5" height="18.5"/>
	<rect x="222.3" y="359.8" class="st0" width="18.5" height="18.5"/>
	<rect x="222.3" y="341.3" class="st0" width="18.5" height="18.5"/>
	<rect x="222.3" y="304.3" class="st0" width="18.5" height="18.5"/>
	<rect x="222.3" y="285.8" class="st0" width="18.5" height="18.5"/>
	<rect x="222.3" y="267.2" class="st0" width="18.5" height="18.5"/>
	<rect x="222.3" y="156.1" class="st0" width="18.5" height="18.5"/>
	<rect x="222.3" y="137.6" class="st0" width="18.5" height="18.5"/>
	<rect x="222.3" y="119.1" class="st0" width="18.5" height="18.5"/>
	<rect x="222.3" y="100.6" class="st0" width="18.5" height="18.5"/>
	<rect x="222.3" y="82" class="st0" width="18.5" height="18.5"/>
	<rect x="222.3" y="45" class="st0" width="18.5" height="18.5"/>
	<rect x="203.8" y="433.9" class="st0" width="18.5" height="18.5"/>
	<rect x="203.8" y="396.9" class="st0" width="18.5" height="18.5"/>
	<rect x="203.8" y="359.8" class="st0" width="18.5" height="18.5"/>
	<rect x="203.8" y="341.3" class="st0" width="18.5" height="18.5"/>
	<rect x="203.8" y="285.8" class="st0" width="18.5" height="18.5"/>
	<rect x="203.8" y="230.2" class="st0" width="18.5" height="18.5"/>
	<rect x="203.8" y="193.2" class="st0" width="18.5" height="18.5"/>
	<rect x="203.8" y="156.1" class="st0" width="18.5" height="18.5"/>
	<rect x="203.8" y="137.6" class="st0" width="18.5" height="18.5"/>
	<rect x="203.8" y="119.1" class="st0" width="18.5" height="18.5"/>
	<rect x="203.8" y="100.6" class="st0" width="18.5" height="18.5"/>
	<rect x="203.8" y="82" class="st0" width="18.5" height="18.5"/>
	<rect x="203.8" y="45" class="st0" width="18.5" height="18.5"/>
	<rect x="185.3" y="433.9" class="st0" width="18.5" height="18.5"/>
	<rect x="185.3" y="396.9" class="st0" width="18.5" height="18.5"/>
	<rect x="185.3" y="359.8" class="st0" width="18.5" height="18.5"/>
	<rect x="185.3" y="341.3" class="st0" width="18.5" height="18.5"/>
	<rect x="185.3" y="304.3" class="st0" width="18.5" height="18.5"/>
	<rect x="185.3" y="285.8" class="st0" width="18.5" height="18.5"/>
	<rect x="185.3" y="267.2" class="st0" width="18.5" height="18.5"/>
	<rect x="185.3" y="156.1" class="st0" width="18.5" height="18.5"/>
	<rect x="185.3" y="137.6" class="st0" width="18.5" height="18.5"/>
	<rect x="185.3" y="119.1" class="st0" width="18.5" height="18.5"/>
	<rect x="185.3" y="100.6" class="st0" width="18.5" height="18.5"/>
	<rect x="185.3" y="82" class="st0" width="18.5" height="18.5"/>
	<rect x="185.3" y="45" class="st0" width="18.5" height="18.5"/>
	<rect x="166.8" y="433.9" class="st0" width="18.5" height="18.5"/>
	<rect x="166.8" y="396.9" class="st0" width="18.5" height="18.5"/>
	<rect x="166.8" y="359.8" class="st0" width="18.5" height="18.5"/>
	<rect x="166.8" y="341.3" class="st0" width="18.5" height="18.5"/>
	<rect x="166.8" y="322.8" class="st0" width="18.5" height="18.5"/>
	<rect x="166.8" y="304.3" class="st0" width="18.5" height="18.5"/>
	<rect x="166.8" y="285.8" class="st0" width="18.5" height="18.5"/>
	<rect x="166.8" y="267.2" class="st0" width="18.5" height="18.5"/>
	<rect x="166.8" y="248.7" class="st0" width="18.5" height="18.5"/>
	<rect x="166.8" y="230.2" class="st0" width="18.5" height="18.5"/>
	<rect x="166.8" y="211.7" class="st0" width="18.5" height="18.5"/>
	<rect x="166.8" y="193.2" class="st0" width="18.5" height="18.5"/>
	<rect x="166.8" y="156.1" class="st0" width="18.5" height="18.5"/>
	<rect x="166.8" y="137.6" class="st0" width="18.5" height="18.5"/>
	<rect x="166.8" y="119.1" class="st0" width="18.5" height="18.5"/>
	<rect x="166.8" y="82" class="st0" width="18.5" height="18.5"/>
	<rect x="166.8" y="45" class="st0" width="18.5" height="18.5"/>
	<rect x="148.3" y="433.9" class="st0" width="18.5" height="18.5"/>
	<rect x="148.3" y="415.4" class="st0" width="18.5" height="18.5"/>
	<rect x="148.3" y="359.8" class="st0" width="18.5" height="18.5"/>
	<rect x="148.3" y="341.3" class="st0" width="18.5" height="18.5"/>
	<rect x="148.3" y="322.8" class="st0" width="18.5" height="18.5"/>
	<rect x="148.3" y="304.3" class="st0" width="18.5" height="18.5"/>
	<rect x="148.3" y="285.8" class="st0" width="18.5" height="18.5"/>
	<rect x="148.3" y="267.2" class="st0" width="18.5" height="18.5"/>
	<rect x="148.3" y="248.7" class="st0" width="18.5" height="18.5"/>
	<rect x="148.3" y="230.2" class="st0" width="18.5" height="18.5"/>
	<rect x="148.3" y="211.7" class="st0" width="18.5" height="18.5"/>
	<rect x="148.3" y="193.2" class="st0" width="18.5" height="18.5"/>
	<rect x="148.3" y="174.6" class="st0" width="18.5" height="18.5"/>
	<rect x="148.3" y="137.6" class="st0" width="18.5" height="18.5"/>
	<rect x="148.3" y="119.1" class="st0" width="18.5" height="18.5"/>
	<rect x="148.3" y="100.6" class="st0" width="18.5" height="18.5"/>
	<rect x="148.3" y="82" class="st0" width="18.5" height="18.5"/>
	<rect x="148.3" y="45" class="st0" width="18.5" height="18.5"/>
	<rect x="129.7" y="433.9" class="st0" width="18.5" height="18.5"/>
	<rect x="129.7" y="415.4" class="st0" width="18.5" height="18.5"/>
	<rect x="129.7" y="396.9" class="st0" width="18.5" height="18.5"/>
	<rect x="129.7" y="378.4" class="st0" width="18.5" height="18.5"/>
	<rect x="129.7" y="359.8" class="st0" width="18.5" height="18.5"/>
	<rect x="129.7" y="267.2" class="st0" width="18.5" height="18.5"/>
	<rect x="129.7" y="230.2" class="st0" width="18.5" height="18.5"/>
	<rect x="129.7" y="211.7" class="st0" width="18.5" height="18.5"/>
	<rect x="129.7" y="193.2" class="st0" width="18.5" height="18.5"/>
	<rect x="129.7" y="174.6" class="st0" width="18.5" height="18.5"/>
	<rect x="129.7" y="137.6" class="st0" width="18.5" height="18.5"/>
	<rect x="129.7" y="119.1" class="st0" width="18.5" height="18.5"/>
	<rect x="129.7" y="100.6" class="st0" width="18.5" height="18.5"/>
	<rect x="129.7" y="82" class="st0" width="18.5" height="18.5"/>
	<rect x="129.7" y="63.5" class="st0" width="18.5" height="18.5"/>
	<rect x="129.7" y="45" class="st0" width="18.5" height="18.5"/>
	<rect x="111.2" y="415.4" class="st0" width="18.5" height="18.5"/>
	<rect x="111.2" y="396.9" class="st0" width="18.5" height="18.5"/>
	<rect x="111.2" y="378.4" class="st0" width="18.5" height="18.5"/>
	<rect x="111.2" y="359.8" class="st0" width="18.5" height="18.5"/>
	<rect x="111.2" y="341.3" class="st0" width="18.5" height="18.5"/>
	<rect x="111.2" y="322.8" class="st0" width="18.5" height="18.5"/>
	<rect x="111.2" y="304.3" class="st0" width="18.5" height="18.5"/>
	<rect x="111.2" y="285.8" class="st0" width="18.5" height="18.5"/>
	<rect x="111.2" y="267.2" class="st0" width="18.5" height="18.5"/>
	<rect x="111.2" y="248.7" class="st0" width="18.5" height="18.5"/>
	<rect x="111.2" y="230.2" class="st0" width="18.5" height="18.5"/>
	<rect x="111.2" y="211.7" class="st0" width="18.5" height="18.5"/>
	<rect x="111.2" y="174.6" class="st0" width="18.5" height="18.5"/>
	<rect x="111.2" y="156.1" class="st0" width="18.5" height="18.5"/>
	<rect x="111.2" y="119.1" class="st0" width="18.5" height="18.5"/>
	<rect x="111.2" y="100.6" class="st0" width="18.5" height="18.5"/>
	<rect x="111.2" y="82" class="st0" width="18.5" height="18.5"/>
	<rect x="111.2" y="63.5" class="st0" width="18.5" height="18.5"/>
	<rect x="92.7" y="415.4" class="st0" width="18.5" height="18.5"/>
	<rect x="92.7" y="285.8" class="st0" width="18.5" height="18.5"/>
	<rect x="92.7" y="267.2" class="st0" width="18.5" height="18.5"/>
	<rect x="92.7" y="174.6" class="st0" width="18.5" height="18.5"/>
	<rect x="92.7" y="156.1" class="st0" width="18.5" height="18.5"/>
	<rect x="92.7" y="137.6" class="st0" width="18.5" height="18.5"/>
	<rect x="92.7" y="119.1" class="st0" width="18.5" height="18.5"/>
	<rect x="92.7" y="100.6" class="st0" width="18.5" height="18.5"/>
	<rect x="92.7" y="82" class="st0" width="18.5" height="18.5"/>
	<rect x="74.2" y="415.4" class="st0" width="18.5" height="18.5"/>
	<rect x="74.2" y="396.9" class="st0" width="18.5" height="18.5"/>
	<rect x="74.2" y="378.4" class="st0" width="18.5" height="18.5"/>
	<rect x="74.2" y="359.8" class="st0" width="18.5" height="18.5"/>
	<rect x="74.2" y="341.3" class="st0" width="18.5" height="18.5"/>
	<rect x="74.2" y="322.8" class="st0" width="18.5" height="18.5"/>
	<rect x="74.2" y="304.3" class="st0" width="18.5" height="18.5"/>
	<rect x="74.2" y="285.8" class="st0" width="18.5" height="18.5"/>
	<rect x="74.2" y="267.2" class="st0" width="18.5" height="18.5"/>
	<rect x="74.2" y="248.7" class="st0" width="18.5" height="18.5"/>
	<rect x="55.7" y="415.4" class="st0" width="18.5" height="18.5"/>
	<rect x="55.7" y="396.9" class="st0" width="18.5" height="18.5"/>
	<rect x="55.7" y="378.4" class="st0" width="18.5" height="18.5"/>
	<rect x="55.7" y="359.8" class="st0" width="18.5" height="18.5"/>
	<rect x="55.7" y="341.3" class="st0" width="18.5" height="18.5"/>
	<rect x="55.7" y="322.8" class="st0" width="18.5" height="18.5"/>
	<rect x="55.7" y="285.8" class="st0" width="18.5" height="18.5"/>
	<rect x="55.7" y="267.2" class="st0" width="18.5" height="18.5"/>
	<rect x="37.2" y="341.3" class="st0" width="18.5" height="18.5"/>
	<rect x="37.2" y="322.8" class="st0" width="18.5" height="18.5"/>
	<rect x="37.2" y="304.3" class="st0" width="18.5" height="18.5"/>
	<rect x="37.2" y="285.8" class="st0" width="18.5" height="18.5"/>
</g>
</svg>
