<svg xmlns="http://www.w3.org/2000/svg" viewBox="0 0 460.68 400.06">
	<defs>
		<style>.a{fill:#73896e;}</style>
	</defs>
	<title>local_locations</title>
	<rect class="a" x="448.55" y="133.35" width="12.13" height="12.13"/>
	<rect class="a" x="448.55" y="121.23" width="12.13" height="12.12"/>
	<rect class="a" x="448.55" y="109.1" width="12.13" height="12.13"/>
	<rect class="a" x="448.55" y="96.98" width="12.13" height="12.12"/>
	<rect class="a" x="448.55" y="84.86" width="12.13" height="12.12"/>
	<rect class="a" x="448.55" y="72.73" width="12.13" height="12.13"/>
	<rect class="a" x="436.43" y="157.6" width="12.12" height="12.11"/>
	<rect class="a" x="436.43" y="145.48" width="12.12" height="12.12"/>
	<rect class="a" x="436.43" y="60.61" width="12.12" height="12.12"/>
	<rect class="a" x="436.43" y="48.49" width="12.12" height="12.12"/>
	<rect class="a" x="424.3" y="169.71" width="12.13" height="12.13"/>
	<rect class="a" x="424.3" y="36.36" width="12.13" height="12.13"/>
	<rect class="a" x="412.18" y="181.84" width="12.12" height="12.12"/>
	<rect class="a" x="412.18" y="24.25" width="12.12" height="12.11"/>
	<rect class="a" x="387.93" y="133.35" width="12.13" height="12.13"/>
	<rect class="a" x="387.93" y="121.23" width="12.13" height="12.12"/>
	<rect class="a" x="387.93" y="109.1" width="12.13" height="12.13"/>
	<rect class="a" x="387.93" y="96.98" width="12.13" height="12.12"/>
	<rect class="a" x="387.93" y="84.86" width="12.13" height="12.12"/>
	<rect class="a" x="387.93" y="72.73" width="12.13" height="12.13"/>
	<rect class="a" x="375.81" y="169.71" width="12.12" height="12.13"/>
	<rect class="a" x="375.81" y="157.6" width="12.12" height="12.11"/>
	<rect class="a" x="375.81" y="145.48" width="12.12" height="12.12"/>
	<rect class="a" x="375.81" y="60.61" width="12.12" height="12.12"/>
	<rect class="a" x="375.81" y="48.49" width="12.12" height="12.12"/>
	<rect class="a" x="375.81" y="36.36" width="12.12" height="12.13"/>
	<rect class="a" x="363.7" y="181.84" width="12.11" height="12.12"/>
	<rect class="a" x="363.7" y="24.25" width="12.11" height="12.11"/>
	<rect class="a" x="351.57" y="193.96" width="12.13" height="12.13"/>
	<rect class="a" x="351.57" y="12.11" width="12.13" height="12.14"/>
	<rect class="a" x="339.45" y="206.09" width="12.12" height="12.12"/>
	<rect class="a" x="339.45" y="121.23" width="12.12" height="12.12"/>
	<rect class="a" x="339.45" y="109.1" width="12.12" height="12.13"/>
	<rect class="a" x="339.45" y="96.98" width="12.12" height="12.12"/>
	<rect class="a" x="339.45" y="84.86" width="12.12" height="12.12"/>
	<rect class="a" x="339.45" width="12.12" height="12.11"/>
	<rect class="a" x="327.32" y="145.48" width="12.13" height="12.12"/>
	<rect class="a" x="327.32" y="133.35" width="12.13" height="12.13"/>
	<rect class="a" x="327.32" y="121.23" width="12.13" height="12.12"/>
	<rect class="a" x="327.32" y="109.1" width="12.13" height="12.13"/>
	<rect class="a" x="327.32" y="96.98" width="12.13" height="12.12"/>
	<rect class="a" x="327.32" y="84.86" width="12.13" height="12.12"/>
	<rect class="a" x="327.32" y="72.73" width="12.13" height="12.13"/>
	<rect class="a" x="327.32" y="60.61" width="12.13" height="12.12"/>
	<rect class="a" x="315.2" y="169.71" width="12.12" height="12.13"/>
	<rect class="a" x="315.2" y="157.6" width="12.12" height="12.11"/>
	<rect class="a" x="315.2" y="145.48" width="12.12" height="12.12"/>
	<rect class="a" x="315.2" y="133.35" width="12.12" height="12.13"/>
	<rect class="a" x="315.2" y="121.23" width="12.12" height="12.12"/>
	<rect class="a" x="315.2" y="109.1" width="12.12" height="12.13"/>
	<rect class="a" x="315.2" y="96.98" width="12.12" height="12.12"/>
	<rect class="a" x="315.2" y="84.86" width="12.12" height="12.12"/>
	<rect class="a" x="315.2" y="72.73" width="12.12" height="12.13"/>
	<rect class="a" x="315.2" y="48.49" width="12.12" height="12.12"/>
	<rect class="a" x="315.2" y="36.36" width="12.12" height="12.13"/>
	<rect class="a" x="303.08" y="181.84" width="12.12" height="12.12"/>
	<rect class="a" x="303.08" y="169.71" width="12.12" height="12.13"/>
	<rect class="a" x="303.08" y="157.6" width="12.12" height="12.11"/>
	<rect class="a" x="303.08" y="145.48" width="12.12" height="12.12"/>
	<rect class="a" x="303.08" y="133.35" width="12.12" height="12.13"/>
	<rect class="a" x="303.08" y="121.23" width="12.12" height="12.12"/>
	<rect class="a" x="303.08" y="109.1" width="12.12" height="12.13"/>
	<rect class="a" x="303.08" y="96.98" width="12.12" height="12.12"/>
	<rect class="a" x="303.08" y="84.86" width="12.12" height="12.12"/>
	<rect class="a" x="303.08" y="72.73" width="12.12" height="12.13"/>
	<rect class="a" x="303.08" y="36.36" width="12.12" height="12.13"/>
	<rect class="a" x="303.08" y="24.25" width="12.12" height="12.11"/>
	<rect class="a" x="290.95" y="193.96" width="12.13" height="12.13"/>
	<rect class="a" x="290.95" y="181.84" width="12.13" height="12.12"/>
	<rect class="a" x="290.95" y="169.71" width="12.13" height="12.13"/>
	<rect class="a" x="290.95" y="157.6" width="12.13" height="12.11"/>
	<rect class="a" x="290.95" y="145.48" width="12.13" height="12.12"/>
	<rect class="a" x="290.95" y="133.35" width="12.13" height="12.13"/>
	<rect class="a" x="290.95" y="121.23" width="12.13" height="12.12"/>
	<rect class="a" x="290.95" y="109.1" width="12.13" height="12.13"/>
	<rect class="a" x="290.95" y="96.98" width="12.13" height="12.12"/>
	<rect class="a" x="290.95" y="84.86" width="12.13" height="12.12"/>
	<rect class="a" x="290.95" y="72.73" width="12.13" height="12.13"/>
	<rect class="a" x="290.95" y="60.61" width="12.13" height="12.12"/>
	<rect class="a" x="290.95" y="24.25" width="12.13" height="12.11"/>
	<rect class="a" x="290.95" y="12.11" width="12.13" height="12.14"/>
	<rect class="a" x="278.83" y="193.96" width="12.12" height="12.13"/>
	<rect class="a" x="278.83" y="181.84" width="12.12" height="12.12"/>
	<rect class="a" x="278.83" y="169.71" width="12.12" height="12.13"/>
	<rect class="a" x="278.83" y="157.6" width="12.12" height="12.11"/>
	<rect class="a" x="278.83" y="145.48" width="12.12" height="12.12"/>
	<rect class="a" x="278.83" y="133.35" width="12.12" height="12.13"/>
	<rect class="a" x="278.83" y="121.23" width="12.12" height="12.12"/>
	<rect class="a" x="278.83" y="109.1" width="12.12" height="12.13"/>
	<rect class="a" x="278.83" y="96.98" width="12.12" height="12.12"/>
	<rect class="a" x="278.83" y="84.86" width="12.12" height="12.12"/>
	<rect class="a" x="278.83" y="72.73" width="12.12" height="12.13"/>
	<rect class="a" x="278.83" y="60.61" width="12.12" height="12.12"/>
	<rect class="a" x="278.83" y="48.49" width="12.12" height="12.12"/>
	<rect class="a" x="278.83" y="24.25" width="12.12" height="12.11"/>
	<rect class="a" x="278.83" y="12.11" width="12.12" height="12.14"/>
	<rect class="a" x="266.7" y="206.09" width="12.13" height="12.12"/>
	<rect class="a" x="266.7" y="193.96" width="12.13" height="12.13"/>
	<rect class="a" x="266.7" y="181.84" width="12.13" height="12.12"/>
	<rect class="a" x="266.7" y="169.71" width="12.13" height="12.13"/>
	<rect class="a" x="266.7" y="157.6" width="12.13" height="12.11"/>
	<rect class="a" x="266.7" y="145.48" width="12.13" height="12.12"/>
	<rect class="a" x="266.7" y="133.35" width="12.13" height="12.13"/>
	<rect class="a" x="266.7" y="121.23" width="12.13" height="12.12"/>
	<rect class="a" x="266.7" y="109.1" width="12.13" height="12.13"/>
	<rect class="a" x="266.7" y="96.98" width="12.13" height="12.12"/>
	<rect class="a" x="266.7" y="84.86" width="12.13" height="12.12"/>
	<rect class="a" x="266.7" y="72.73" width="12.13" height="12.13"/>
	<rect class="a" x="266.7" y="60.61" width="12.13" height="12.12"/>
	<rect class="a" x="266.7" y="48.49" width="12.13" height="12.12"/>
	<rect class="a" x="266.7" y="36.36" width="12.13" height="12.13"/>
	<rect class="a" x="266.7" y="12.11" width="12.13" height="12.14"/>
	<rect class="a" x="266.7" width="12.13" height="12.11"/>
	<rect class="a" x="254.58" y="206.09" width="12.12" height="12.12"/>
	<rect class="a" x="254.58" y="193.96" width="12.12" height="12.13"/>
	<rect class="a" x="254.58" y="181.84" width="12.12" height="12.12"/>
	<rect class="a" x="254.58" y="169.71" width="12.12" height="12.13"/>
	<rect class="a" x="254.58" y="157.6" width="12.12" height="12.11"/>
	<rect class="a" x="254.58" y="145.48" width="12.12" height="12.12"/>
	<rect class="a" x="254.58" y="133.35" width="12.12" height="12.13"/>
	<rect class="a" x="254.58" y="121.23" width="12.12" height="12.12"/>
	<rect class="a" x="254.58" y="109.1" width="12.12" height="12.13"/>
	<rect class="a" x="254.58" y="96.98" width="12.12" height="12.12"/>
	<rect class="a" x="254.58" y="84.86" width="12.12" height="12.12"/>
	<rect class="a" x="254.58" y="72.73" width="12.12" height="12.13"/>
	<rect class="a" x="254.58" y="60.61" width="12.12" height="12.12"/>
	<rect class="a" x="254.58" y="48.49" width="12.12" height="12.12"/>
	<rect class="a" x="254.58" y="36.36" width="12.12" height="12.13"/>
	<rect class="a" x="254.58" width="12.12" height="12.11"/>
	<rect class="a" x="242.46" y="387.94" width="12.12" height="12.12"/>
	<rect class="a" x="242.46" y="375.81" width="12.12" height="12.13"/>
	<rect class="a" x="242.46" y="363.69" width="12.12" height="12.12"/>
	<rect class="a" x="242.46" y="351.56" width="12.12" height="12.13"/>
	<rect class="a" x="242.46" y="339.44" width="12.12" height="12.12"/>
	<rect class="a" x="242.46" y="327.33" width="12.12" height="12.11"/>
	<rect class="a" x="242.46" y="315.19" width="12.12" height="12.14"/>
	<rect class="a" x="242.46" y="303.08" width="12.12" height="12.11"/>
	<rect class="a" x="242.46" y="290.95" width="12.12" height="12.13"/>
	<rect class="a" x="242.46" y="278.83" width="12.12" height="12.12"/>
	<rect class="a" x="242.46" y="266.71" width="12.12" height="12.12"/>
	<rect class="a" x="242.46" y="254.58" width="12.12" height="12.13"/>
	<rect class="a" x="242.46" y="242.46" width="12.12" height="12.12"/>
	<rect class="a" x="242.46" y="230.33" width="12.12" height="12.13"/>
	<rect class="a" x="242.46" y="218.21" width="12.12" height="12.12"/>
	<rect class="a" x="242.46" y="206.09" width="12.12" height="12.12"/>
	<rect class="a" x="242.46" y="193.96" width="12.12" height="12.13"/>
	<rect class="a" x="242.46" y="181.84" width="12.12" height="12.12"/>
	<rect class="a" x="242.46" y="169.71" width="12.12" height="12.13"/>
	<rect class="a" x="242.46" y="157.6" width="12.12" height="12.11"/>
	<rect class="a" x="242.46" y="145.48" width="12.12" height="12.12"/>
	<rect class="a" x="242.46" y="133.35" width="12.12" height="12.13"/>
	<rect class="a" x="242.46" y="121.23" width="12.12" height="12.12"/>
	<rect class="a" x="242.46" y="109.1" width="12.12" height="12.13"/>
	<rect class="a" x="242.46" y="96.98" width="12.12" height="12.12"/>
	<rect class="a" x="242.46" y="84.86" width="12.12" height="12.12"/>
	<rect class="a" x="242.46" y="72.73" width="12.12" height="12.13"/>
	<rect class="a" x="242.46" y="60.61" width="12.12" height="12.12"/>
	<rect class="a" x="242.46" y="48.49" width="12.12" height="12.12"/>
	<rect class="a" x="242.46" y="36.36" width="12.12" height="12.13"/>
	<rect class="a" x="242.46" y="24.25" width="12.12" height="12.11"/>
	<rect class="a" x="242.46" width="12.12" height="12.11"/>
	<rect class="a" x="230.33" y="387.94" width="12.13" height="12.12"/>
	<rect class="a" x="230.33" y="375.81" width="12.13" height="12.13"/>
	<rect class="a" x="230.33" y="363.69" width="12.13" height="12.12"/>
	<rect class="a" x="230.33" y="351.56" width="12.13" height="12.13"/>
	<rect class="a" x="230.33" y="339.44" width="12.13" height="12.12"/>
	<rect class="a" x="230.33" y="327.33" width="12.13" height="12.11"/>
	<rect class="a" x="230.33" y="315.19" width="12.13" height="12.14"/>
	<rect class="a" x="230.33" y="303.08" width="12.13" height="12.11"/>
	<rect class="a" x="230.33" y="290.95" width="12.13" height="12.13"/>
	<rect class="a" x="230.33" y="278.83" width="12.13" height="12.12"/>
	<rect class="a" x="230.33" y="266.71" width="12.13" height="12.12"/>
	<rect class="a" x="230.33" y="254.58" width="12.13" height="12.13"/>
	<rect class="a" x="230.33" y="242.46" width="12.13" height="12.12"/>
	<rect class="a" x="230.33" y="230.33" width="12.13" height="12.13"/>
	<rect class="a" x="230.33" y="218.21" width="12.13" height="12.12"/>
	<rect class="a" x="230.33" y="206.09" width="12.13" height="12.12"/>
	<rect class="a" x="230.33" y="193.96" width="12.13" height="12.13"/>
	<rect class="a" x="230.33" y="181.84" width="12.13" height="12.12"/>
	<rect class="a" x="230.33" y="169.71" width="12.13" height="12.13"/>
	<rect class="a" x="230.33" y="157.6" width="12.13" height="12.11"/>
	<rect class="a" x="230.33" y="145.48" width="12.13" height="12.12"/>
	<rect class="a" x="230.33" y="133.35" width="12.13" height="12.13"/>
	<rect class="a" x="230.33" y="121.23" width="12.13" height="12.12"/>
	<rect class="a" x="230.33" y="109.1" width="12.13" height="12.13"/>
	<rect class="a" x="230.33" y="96.98" width="12.13" height="12.12"/>
	<rect class="a" x="230.33" y="84.86" width="12.13" height="12.12"/>
	<rect class="a" x="230.33" y="72.73" width="12.13" height="12.13"/>
	<rect class="a" x="230.33" y="60.61" width="12.13" height="12.12"/>
	<rect class="a" x="230.33" y="48.49" width="12.13" height="12.12"/>
	<rect class="a" x="230.33" y="36.36" width="12.13" height="12.13"/>
	<rect class="a" x="230.33" y="24.25" width="12.13" height="12.11"/>
	<rect class="a" x="230.33" width="12.13" height="12.11"/>
	<rect class="a" x="218.22" y="387.94" width="12.11" height="12.12"/>
	<rect class="a" x="218.22" y="375.81" width="12.11" height="12.13"/>
	<rect class="a" x="218.22" y="363.69" width="12.11" height="12.12"/>
	<rect class="a" x="218.22" y="351.56" width="12.11" height="12.13"/>
	<rect class="a" x="218.22" y="339.44" width="12.11" height="12.12"/>
	<rect class="a" x="218.22" y="327.33" width="12.11" height="12.11"/>
	<rect class="a" x="218.22" y="315.19" width="12.11" height="12.14"/>
	<rect class="a" x="218.22" y="303.08" width="12.11" height="12.11"/>
	<rect class="a" x="218.22" y="290.95" width="12.11" height="12.13"/>
	<rect class="a" x="218.22" y="278.83" width="12.11" height="12.12"/>
	<rect class="a" x="218.22" y="266.71" width="12.11" height="12.12"/>
	<rect class="a" x="218.22" y="254.58" width="12.11" height="12.13"/>
	<rect class="a" x="218.22" y="242.46" width="12.11" height="12.12"/>
	<rect class="a" x="218.22" y="230.33" width="12.11" height="12.13"/>
	<rect class="a" x="218.22" y="218.21" width="12.11" height="12.12"/>
	<rect class="a" x="218.22" y="206.09" width="12.11" height="12.12"/>
	<rect class="a" x="218.22" y="193.96" width="12.11" height="12.13"/>
	<rect class="a" x="218.22" y="181.84" width="12.11" height="12.12"/>
	<rect class="a" x="218.22" y="169.71" width="12.11" height="12.13"/>
	<rect class="a" x="218.22" y="157.6" width="12.11" height="12.11"/>
	<rect class="a" x="218.22" y="145.48" width="12.11" height="12.12"/>
	<rect class="a" x="218.22" y="133.35" width="12.11" height="12.13"/>
	<rect class="a" x="218.22" y="121.23" width="12.11" height="12.12"/>
	<rect class="a" x="218.22" y="109.1" width="12.11" height="12.13"/>
	<rect class="a" x="218.22" y="96.98" width="12.11" height="12.12"/>
	<rect class="a" x="218.22" y="84.86" width="12.11" height="12.12"/>
	<rect class="a" x="218.22" y="72.73" width="12.11" height="12.13"/>
	<rect class="a" x="218.22" y="60.61" width="12.11" height="12.12"/>
	<rect class="a" x="218.22" y="48.49" width="12.11" height="12.12"/>
	<rect class="a" x="218.22" y="36.36" width="12.11" height="12.13"/>
	<rect class="a" x="218.22" y="24.25" width="12.11" height="12.11"/>
	<rect class="a" x="218.22" y="12.11" width="12.11" height="12.14"/>
	<rect class="a" x="218.22" width="12.11" height="12.11"/>
	<rect class="a" x="206.08" y="387.94" width="12.14" height="12.12"/>
	<rect class="a" x="206.08" y="375.81" width="12.14" height="12.13"/>
	<rect class="a" x="206.08" y="363.69" width="12.14" height="12.12"/>
	<rect class="a" x="206.08" y="351.56" width="12.14" height="12.13"/>
	<rect class="a" x="206.08" y="339.44" width="12.14" height="12.12"/>
	<rect class="a" x="206.08" y="327.33" width="12.14" height="12.11"/>
	<rect class="a" x="206.08" y="315.19" width="12.14" height="12.14"/>
	<rect class="a" x="206.08" y="303.08" width="12.14" height="12.11"/>
	<rect class="a" x="206.08" y="290.95" width="12.14" height="12.13"/>
	<rect class="a" x="206.08" y="278.83" width="12.14" height="12.12"/>
	<rect class="a" x="206.08" y="266.71" width="12.14" height="12.12"/>
	<rect class="a" x="206.08" y="254.58" width="12.14" height="12.13"/>
	<rect class="a" x="206.08" y="242.46" width="12.14" height="12.12"/>
	<rect class="a" x="206.08" y="230.33" width="12.14" height="12.13"/>
	<rect class="a" x="206.08" y="218.21" width="12.14" height="12.12"/>
	<rect class="a" x="206.08" y="206.09" width="12.14" height="12.12"/>
	<rect class="a" x="206.08" y="193.96" width="12.14" height="12.13"/>
	<rect class="a" x="206.08" y="181.84" width="12.14" height="12.12"/>
	<rect class="a" x="206.08" y="169.71" width="12.14" height="12.13"/>
	<rect class="a" x="206.08" y="157.6" width="12.14" height="12.11"/>
	<rect class="a" x="206.08" y="145.48" width="12.14" height="12.12"/>
	<rect class="a" x="206.08" y="133.35" width="12.14" height="12.13"/>
	<rect class="a" x="206.08" y="121.23" width="12.14" height="12.12"/>
	<rect class="a" x="206.08" y="109.1" width="12.14" height="12.13"/>
	<rect class="a" x="206.08" y="96.98" width="12.14" height="12.12"/>
	<rect class="a" x="206.08" y="84.86" width="12.14" height="12.12"/>
	<rect class="a" x="206.08" y="72.73" width="12.14" height="12.13"/>
	<rect class="a" x="206.08" y="60.61" width="12.14" height="12.12"/>
	<rect class="a" x="206.08" y="48.49" width="12.14" height="12.12"/>
	<rect class="a" x="206.08" y="36.36" width="12.14" height="12.13"/>
	<rect class="a" x="206.08" y="24.25" width="12.14" height="12.11"/>
	<rect class="a" x="206.08" y="12.11" width="12.14" height="12.14"/>
	<rect class="a" x="206.08" width="12.14" height="12.11"/>
	<rect class="a" x="193.97" y="206.09" width="12.11" height="12.12"/>
	<rect class="a" x="193.97" y="193.96" width="12.11" height="12.13"/>
	<rect class="a" x="193.97" y="181.84" width="12.11" height="12.12"/>
	<rect class="a" x="193.97" y="169.71" width="12.11" height="12.13"/>
	<rect class="a" x="193.97" y="157.6" width="12.11" height="12.11"/>
	<rect class="a" x="193.97" y="145.48" width="12.11" height="12.12"/>
	<rect class="a" x="193.97" y="133.35" width="12.11" height="12.13"/>
	<rect class="a" x="193.97" y="121.23" width="12.11" height="12.12"/>
	<rect class="a" x="193.97" y="109.1" width="12.11" height="12.13"/>
	<rect class="a" x="193.97" y="96.98" width="12.11" height="12.12"/>
	<rect class="a" x="193.97" y="84.86" width="12.11" height="12.12"/>
	<rect class="a" x="193.97" y="72.73" width="12.11" height="12.13"/>
	<rect class="a" x="193.97" y="60.61" width="12.11" height="12.12"/>
	<rect class="a" x="193.97" y="48.49" width="12.11" height="12.12"/>
	<rect class="a" x="193.97" y="36.36" width="12.11" height="12.13"/>
	<rect class="a" x="193.97" y="24.25" width="12.11" height="12.11"/>
	<rect class="a" x="193.97" y="12.11" width="12.11" height="12.14"/>
	<rect class="a" x="193.97" width="12.11" height="12.11"/>
	<rect class="a" x="181.85" y="206.09" width="12.12" height="12.12"/>
	<rect class="a" x="181.85" y="193.96" width="12.12" height="12.13"/>
	<rect class="a" x="181.85" y="181.84" width="12.12" height="12.12"/>
	<rect class="a" x="181.85" y="169.71" width="12.12" height="12.13"/>
	<rect class="a" x="181.85" y="157.6" width="12.12" height="12.11"/>
	<rect class="a" x="181.85" y="145.48" width="12.12" height="12.12"/>
	<rect class="a" x="181.85" y="133.35" width="12.12" height="12.13"/>
	<rect class="a" x="181.85" y="121.23" width="12.12" height="12.12"/>
	<rect class="a" x="181.85" y="109.1" width="12.12" height="12.13"/>
	<rect class="a" x="181.85" y="96.98" width="12.12" height="12.12"/>
	<rect class="a" x="181.85" y="84.86" width="12.12" height="12.12"/>
	<rect class="a" x="181.85" y="72.73" width="12.12" height="12.13"/>
	<rect class="a" x="181.85" y="60.61" width="12.12" height="12.12"/>
	<rect class="a" x="181.85" y="48.49" width="12.12" height="12.12"/>
	<rect class="a" x="181.85" y="36.36" width="12.12" height="12.13"/>
	<rect class="a" x="181.85" y="24.25" width="12.12" height="12.11"/>
	<rect class="a" x="181.85" y="12.11" width="12.12" height="12.14"/>
	<rect class="a" x="181.85" width="12.12" height="12.11"/>
	<rect class="a" x="169.72" y="193.96" width="12.13" height="12.13"/>
	<rect class="a" x="169.72" y="181.84" width="12.13" height="12.12"/>
	<rect class="a" x="169.72" y="169.71" width="12.13" height="12.13"/>
	<rect class="a" x="169.72" y="157.6" width="12.13" height="12.11"/>
	<rect class="a" x="169.72" y="145.48" width="12.13" height="12.12"/>
	<rect class="a" x="169.72" y="133.35" width="12.13" height="12.13"/>
	<rect class="a" x="169.72" y="121.23" width="12.13" height="12.12"/>
	<rect class="a" x="169.72" y="109.1" width="12.13" height="12.13"/>
	<rect class="a" x="169.72" y="96.98" width="12.13" height="12.12"/>
	<rect class="a" x="169.72" y="84.86" width="12.13" height="12.12"/>
	<rect class="a" x="169.72" y="72.73" width="12.13" height="12.13"/>
	<rect class="a" x="169.72" y="60.61" width="12.13" height="12.12"/>
	<rect class="a" x="169.72" y="48.49" width="12.13" height="12.12"/>
	<rect class="a" x="169.72" y="36.36" width="12.13" height="12.13"/>
	<rect class="a" x="169.72" y="24.25" width="12.13" height="12.11"/>
	<rect class="a" x="169.72" y="12.11" width="12.13" height="12.14"/>
	<rect class="a" x="157.6" y="193.96" width="12.12" height="12.13"/>
	<rect class="a" x="157.6" y="181.84" width="12.12" height="12.12"/>
	<rect class="a" x="157.6" y="169.71" width="12.12" height="12.13"/>
	<rect class="a" x="157.6" y="157.6" width="12.12" height="12.11"/>
	<rect class="a" x="157.6" y="145.48" width="12.12" height="12.12"/>
	<rect class="a" x="157.6" y="133.35" width="12.12" height="12.13"/>
	<rect class="a" x="157.6" y="121.23" width="12.12" height="12.12"/>
	<rect class="a" x="157.6" y="109.1" width="12.12" height="12.13"/>
	<rect class="a" x="157.6" y="96.98" width="12.12" height="12.12"/>
	<rect class="a" x="157.6" y="84.86" width="12.12" height="12.12"/>
	<rect class="a" x="157.6" y="72.73" width="12.12" height="12.13"/>
	<rect class="a" x="157.6" y="60.61" width="12.12" height="12.12"/>
	<rect class="a" x="157.6" y="48.49" width="12.12" height="12.12"/>
	<rect class="a" x="157.6" y="36.36" width="12.12" height="12.13"/>
	<rect class="a" x="157.6" y="24.25" width="12.12" height="12.11"/>
	<rect class="a" x="157.6" y="12.11" width="12.12" height="12.14"/>
	<rect class="a" x="145.47" y="181.84" width="12.13" height="12.12"/>
	<rect class="a" x="145.47" y="169.71" width="12.13" height="12.13"/>
	<rect class="a" x="145.47" y="157.6" width="12.13" height="12.11"/>
	<rect class="a" x="145.47" y="145.48" width="12.13" height="12.12"/>
	<rect class="a" x="145.47" y="133.35" width="12.13" height="12.13"/>
	<rect class="a" x="145.47" y="121.23" width="12.13" height="12.12"/>
	<rect class="a" x="145.47" y="109.1" width="12.13" height="12.13"/>
	<rect class="a" x="145.47" y="96.98" width="12.13" height="12.12"/>
	<rect class="a" x="145.47" y="84.86" width="12.13" height="12.12"/>
	<rect class="a" x="145.47" y="72.73" width="12.13" height="12.13"/>
	<rect class="a" x="145.47" y="60.61" width="12.13" height="12.12"/>
	<rect class="a" x="145.47" y="48.49" width="12.13" height="12.12"/>
	<rect class="a" x="145.47" y="36.36" width="12.13" height="12.13"/>
	<rect class="a" x="145.47" y="24.25" width="12.13" height="12.11"/>
	<rect class="a" x="133.35" y="169.71" width="12.12" height="12.13"/>
	<rect class="a" x="133.35" y="157.6" width="12.12" height="12.11"/>
	<rect class="a" x="133.35" y="145.48" width="12.12" height="12.12"/>
	<rect class="a" x="133.35" y="133.35" width="12.12" height="12.13"/>
	<rect class="a" x="133.35" y="121.23" width="12.12" height="12.12"/>
	<rect class="a" x="133.35" y="109.1" width="12.12" height="12.13"/>
	<rect class="a" x="133.35" y="96.98" width="12.12" height="12.12"/>
	<rect class="a" x="133.35" y="84.86" width="12.12" height="12.12"/>
	<rect class="a" x="133.35" y="72.73" width="12.12" height="12.13"/>
	<rect class="a" x="133.35" y="60.61" width="12.12" height="12.12"/>
	<rect class="a" x="133.35" y="48.49" width="12.12" height="12.12"/>
	<rect class="a" x="133.35" y="36.36" width="12.12" height="12.13"/>
	<rect class="a" x="121.23" y="145.48" width="12.12" height="12.12"/>
	<rect class="a" x="121.23" y="133.35" width="12.12" height="12.13"/>
	<rect class="a" x="121.23" y="121.23" width="12.12" height="12.12"/>
	<rect class="a" x="121.23" y="109.1" width="12.12" height="12.13"/>
	<rect class="a" x="121.23" y="96.98" width="12.12" height="12.12"/>
	<rect class="a" x="121.23" y="84.86" width="12.12" height="12.12"/>
	<rect class="a" x="121.23" y="72.73" width="12.12" height="12.13"/>
	<rect class="a" x="121.23" y="60.61" width="12.12" height="12.12"/>
	<rect class="a" x="109.1" y="206.09" width="12.13" height="12.12"/>
	<rect class="a" x="109.1" y="121.23" width="12.13" height="12.12"/>
	<rect class="a" x="109.1" y="109.1" width="12.13" height="12.13"/>
	<rect class="a" x="109.1" y="96.98" width="12.13" height="12.12"/>
	<rect class="a" x="109.1" y="84.86" width="12.13" height="12.12"/>
	<rect class="a" x="109.1" width="12.13" height="12.11"/>
	<rect class="a" x="96.98" y="193.96" width="12.12" height="12.13"/>
	<rect class="a" x="96.98" y="12.11" width="12.12" height="12.14"/>
	<rect class="a" x="84.85" y="181.84" width="12.13" height="12.12"/>
	<rect class="a" x="84.85" y="24.25" width="12.13" height="12.11"/>
	<rect class="a" x="72.73" y="169.71" width="12.12" height="12.13"/>
	<rect class="a" x="72.73" y="157.6" width="12.12" height="12.11"/>
	<rect class="a" x="72.73" y="145.48" width="12.12" height="12.12"/>
	<rect class="a" x="72.73" y="60.61" width="12.12" height="12.12"/>
	<rect class="a" x="72.73" y="48.49" width="12.12" height="12.12"/>
	<rect class="a" x="72.73" y="36.36" width="12.12" height="12.13"/>
	<rect class="a" x="60.62" y="133.35" width="12.11" height="12.13"/>
	<rect class="a" x="60.62" y="121.23" width="12.11" height="12.12"/>
	<rect class="a" x="60.62" y="109.1" width="12.11" height="12.13"/>
	<rect class="a" x="60.62" y="96.98" width="12.11" height="12.12"/>
	<rect class="a" x="60.62" y="84.86" width="12.11" height="12.12"/>
	<rect class="a" x="60.62" y="72.73" width="12.11" height="12.13"/>
	<rect class="a" x="36.37" y="181.84" width="12.12" height="12.12"/>
	<rect class="a" x="36.37" y="24.25" width="12.12" height="12.11"/>
	<rect class="a" x="24.25" y="169.71" width="12.12" height="12.13"/>
	<rect class="a" x="24.25" y="36.36" width="12.12" height="12.13"/>
	<rect class="a" x="12.12" y="157.6" width="12.13" height="12.11"/>
	<rect class="a" x="12.12" y="145.48" width="12.13" height="12.12"/>
	<rect class="a" x="12.12" y="60.61" width="12.13" height="12.12"/>
	<rect class="a" x="12.12" y="48.49" width="12.13" height="12.12"/>
	<rect class="a" y="133.35" width="12.12" height="12.13"/>
	<rect class="a" y="121.23" width="12.12" height="12.12"/>
	<rect class="a" y="109.1" width="12.12" height="12.13"/>
	<rect class="a" y="96.98" width="12.12" height="12.12"/>
	<rect class="a" y="84.86" width="12.12" height="12.12"/>
	<rect class="a" y="72.73" width="12.12" height="12.13"/>
</svg>