<?xml version="1.0" encoding="utf-8"?>
<!-- Generator: Adobe Illustrator 22.1.0, SVG Export Plug-In . SVG Version: 6.00 Build 0)  -->
<svg version="1.1" id="Layer_1" xmlns="http://www.w3.org/2000/svg" xmlns:xlink="http://www.w3.org/1999/xlink" x="0px" y="0px"
	 viewBox="0 0 500 500" style="enable-background:new 0 0 500 500;" xml:space="preserve">
<style type="text/css">
	.st0{fill:#73896E;}
</style>
<g>
	<rect x="413.6" y="425.6" class="st0" width="12.4" height="12.4"/>
	<rect x="413.6" y="413.2" class="st0" width="12.4" height="12.4"/>
	<rect x="413.6" y="400.8" class="st0" width="12.4" height="12.4"/>
	<rect x="413.6" y="165" class="st0" width="12.4" height="12.4"/>
	<rect x="413.6" y="152.6" class="st0" width="12.4" height="12.4"/>
	<rect x="413.6" y="140.2" class="st0" width="12.4" height="12.4"/>
	<rect x="413.6" y="127.8" class="st0" width="12.4" height="12.4"/>
	<rect x="413.6" y="115.4" class="st0" width="12.4" height="12.4"/>
	<rect x="401.2" y="450.4" class="st0" width="12.4" height="12.4"/>
	<rect x="401.2" y="438" class="st0" width="12.4" height="12.4"/>
	<rect x="401.2" y="425.6" class="st0" width="12.4" height="12.4"/>
	<rect x="401.2" y="400.8" class="st0" width="12.4" height="12.4"/>
	<rect x="401.2" y="376" class="st0" width="12.4" height="12.4"/>
	<rect x="401.2" y="363.6" class="st0" width="12.4" height="12.4"/>
	<rect x="401.2" y="177.4" class="st0" width="12.4" height="12.4"/>
	<rect x="401.2" y="165" class="st0" width="12.4" height="12.4"/>
	<rect x="401.2" y="103" class="st0" width="12.4" height="12.4"/>
	<rect x="401.2" y="90.6" class="st0" width="12.4" height="12.4"/>
	<rect x="388.8" y="462.8" class="st0" width="12.4" height="12.4"/>
	<rect x="388.8" y="450.4" class="st0" width="12.4" height="12.4"/>
	<rect x="388.8" y="425.6" class="st0" width="12.4" height="12.4"/>
	<rect x="388.8" y="400.8" class="st0" width="12.4" height="12.4"/>
	<rect x="388.8" y="388.4" class="st0" width="12.4" height="12.4"/>
	<rect x="388.8" y="376" class="st0" width="12.4" height="12.4"/>
	<rect x="388.8" y="351.2" class="st0" width="12.4" height="12.4"/>
	<rect x="388.8" y="202.3" class="st0" width="12.4" height="12.4"/>
	<rect x="388.8" y="189.8" class="st0" width="12.4" height="12.4"/>
	<rect x="388.8" y="152.6" class="st0" width="12.4" height="12.4"/>
	<rect x="388.8" y="140.2" class="st0" width="12.4" height="12.4"/>
	<rect x="388.8" y="127.8" class="st0" width="12.4" height="12.4"/>
	<rect x="388.8" y="115.4" class="st0" width="12.4" height="12.4"/>
	<rect x="388.8" y="78.2" class="st0" width="12.4" height="12.4"/>
	<rect x="376.4" y="462.8" class="st0" width="12.4" height="12.4"/>
	<rect x="376.4" y="450.4" class="st0" width="12.4" height="12.4"/>
	<rect x="376.4" y="438" class="st0" width="12.4" height="12.4"/>
	<rect x="376.4" y="425.6" class="st0" width="12.4" height="12.4"/>
	<rect x="376.4" y="400.8" class="st0" width="12.4" height="12.4"/>
	<rect x="376.4" y="388.4" class="st0" width="12.4" height="12.4"/>
	<rect x="376.4" y="376" class="st0" width="12.4" height="12.4"/>
	<rect x="376.4" y="351.2" class="st0" width="12.4" height="12.4"/>
	<rect x="376.4" y="214.7" class="st0" width="12.4" height="12.4"/>
	<rect x="376.4" y="140.2" class="st0" width="12.4" height="12.4"/>
	<rect x="376.4" y="127.8" class="st0" width="12.4" height="12.4"/>
	<rect x="376.4" y="115.4" class="st0" width="12.4" height="12.4"/>
	<rect x="376.4" y="103" class="st0" width="12.4" height="12.4"/>
	<rect x="376.4" y="90.6" class="st0" width="12.4" height="12.4"/>
	<rect x="376.4" y="65.7" class="st0" width="12.4" height="12.4"/>
	<rect x="364" y="462.8" class="st0" width="12.4" height="12.4"/>
	<rect x="364" y="450.4" class="st0" width="12.4" height="12.4"/>
	<rect x="364" y="438" class="st0" width="12.4" height="12.4"/>
	<rect x="364" y="425.6" class="st0" width="12.4" height="12.4"/>
	<rect x="364" y="400.8" class="st0" width="12.4" height="12.4"/>
	<rect x="364" y="388.4" class="st0" width="12.4" height="12.4"/>
	<rect x="364" y="376" class="st0" width="12.4" height="12.4"/>
	<rect x="364" y="351.2" class="st0" width="12.4" height="12.4"/>
	<rect x="364" y="227.1" class="st0" width="12.4" height="12.4"/>
	<rect x="364" y="140.2" class="st0" width="12.4" height="12.4"/>
	<rect x="364" y="127.8" class="st0" width="12.4" height="12.4"/>
	<rect x="364" y="115.4" class="st0" width="12.4" height="12.4"/>
	<rect x="364" y="103" class="st0" width="12.4" height="12.4"/>
	<rect x="364" y="90.6" class="st0" width="12.4" height="12.4"/>
	<rect x="364" y="78.2" class="st0" width="12.4" height="12.4"/>
	<rect x="364" y="65.7" class="st0" width="12.4" height="12.4"/>
	<rect x="364" y="53.3" class="st0" width="12.4" height="12.4"/>
	<rect x="351.5" y="462.8" class="st0" width="12.4" height="12.4"/>
	<rect x="351.5" y="450.4" class="st0" width="12.4" height="12.4"/>
	<rect x="351.5" y="438" class="st0" width="12.4" height="12.4"/>
	<rect x="351.5" y="425.6" class="st0" width="12.4" height="12.4"/>
	<rect x="351.5" y="400.8" class="st0" width="12.4" height="12.4"/>
	<rect x="351.5" y="388.4" class="st0" width="12.4" height="12.4"/>
	<rect x="351.5" y="376" class="st0" width="12.4" height="12.4"/>
	<rect x="351.5" y="363.6" class="st0" width="12.4" height="12.4"/>
	<rect x="351.5" y="351.2" class="st0" width="12.4" height="12.4"/>
	<rect x="351.5" y="239.5" class="st0" width="12.4" height="12.4"/>
	<rect x="351.5" y="152.6" class="st0" width="12.4" height="12.4"/>
	<rect x="351.5" y="140.2" class="st0" width="12.4" height="12.4"/>
	<rect x="351.5" y="127.8" class="st0" width="12.4" height="12.4"/>
	<rect x="351.5" y="115.4" class="st0" width="12.4" height="12.4"/>
	<rect x="351.5" y="103" class="st0" width="12.4" height="12.4"/>
	<rect x="351.5" y="90.6" class="st0" width="12.4" height="12.4"/>
	<rect x="351.5" y="78.2" class="st0" width="12.4" height="12.4"/>
	<rect x="351.5" y="65.7" class="st0" width="12.4" height="12.4"/>
	<rect x="351.5" y="53.3" class="st0" width="12.4" height="12.4"/>
	<rect x="339.1" y="462.8" class="st0" width="12.4" height="12.4"/>
	<rect x="339.1" y="450.4" class="st0" width="12.4" height="12.4"/>
	<rect x="339.1" y="438" class="st0" width="12.4" height="12.4"/>
	<rect x="339.1" y="425.6" class="st0" width="12.4" height="12.4"/>
	<rect x="339.1" y="400.8" class="st0" width="12.4" height="12.4"/>
	<rect x="339.1" y="388.4" class="st0" width="12.4" height="12.4"/>
	<rect x="339.1" y="376" class="st0" width="12.4" height="12.4"/>
	<rect x="339.1" y="363.6" class="st0" width="12.4" height="12.4"/>
	<rect x="339.1" y="351.2" class="st0" width="12.4" height="12.4"/>
	<rect x="339.1" y="251.9" class="st0" width="12.4" height="12.4"/>
	<rect x="339.1" y="165" class="st0" width="12.4" height="12.4"/>
	<rect x="339.1" y="152.6" class="st0" width="12.4" height="12.4"/>
	<rect x="339.1" y="140.2" class="st0" width="12.4" height="12.4"/>
	<rect x="339.1" y="127.8" class="st0" width="12.4" height="12.4"/>
	<rect x="339.1" y="115.4" class="st0" width="12.4" height="12.4"/>
	<rect x="339.1" y="103" class="st0" width="12.4" height="12.4"/>
	<rect x="339.1" y="90.6" class="st0" width="12.4" height="12.4"/>
	<rect x="339.1" y="78.2" class="st0" width="12.4" height="12.4"/>
	<rect x="339.1" y="65.7" class="st0" width="12.4" height="12.4"/>
	<rect x="339.1" y="53.3" class="st0" width="12.4" height="12.4"/>
	<rect x="326.7" y="462.8" class="st0" width="12.4" height="12.4"/>
	<rect x="326.7" y="450.4" class="st0" width="12.4" height="12.4"/>
	<rect x="326.7" y="438" class="st0" width="12.4" height="12.4"/>
	<rect x="326.7" y="425.6" class="st0" width="12.4" height="12.4"/>
	<rect x="326.7" y="400.8" class="st0" width="12.4" height="12.4"/>
	<rect x="326.7" y="388.4" class="st0" width="12.4" height="12.4"/>
	<rect x="326.7" y="376" class="st0" width="12.4" height="12.4"/>
	<rect x="326.7" y="363.6" class="st0" width="12.4" height="12.4"/>
	<rect x="326.7" y="351.2" class="st0" width="12.4" height="12.4"/>
	<rect x="326.7" y="264.3" class="st0" width="12.4" height="12.4"/>
	<rect x="326.7" y="189.8" class="st0" width="12.4" height="12.4"/>
	<rect x="326.7" y="177.4" class="st0" width="12.4" height="12.4"/>
	<rect x="326.7" y="152.6" class="st0" width="12.4" height="12.4"/>
	<rect x="326.7" y="140.2" class="st0" width="12.4" height="12.4"/>
	<rect x="326.7" y="127.8" class="st0" width="12.4" height="12.4"/>
	<rect x="326.7" y="115.4" class="st0" width="12.4" height="12.4"/>
	<rect x="326.7" y="103" class="st0" width="12.4" height="12.4"/>
	<rect x="326.7" y="90.6" class="st0" width="12.4" height="12.4"/>
	<rect x="326.7" y="78.2" class="st0" width="12.4" height="12.4"/>
	<rect x="326.7" y="65.7" class="st0" width="12.4" height="12.4"/>
	<rect x="326.7" y="53.3" class="st0" width="12.4" height="12.4"/>
	<rect x="326.7" y="40.9" class="st0" width="12.4" height="12.4"/>
	<rect x="314.3" y="462.8" class="st0" width="12.4" height="12.4"/>
	<rect x="314.3" y="450.4" class="st0" width="12.4" height="12.4"/>
	<rect x="314.3" y="438" class="st0" width="12.4" height="12.4"/>
	<rect x="314.3" y="425.6" class="st0" width="12.4" height="12.4"/>
	<rect x="314.3" y="400.8" class="st0" width="12.4" height="12.4"/>
	<rect x="314.3" y="388.4" class="st0" width="12.4" height="12.4"/>
	<rect x="314.3" y="376" class="st0" width="12.4" height="12.4"/>
	<rect x="314.3" y="363.6" class="st0" width="12.4" height="12.4"/>
	<rect x="314.3" y="351.2" class="st0" width="12.4" height="12.4"/>
	<rect x="314.3" y="276.7" class="st0" width="12.4" height="12.4"/>
	<rect x="314.3" y="214.7" class="st0" width="12.4" height="12.4"/>
	<rect x="314.3" y="202.3" class="st0" width="12.4" height="12.4"/>
	<rect x="314.3" y="140.2" class="st0" width="12.4" height="12.4"/>
	<rect x="314.3" y="127.8" class="st0" width="12.4" height="12.4"/>
	<rect x="314.3" y="115.4" class="st0" width="12.4" height="12.4"/>
	<rect x="314.3" y="103" class="st0" width="12.4" height="12.4"/>
	<rect x="314.3" y="90.6" class="st0" width="12.4" height="12.4"/>
	<rect x="314.3" y="78.2" class="st0" width="12.4" height="12.4"/>
	<rect x="314.3" y="65.7" class="st0" width="12.4" height="12.4"/>
	<rect x="314.3" y="53.3" class="st0" width="12.4" height="12.4"/>
	<rect x="314.3" y="40.9" class="st0" width="12.4" height="12.4"/>
	<rect x="301.9" y="462.8" class="st0" width="12.4" height="12.4"/>
	<rect x="301.9" y="450.4" class="st0" width="12.4" height="12.4"/>
	<rect x="301.9" y="438" class="st0" width="12.4" height="12.4"/>
	<rect x="301.9" y="425.6" class="st0" width="12.4" height="12.4"/>
	<rect x="301.9" y="400.8" class="st0" width="12.4" height="12.4"/>
	<rect x="301.9" y="388.4" class="st0" width="12.4" height="12.4"/>
	<rect x="301.9" y="376" class="st0" width="12.4" height="12.4"/>
	<rect x="301.9" y="363.6" class="st0" width="12.4" height="12.4"/>
	<rect x="301.9" y="351.2" class="st0" width="12.4" height="12.4"/>
	<rect x="301.9" y="289.1" class="st0" width="12.4" height="12.4"/>
	<rect x="301.9" y="239.5" class="st0" width="12.4" height="12.4"/>
	<rect x="301.9" y="227.1" class="st0" width="12.4" height="12.4"/>
	<rect x="301.9" y="127.8" class="st0" width="12.4" height="12.4"/>
	<rect x="301.9" y="115.4" class="st0" width="12.4" height="12.4"/>
	<rect x="301.9" y="103" class="st0" width="12.4" height="12.4"/>
	<rect x="301.9" y="90.6" class="st0" width="12.4" height="12.4"/>
	<rect x="301.9" y="78.2" class="st0" width="12.4" height="12.4"/>
	<rect x="301.9" y="65.7" class="st0" width="12.4" height="12.4"/>
	<rect x="301.9" y="53.3" class="st0" width="12.4" height="12.4"/>
	<rect x="301.9" y="40.9" class="st0" width="12.4" height="12.4"/>
	<rect x="301.9" y="28.5" class="st0" width="12.4" height="12.4"/>
	<rect x="289.5" y="462.8" class="st0" width="12.4" height="12.4"/>
	<rect x="289.5" y="450.4" class="st0" width="12.4" height="12.4"/>
	<rect x="289.5" y="438" class="st0" width="12.4" height="12.4"/>
	<rect x="289.5" y="425.6" class="st0" width="12.4" height="12.4"/>
	<rect x="289.5" y="400.8" class="st0" width="12.4" height="12.4"/>
	<rect x="289.5" y="388.4" class="st0" width="12.4" height="12.4"/>
	<rect x="289.5" y="376" class="st0" width="12.4" height="12.4"/>
	<rect x="289.5" y="363.6" class="st0" width="12.4" height="12.4"/>
	<rect x="289.5" y="351.2" class="st0" width="12.4" height="12.4"/>
	<rect x="289.5" y="301.5" class="st0" width="12.4" height="12.4"/>
	<rect x="289.5" y="264.3" class="st0" width="12.4" height="12.4"/>
	<rect x="289.5" y="251.9" class="st0" width="12.4" height="12.4"/>
	<rect x="289.5" y="127.8" class="st0" width="12.4" height="12.4"/>
	<rect x="289.5" y="115.4" class="st0" width="12.4" height="12.4"/>
	<rect x="289.5" y="103" class="st0" width="12.4" height="12.4"/>
	<rect x="289.5" y="90.6" class="st0" width="12.4" height="12.4"/>
	<rect x="289.5" y="78.2" class="st0" width="12.4" height="12.4"/>
	<rect x="289.5" y="65.7" class="st0" width="12.4" height="12.4"/>
	<rect x="289.5" y="53.3" class="st0" width="12.4" height="12.4"/>
	<rect x="289.5" y="40.9" class="st0" width="12.4" height="12.4"/>
	<rect x="289.5" y="28.5" class="st0" width="12.4" height="12.4"/>
	<rect x="277.1" y="462.8" class="st0" width="12.4" height="12.4"/>
	<rect x="277.1" y="450.4" class="st0" width="12.4" height="12.4"/>
	<rect x="277.1" y="438" class="st0" width="12.4" height="12.4"/>
	<rect x="277.1" y="425.6" class="st0" width="12.4" height="12.4"/>
	<rect x="277.1" y="400.8" class="st0" width="12.4" height="12.4"/>
	<rect x="277.1" y="388.4" class="st0" width="12.4" height="12.4"/>
	<rect x="277.1" y="376" class="st0" width="12.4" height="12.4"/>
	<rect x="277.1" y="363.6" class="st0" width="12.4" height="12.4"/>
	<rect x="277.1" y="351.2" class="st0" width="12.4" height="12.4"/>
	<rect x="277.1" y="338.7" class="st0" width="12.4" height="12.4"/>
	<rect x="277.1" y="313.9" class="st0" width="12.4" height="12.4"/>
	<rect x="277.1" y="289.1" class="st0" width="12.4" height="12.4"/>
	<rect x="277.1" y="276.7" class="st0" width="12.4" height="12.4"/>
	<rect x="277.1" y="127.8" class="st0" width="12.4" height="12.4"/>
	<rect x="277.1" y="115.4" class="st0" width="12.4" height="12.4"/>
	<rect x="277.1" y="103" class="st0" width="12.4" height="12.4"/>
	<rect x="277.1" y="90.6" class="st0" width="12.4" height="12.4"/>
	<rect x="277.1" y="78.2" class="st0" width="12.4" height="12.4"/>
	<rect x="277.1" y="65.7" class="st0" width="12.4" height="12.4"/>
	<rect x="277.1" y="53.3" class="st0" width="12.4" height="12.4"/>
	<rect x="277.1" y="40.9" class="st0" width="12.4" height="12.4"/>
	<rect x="277.1" y="28.5" class="st0" width="12.4" height="12.4"/>
	<rect x="264.7" y="475.2" class="st0" width="12.4" height="12.4"/>
	<rect x="264.7" y="462.8" class="st0" width="12.4" height="12.4"/>
	<rect x="264.7" y="450.4" class="st0" width="12.4" height="12.4"/>
	<rect x="264.7" y="438" class="st0" width="12.4" height="12.4"/>
	<rect x="264.7" y="425.6" class="st0" width="12.4" height="12.4"/>
	<rect x="264.7" y="413.2" class="st0" width="12.4" height="12.4"/>
	<rect x="264.7" y="400.8" class="st0" width="12.4" height="12.4"/>
	<rect x="264.7" y="388.4" class="st0" width="12.4" height="12.4"/>
	<rect x="264.7" y="376" class="st0" width="12.4" height="12.4"/>
	<rect x="264.7" y="363.6" class="st0" width="12.4" height="12.4"/>
	<rect x="264.7" y="351.2" class="st0" width="12.4" height="12.4"/>
	<rect x="264.7" y="326.3" class="st0" width="12.4" height="12.4"/>
	<rect x="264.7" y="313.9" class="st0" width="12.4" height="12.4"/>
	<rect x="264.7" y="301.5" class="st0" width="12.4" height="12.4"/>
	<rect x="264.7" y="140.2" class="st0" width="12.4" height="12.4"/>
	<rect x="264.7" y="127.8" class="st0" width="12.4" height="12.4"/>
	<rect x="264.7" y="115.4" class="st0" width="12.4" height="12.4"/>
	<rect x="264.7" y="103" class="st0" width="12.4" height="12.4"/>
	<rect x="264.7" y="90.6" class="st0" width="12.4" height="12.4"/>
	<rect x="264.7" y="78.2" class="st0" width="12.4" height="12.4"/>
	<rect x="264.7" y="65.7" class="st0" width="12.4" height="12.4"/>
	<rect x="264.7" y="53.3" class="st0" width="12.4" height="12.4"/>
	<rect x="264.7" y="40.9" class="st0" width="12.4" height="12.4"/>
	<rect x="264.7" y="28.5" class="st0" width="12.4" height="12.4"/>
	<rect x="264.7" y="16.1" class="st0" width="12.4" height="12.4"/>
	<rect x="252.3" y="475.2" class="st0" width="12.4" height="12.4"/>
	<rect x="252.3" y="351.2" class="st0" width="12.4" height="12.4"/>
	<rect x="252.3" y="338.7" class="st0" width="12.4" height="12.4"/>
	<rect x="252.3" y="326.3" class="st0" width="12.4" height="12.4"/>
	<rect x="252.3" y="313.9" class="st0" width="12.4" height="12.4"/>
	<rect x="252.3" y="301.5" class="st0" width="12.4" height="12.4"/>
	<rect x="252.3" y="289.1" class="st0" width="12.4" height="12.4"/>
	<rect x="252.3" y="276.7" class="st0" width="12.4" height="12.4"/>
	<rect x="252.3" y="264.3" class="st0" width="12.4" height="12.4"/>
	<rect x="252.3" y="251.9" class="st0" width="12.4" height="12.4"/>
	<rect x="252.3" y="239.5" class="st0" width="12.4" height="12.4"/>
	<rect x="252.3" y="227.1" class="st0" width="12.4" height="12.4"/>
	<rect x="252.3" y="214.7" class="st0" width="12.4" height="12.4"/>
	<rect x="252.3" y="202.3" class="st0" width="12.4" height="12.4"/>
	<rect x="252.3" y="189.8" class="st0" width="12.4" height="12.4"/>
	<rect x="252.3" y="177.4" class="st0" width="12.4" height="12.4"/>
	<rect x="252.3" y="165" class="st0" width="12.4" height="12.4"/>
	<rect x="252.3" y="152.6" class="st0" width="12.4" height="12.4"/>
	<rect x="252.3" y="140.2" class="st0" width="12.4" height="12.4"/>
	<rect x="252.3" y="127.8" class="st0" width="12.4" height="12.4"/>
	<rect x="252.3" y="115.4" class="st0" width="12.4" height="12.4"/>
	<rect x="252.3" y="103" class="st0" width="12.4" height="12.4"/>
	<rect x="252.3" y="90.6" class="st0" width="12.4" height="12.4"/>
	<rect x="252.3" y="78.2" class="st0" width="12.4" height="12.4"/>
	<rect x="252.3" y="65.7" class="st0" width="12.4" height="12.4"/>
	<rect x="252.3" y="53.3" class="st0" width="12.4" height="12.4"/>
	<rect x="252.3" y="40.9" class="st0" width="12.4" height="12.4"/>
	<rect x="252.3" y="28.5" class="st0" width="12.4" height="12.4"/>
	<rect x="252.3" y="16.1" class="st0" width="12.4" height="12.4"/>
	<rect x="239.9" y="475.2" class="st0" width="12.4" height="12.4"/>
	<rect x="239.9" y="462.8" class="st0" width="12.4" height="12.4"/>
	<rect x="239.9" y="450.4" class="st0" width="12.4" height="12.4"/>
	<rect x="239.9" y="438" class="st0" width="12.4" height="12.4"/>
	<rect x="239.9" y="425.6" class="st0" width="12.4" height="12.4"/>
	<rect x="239.9" y="413.2" class="st0" width="12.4" height="12.4"/>
	<rect x="239.9" y="400.8" class="st0" width="12.4" height="12.4"/>
	<rect x="239.9" y="388.4" class="st0" width="12.4" height="12.4"/>
	<rect x="239.9" y="376" class="st0" width="12.4" height="12.4"/>
	<rect x="239.9" y="363.6" class="st0" width="12.4" height="12.4"/>
	<rect x="239.9" y="351.2" class="st0" width="12.4" height="12.4"/>
	<rect x="239.9" y="326.3" class="st0" width="12.4" height="12.4"/>
	<rect x="239.9" y="313.9" class="st0" width="12.4" height="12.4"/>
	<rect x="239.9" y="301.5" class="st0" width="12.4" height="12.4"/>
	<rect x="239.9" y="140.2" class="st0" width="12.4" height="12.4"/>
	<rect x="239.9" y="127.8" class="st0" width="12.4" height="12.4"/>
	<rect x="239.9" y="115.4" class="st0" width="12.4" height="12.4"/>
	<rect x="239.9" y="103" class="st0" width="12.4" height="12.4"/>
	<rect x="239.9" y="90.6" class="st0" width="12.4" height="12.4"/>
	<rect x="239.9" y="78.2" class="st0" width="12.4" height="12.4"/>
	<rect x="239.9" y="65.7" class="st0" width="12.4" height="12.4"/>
	<rect x="239.9" y="53.3" class="st0" width="12.4" height="12.4"/>
	<rect x="239.9" y="40.9" class="st0" width="12.4" height="12.4"/>
	<rect x="239.9" y="28.5" class="st0" width="12.4" height="12.4"/>
	<rect x="239.9" y="16.1" class="st0" width="12.4" height="12.4"/>
	<rect x="227.4" y="462.8" class="st0" width="12.4" height="12.4"/>
	<rect x="227.4" y="450.4" class="st0" width="12.4" height="12.4"/>
	<rect x="227.4" y="438" class="st0" width="12.4" height="12.4"/>
	<rect x="227.4" y="425.6" class="st0" width="12.4" height="12.4"/>
	<rect x="227.4" y="400.8" class="st0" width="12.4" height="12.4"/>
	<rect x="227.4" y="388.4" class="st0" width="12.4" height="12.4"/>
	<rect x="227.4" y="376" class="st0" width="12.4" height="12.4"/>
	<rect x="227.4" y="363.6" class="st0" width="12.4" height="12.4"/>
	<rect x="227.4" y="351.2" class="st0" width="12.4" height="12.4"/>
	<rect x="227.4" y="338.7" class="st0" width="12.4" height="12.4"/>
	<rect x="227.4" y="313.9" class="st0" width="12.4" height="12.4"/>
	<rect x="227.4" y="289.1" class="st0" width="12.4" height="12.4"/>
	<rect x="227.4" y="276.7" class="st0" width="12.4" height="12.4"/>
	<rect x="227.4" y="127.8" class="st0" width="12.4" height="12.4"/>
	<rect x="227.4" y="115.4" class="st0" width="12.4" height="12.4"/>
	<rect x="227.4" y="103" class="st0" width="12.4" height="12.4"/>
	<rect x="227.4" y="90.6" class="st0" width="12.4" height="12.4"/>
	<rect x="227.4" y="78.2" class="st0" width="12.4" height="12.4"/>
	<rect x="227.4" y="65.7" class="st0" width="12.4" height="12.4"/>
	<rect x="227.4" y="53.3" class="st0" width="12.4" height="12.4"/>
	<rect x="227.4" y="40.9" class="st0" width="12.4" height="12.4"/>
	<rect x="227.4" y="28.5" class="st0" width="12.4" height="12.4"/>
	<rect x="215" y="462.8" class="st0" width="12.4" height="12.4"/>
	<rect x="215" y="450.4" class="st0" width="12.4" height="12.4"/>
	<rect x="215" y="438" class="st0" width="12.4" height="12.4"/>
	<rect x="215" y="425.6" class="st0" width="12.4" height="12.4"/>
	<rect x="215" y="400.8" class="st0" width="12.4" height="12.4"/>
	<rect x="215" y="388.4" class="st0" width="12.4" height="12.4"/>
	<rect x="215" y="376" class="st0" width="12.4" height="12.4"/>
	<rect x="215" y="363.6" class="st0" width="12.4" height="12.4"/>
	<rect x="215" y="351.2" class="st0" width="12.4" height="12.4"/>
	<rect x="215" y="301.5" class="st0" width="12.4" height="12.4"/>
	<rect x="215" y="264.3" class="st0" width="12.4" height="12.4"/>
	<rect x="215" y="251.9" class="st0" width="12.4" height="12.4"/>
	<rect x="215" y="127.8" class="st0" width="12.4" height="12.4"/>
	<rect x="215" y="115.4" class="st0" width="12.4" height="12.4"/>
	<rect x="215" y="103" class="st0" width="12.4" height="12.4"/>
	<rect x="215" y="90.6" class="st0" width="12.4" height="12.4"/>
	<rect x="215" y="78.2" class="st0" width="12.4" height="12.4"/>
	<rect x="215" y="65.7" class="st0" width="12.4" height="12.4"/>
	<rect x="215" y="53.3" class="st0" width="12.4" height="12.4"/>
	<rect x="215" y="40.9" class="st0" width="12.4" height="12.4"/>
	<rect x="215" y="28.5" class="st0" width="12.4" height="12.4"/>
	<rect x="202.6" y="462.8" class="st0" width="12.4" height="12.4"/>
	<rect x="202.6" y="450.4" class="st0" width="12.4" height="12.4"/>
	<rect x="202.6" y="438" class="st0" width="12.4" height="12.4"/>
	<rect x="202.6" y="425.6" class="st0" width="12.4" height="12.4"/>
	<rect x="202.6" y="400.8" class="st0" width="12.4" height="12.4"/>
	<rect x="202.6" y="388.4" class="st0" width="12.4" height="12.4"/>
	<rect x="202.6" y="376" class="st0" width="12.4" height="12.4"/>
	<rect x="202.6" y="363.6" class="st0" width="12.4" height="12.4"/>
	<rect x="202.6" y="351.2" class="st0" width="12.4" height="12.4"/>
	<rect x="202.6" y="289.1" class="st0" width="12.4" height="12.4"/>
	<rect x="202.6" y="239.5" class="st0" width="12.4" height="12.4"/>
	<rect x="202.6" y="227.1" class="st0" width="12.4" height="12.4"/>
	<rect x="202.6" y="127.8" class="st0" width="12.4" height="12.4"/>
	<rect x="202.6" y="115.4" class="st0" width="12.4" height="12.4"/>
	<rect x="202.6" y="103" class="st0" width="12.4" height="12.4"/>
	<rect x="202.6" y="90.6" class="st0" width="12.4" height="12.4"/>
	<rect x="202.6" y="78.2" class="st0" width="12.4" height="12.4"/>
	<rect x="202.6" y="65.7" class="st0" width="12.4" height="12.4"/>
	<rect x="202.6" y="53.3" class="st0" width="12.4" height="12.4"/>
	<rect x="202.6" y="40.9" class="st0" width="12.4" height="12.4"/>
	<rect x="202.6" y="28.5" class="st0" width="12.4" height="12.4"/>
	<rect x="190.2" y="462.8" class="st0" width="12.4" height="12.4"/>
	<rect x="190.2" y="450.4" class="st0" width="12.4" height="12.4"/>
	<rect x="190.2" y="438" class="st0" width="12.4" height="12.4"/>
	<rect x="190.2" y="425.6" class="st0" width="12.4" height="12.4"/>
	<rect x="190.2" y="400.8" class="st0" width="12.4" height="12.4"/>
	<rect x="190.2" y="388.4" class="st0" width="12.4" height="12.4"/>
	<rect x="190.2" y="376" class="st0" width="12.4" height="12.4"/>
	<rect x="190.2" y="363.6" class="st0" width="12.4" height="12.4"/>
	<rect x="190.2" y="351.2" class="st0" width="12.4" height="12.4"/>
	<rect x="190.2" y="276.7" class="st0" width="12.4" height="12.4"/>
	<rect x="190.2" y="214.7" class="st0" width="12.4" height="12.4"/>
	<rect x="190.2" y="202.3" class="st0" width="12.4" height="12.4"/>
	<rect x="190.2" y="140.2" class="st0" width="12.4" height="12.4"/>
	<rect x="190.2" y="127.8" class="st0" width="12.4" height="12.4"/>
	<rect x="190.2" y="115.4" class="st0" width="12.4" height="12.4"/>
	<rect x="190.2" y="103" class="st0" width="12.4" height="12.4"/>
	<rect x="190.2" y="90.6" class="st0" width="12.4" height="12.4"/>
	<rect x="190.2" y="78.2" class="st0" width="12.4" height="12.4"/>
	<rect x="190.2" y="65.7" class="st0" width="12.4" height="12.4"/>
	<rect x="190.2" y="53.3" class="st0" width="12.4" height="12.4"/>
	<rect x="190.2" y="40.9" class="st0" width="12.4" height="12.4"/>
	<rect x="177.8" y="462.8" class="st0" width="12.4" height="12.4"/>
	<rect x="177.8" y="450.4" class="st0" width="12.4" height="12.4"/>
	<rect x="177.8" y="438" class="st0" width="12.4" height="12.4"/>
	<rect x="177.8" y="425.6" class="st0" width="12.4" height="12.4"/>
	<rect x="177.8" y="400.8" class="st0" width="12.4" height="12.4"/>
	<rect x="177.8" y="388.4" class="st0" width="12.4" height="12.4"/>
	<rect x="177.8" y="376" class="st0" width="12.4" height="12.4"/>
	<rect x="177.8" y="363.6" class="st0" width="12.4" height="12.4"/>
	<rect x="177.8" y="351.2" class="st0" width="12.4" height="12.4"/>
	<rect x="177.8" y="264.3" class="st0" width="12.4" height="12.4"/>
	<rect x="177.8" y="189.8" class="st0" width="12.4" height="12.4"/>
	<rect x="177.8" y="177.4" class="st0" width="12.4" height="12.4"/>
	<rect x="177.8" y="152.6" class="st0" width="12.4" height="12.4"/>
	<rect x="177.8" y="140.2" class="st0" width="12.4" height="12.4"/>
	<rect x="177.8" y="127.8" class="st0" width="12.4" height="12.4"/>
	<rect x="177.8" y="115.4" class="st0" width="12.4" height="12.4"/>
	<rect x="177.8" y="103" class="st0" width="12.4" height="12.4"/>
	<rect x="177.8" y="90.6" class="st0" width="12.4" height="12.4"/>
	<rect x="177.8" y="78.2" class="st0" width="12.4" height="12.4"/>
	<rect x="177.8" y="65.7" class="st0" width="12.4" height="12.4"/>
	<rect x="177.8" y="53.3" class="st0" width="12.4" height="12.4"/>
	<rect x="177.8" y="40.9" class="st0" width="12.4" height="12.4"/>
	<rect x="165.4" y="462.8" class="st0" width="12.4" height="12.4"/>
	<rect x="165.4" y="450.4" class="st0" width="12.4" height="12.4"/>
	<rect x="165.4" y="438" class="st0" width="12.4" height="12.4"/>
	<rect x="165.4" y="425.6" class="st0" width="12.4" height="12.4"/>
	<rect x="165.4" y="400.8" class="st0" width="12.4" height="12.4"/>
	<rect x="165.4" y="388.4" class="st0" width="12.4" height="12.4"/>
	<rect x="165.4" y="376" class="st0" width="12.4" height="12.4"/>
	<rect x="165.4" y="363.6" class="st0" width="12.4" height="12.4"/>
	<rect x="165.4" y="351.2" class="st0" width="12.4" height="12.4"/>
	<rect x="165.4" y="251.9" class="st0" width="12.4" height="12.4"/>
	<rect x="165.4" y="165" class="st0" width="12.4" height="12.4"/>
	<rect x="165.4" y="152.6" class="st0" width="12.4" height="12.4"/>
	<rect x="165.4" y="140.2" class="st0" width="12.4" height="12.4"/>
	<rect x="165.4" y="127.8" class="st0" width="12.4" height="12.4"/>
	<rect x="165.4" y="115.4" class="st0" width="12.4" height="12.4"/>
	<rect x="165.4" y="103" class="st0" width="12.4" height="12.4"/>
	<rect x="165.4" y="90.6" class="st0" width="12.4" height="12.4"/>
	<rect x="165.4" y="78.2" class="st0" width="12.4" height="12.4"/>
	<rect x="165.4" y="65.7" class="st0" width="12.4" height="12.4"/>
	<rect x="165.4" y="53.3" class="st0" width="12.4" height="12.4"/>
	<rect x="153" y="462.8" class="st0" width="12.4" height="12.4"/>
	<rect x="153" y="450.4" class="st0" width="12.4" height="12.4"/>
	<rect x="153" y="438" class="st0" width="12.4" height="12.4"/>
	<rect x="153" y="425.6" class="st0" width="12.4" height="12.4"/>
	<rect x="153" y="400.8" class="st0" width="12.4" height="12.4"/>
	<rect x="153" y="388.4" class="st0" width="12.4" height="12.4"/>
	<rect x="153" y="376" class="st0" width="12.4" height="12.4"/>
	<rect x="153" y="363.6" class="st0" width="12.4" height="12.4"/>
	<rect x="153" y="351.2" class="st0" width="12.4" height="12.4"/>
	<rect x="153" y="239.5" class="st0" width="12.4" height="12.4"/>
	<rect x="153" y="152.6" class="st0" width="12.4" height="12.4"/>
	<rect x="153" y="140.2" class="st0" width="12.4" height="12.4"/>
	<rect x="153" y="127.8" class="st0" width="12.4" height="12.4"/>
	<rect x="153" y="115.4" class="st0" width="12.4" height="12.4"/>
	<rect x="153" y="103" class="st0" width="12.4" height="12.4"/>
	<rect x="153" y="90.6" class="st0" width="12.4" height="12.4"/>
	<rect x="153" y="78.2" class="st0" width="12.4" height="12.4"/>
	<rect x="153" y="65.7" class="st0" width="12.4" height="12.4"/>
	<rect x="153" y="53.3" class="st0" width="12.4" height="12.4"/>
	<rect x="140.6" y="462.8" class="st0" width="12.4" height="12.4"/>
	<rect x="140.6" y="450.4" class="st0" width="12.4" height="12.4"/>
	<rect x="140.6" y="438" class="st0" width="12.4" height="12.4"/>
	<rect x="140.6" y="425.6" class="st0" width="12.4" height="12.4"/>
	<rect x="140.6" y="400.8" class="st0" width="12.4" height="12.4"/>
	<rect x="140.6" y="388.4" class="st0" width="12.4" height="12.4"/>
	<rect x="140.6" y="376" class="st0" width="12.4" height="12.4"/>
	<rect x="140.6" y="363.6" class="st0" width="12.4" height="12.4"/>
	<rect x="140.6" y="351.2" class="st0" width="12.4" height="12.4"/>
	<rect x="140.6" y="227.1" class="st0" width="12.4" height="12.4"/>
	<rect x="140.6" y="140.2" class="st0" width="12.4" height="12.4"/>
	<rect x="140.6" y="127.8" class="st0" width="12.4" height="12.4"/>
	<rect x="140.6" y="115.4" class="st0" width="12.4" height="12.4"/>
	<rect x="140.6" y="103" class="st0" width="12.4" height="12.4"/>
	<rect x="140.6" y="90.6" class="st0" width="12.4" height="12.4"/>
	<rect x="140.6" y="78.2" class="st0" width="12.4" height="12.4"/>
	<rect x="140.6" y="65.7" class="st0" width="12.4" height="12.4"/>
	<rect x="140.6" y="53.3" class="st0" width="12.4" height="12.4"/>
	<rect x="128.2" y="462.8" class="st0" width="12.4" height="12.4"/>
	<rect x="128.2" y="450.4" class="st0" width="12.4" height="12.4"/>
	<rect x="128.2" y="438" class="st0" width="12.4" height="12.4"/>
	<rect x="128.2" y="425.6" class="st0" width="12.4" height="12.4"/>
	<rect x="128.2" y="400.8" class="st0" width="12.4" height="12.4"/>
	<rect x="128.2" y="388.4" class="st0" width="12.4" height="12.4"/>
	<rect x="128.2" y="376" class="st0" width="12.4" height="12.4"/>
	<rect x="128.2" y="363.6" class="st0" width="12.4" height="12.4"/>
	<rect x="128.2" y="351.2" class="st0" width="12.4" height="12.4"/>
	<rect x="128.2" y="214.7" class="st0" width="12.4" height="12.4"/>
	<rect x="128.2" y="140.2" class="st0" width="12.4" height="12.4"/>
	<rect x="128.2" y="127.8" class="st0" width="12.4" height="12.4"/>
	<rect x="128.2" y="115.4" class="st0" width="12.4" height="12.4"/>
	<rect x="128.2" y="103" class="st0" width="12.4" height="12.4"/>
	<rect x="128.2" y="90.6" class="st0" width="12.4" height="12.4"/>
	<rect x="128.2" y="78.2" class="st0" width="12.4" height="12.4"/>
	<rect x="128.2" y="65.7" class="st0" width="12.4" height="12.4"/>
	<rect x="115.8" y="462.8" class="st0" width="12.4" height="12.4"/>
	<rect x="115.8" y="450.4" class="st0" width="12.4" height="12.4"/>
	<rect x="115.8" y="438" class="st0" width="12.4" height="12.4"/>
	<rect x="115.8" y="425.6" class="st0" width="12.4" height="12.4"/>
	<rect x="115.8" y="400.8" class="st0" width="12.4" height="12.4"/>
	<rect x="115.8" y="388.4" class="st0" width="12.4" height="12.4"/>
	<rect x="115.8" y="376" class="st0" width="12.4" height="12.4"/>
	<rect x="115.8" y="363.6" class="st0" width="12.4" height="12.4"/>
	<rect x="115.8" y="351.2" class="st0" width="12.4" height="12.4"/>
	<rect x="115.8" y="202.3" class="st0" width="12.4" height="12.4"/>
	<rect x="115.8" y="189.8" class="st0" width="12.4" height="12.4"/>
	<rect x="115.8" y="152.6" class="st0" width="12.4" height="12.4"/>
	<rect x="115.8" y="140.2" class="st0" width="12.4" height="12.4"/>
	<rect x="115.8" y="127.8" class="st0" width="12.4" height="12.4"/>
	<rect x="115.8" y="115.4" class="st0" width="12.4" height="12.4"/>
	<rect x="115.8" y="103" class="st0" width="12.4" height="12.4"/>
	<rect x="115.8" y="90.6" class="st0" width="12.4" height="12.4"/>
	<rect x="115.8" y="78.2" class="st0" width="12.4" height="12.4"/>
	<rect x="103.4" y="450.4" class="st0" width="12.4" height="12.4"/>
	<rect x="103.4" y="438" class="st0" width="12.4" height="12.4"/>
	<rect x="103.4" y="425.6" class="st0" width="12.4" height="12.4"/>
	<rect x="103.4" y="400.8" class="st0" width="12.4" height="12.4"/>
	<rect x="103.4" y="376" class="st0" width="12.4" height="12.4"/>
	<rect x="103.4" y="363.6" class="st0" width="12.4" height="12.4"/>
	<rect x="103.4" y="177.4" class="st0" width="12.4" height="12.4"/>
	<rect x="103.4" y="165" class="st0" width="12.4" height="12.4"/>
	<rect x="103.4" y="152.6" class="st0" width="12.4" height="12.4"/>
	<rect x="103.4" y="140.2" class="st0" width="12.4" height="12.4"/>
	<rect x="103.4" y="127.8" class="st0" width="12.4" height="12.4"/>
	<rect x="103.4" y="115.4" class="st0" width="12.4" height="12.4"/>
	<rect x="103.4" y="103" class="st0" width="12.4" height="12.4"/>
	<rect x="103.4" y="90.6" class="st0" width="12.4" height="12.4"/>
	<rect x="91" y="425.6" class="st0" width="12.4" height="12.4"/>
	<rect x="91" y="413.2" class="st0" width="12.4" height="12.4"/>
	<rect x="91" y="400.8" class="st0" width="12.4" height="12.4"/>
	<rect x="91" y="165" class="st0" width="12.4" height="12.4"/>
	<rect x="91" y="152.6" class="st0" width="12.4" height="12.4"/>
	<rect x="91" y="140.2" class="st0" width="12.4" height="12.4"/>
	<rect x="91" y="127.8" class="st0" width="12.4" height="12.4"/>
	<rect x="91" y="115.4" class="st0" width="12.4" height="12.4"/>
</g>
</svg>
