<?xml version="1.0" encoding="utf-8"?>
<!-- Generator: Adobe Illustrator 22.1.0, SVG Export Plug-In . SVG Version: 6.00 Build 0)  -->
<svg version="1.1" id="Layer_1" xmlns="http://www.w3.org/2000/svg"  x="0px" y="0px"
	 viewBox="0 0 500 500" style="enable-background:new 0 0 500 500;" xml:space="preserve">
<style type="text/css">
	.st0{fill:#73896E;}
</style>
<g>
	<rect x="131.5" y="465.9" class="st0" width="13.5" height="13.5"/>
	<rect x="118.1" y="465.9" class="st0" width="13.5" height="13.5"/>
	<rect x="118.1" y="452.4" class="st0" width="13.5" height="13.5"/>
	<rect x="441.5" y="425.4" class="st0" width="13.5" height="13.5"/>
	<rect x="441.5" y="412" class="st0" width="13.5" height="13.5"/>
	<rect x="441.5" y="398.5" class="st0" width="13.5" height="13.5"/>
	<rect x="441.5" y="344.6" class="st0" width="13.5" height="13.5"/>
	<rect x="441.5" y="331.1" class="st0" width="13.5" height="13.5"/>
	<rect x="441.5" y="317.6" class="st0" width="13.5" height="13.5"/>
	<rect x="441.5" y="304.1" class="st0" width="13.5" height="13.5"/>
	<rect x="428" y="438.9" class="st0" width="13.5" height="13.5"/>
	<rect x="428" y="412" class="st0" width="13.5" height="13.5"/>
	<rect x="428" y="385" class="st0" width="13.5" height="13.5"/>
	<rect x="428" y="371.5" class="st0" width="13.5" height="13.5"/>
	<rect x="428" y="358.1" class="st0" width="13.5" height="13.5"/>
	<rect x="428" y="331.1" class="st0" width="13.5" height="13.5"/>
	<rect x="428" y="290.7" class="st0" width="13.5" height="13.5"/>
	<rect x="414.6" y="438.9" class="st0" width="13.5" height="13.5"/>
	<rect x="414.6" y="412" class="st0" width="13.5" height="13.5"/>
	<rect x="414.6" y="398.5" class="st0" width="13.5" height="13.5"/>
	<rect x="414.6" y="385" class="st0" width="13.5" height="13.5"/>
	<rect x="414.6" y="331.1" class="st0" width="13.5" height="13.5"/>
	<rect x="414.6" y="277.2" class="st0" width="13.5" height="13.5"/>
	<rect x="414.6" y="75" class="st0" width="13.5" height="13.5"/>
	<rect x="414.6" y="61.5" class="st0" width="13.5" height="13.5"/>
	<rect x="414.6" y="48.1" class="st0" width="13.5" height="13.5"/>
	<rect x="401.1" y="452.4" class="st0" width="13.5" height="13.5"/>
	<rect x="401.1" y="438.9" class="st0" width="13.5" height="13.5"/>
	<rect x="401.1" y="412" class="st0" width="13.5" height="13.5"/>
	<rect x="401.1" y="385" class="st0" width="13.5" height="13.5"/>
	<rect x="401.1" y="358.1" class="st0" width="13.5" height="13.5"/>
	<rect x="401.1" y="331.1" class="st0" width="13.5" height="13.5"/>
	<rect x="401.1" y="304.1" class="st0" width="13.5" height="13.5"/>
	<rect x="401.1" y="277.2" class="st0" width="13.5" height="13.5"/>
	<rect x="401.1" y="263.7" class="st0" width="13.5" height="13.5"/>
	<rect x="401.1" y="142.4" class="st0" width="13.5" height="13.5"/>
	<rect x="401.1" y="128.9" class="st0" width="13.5" height="13.5"/>
	<rect x="401.1" y="115.5" class="st0" width="13.5" height="13.5"/>
	<rect x="401.1" y="102" class="st0" width="13.5" height="13.5"/>
	<rect x="401.1" y="88.5" class="st0" width="13.5" height="13.5"/>
	<rect x="401.1" y="75" class="st0" width="13.5" height="13.5"/>
	<rect x="401.1" y="48.1" class="st0" width="13.5" height="13.5"/>
	<rect x="401.1" y="34.6" class="st0" width="13.5" height="13.5"/>
	<rect x="387.6" y="465.9" class="st0" width="13.5" height="13.5"/>
	<rect x="387.6" y="425.4" class="st0" width="13.5" height="13.5"/>
	<rect x="387.6" y="412" class="st0" width="13.5" height="13.5"/>
	<rect x="387.6" y="398.5" class="st0" width="13.5" height="13.5"/>
	<rect x="387.6" y="385" class="st0" width="13.5" height="13.5"/>
	<rect x="387.6" y="371.5" class="st0" width="13.5" height="13.5"/>
	<rect x="387.6" y="358.1" class="st0" width="13.5" height="13.5"/>
	<rect x="387.6" y="344.6" class="st0" width="13.5" height="13.5"/>
	<rect x="387.6" y="331.1" class="st0" width="13.5" height="13.5"/>
	<rect x="387.6" y="317.6" class="st0" width="13.5" height="13.5"/>
	<rect x="387.6" y="304.1" class="st0" width="13.5" height="13.5"/>
	<rect x="387.6" y="290.7" class="st0" width="13.5" height="13.5"/>
	<rect x="387.6" y="277.2" class="st0" width="13.5" height="13.5"/>
	<rect x="387.6" y="250.2" class="st0" width="13.5" height="13.5"/>
	<rect x="387.6" y="209.8" class="st0" width="13.5" height="13.5"/>
	<rect x="387.6" y="196.3" class="st0" width="13.5" height="13.5"/>
	<rect x="387.6" y="182.8" class="st0" width="13.5" height="13.5"/>
	<rect x="387.6" y="169.4" class="st0" width="13.5" height="13.5"/>
	<rect x="387.6" y="155.9" class="st0" width="13.5" height="13.5"/>
	<rect x="387.6" y="142.4" class="st0" width="13.5" height="13.5"/>
	<rect x="387.6" y="115.5" class="st0" width="13.5" height="13.5"/>
	<rect x="387.6" y="102" class="st0" width="13.5" height="13.5"/>
	<rect x="387.6" y="88.5" class="st0" width="13.5" height="13.5"/>
	<rect x="387.6" y="34.6" class="st0" width="13.5" height="13.5"/>
	<rect x="374.1" y="465.9" class="st0" width="13.5" height="13.5"/>
	<rect x="374.1" y="425.4" class="st0" width="13.5" height="13.5"/>
	<rect x="374.1" y="277.2" class="st0" width="13.5" height="13.5"/>
	<rect x="374.1" y="250.2" class="st0" width="13.5" height="13.5"/>
	<rect x="374.1" y="223.3" class="st0" width="13.5" height="13.5"/>
	<rect x="374.1" y="209.8" class="st0" width="13.5" height="13.5"/>
	<rect x="374.1" y="155.9" class="st0" width="13.5" height="13.5"/>
	<rect x="374.1" y="115.5" class="st0" width="13.5" height="13.5"/>
	<rect x="374.1" y="102" class="st0" width="13.5" height="13.5"/>
	<rect x="374.1" y="88.5" class="st0" width="13.5" height="13.5"/>
	<rect x="374.1" y="75" class="st0" width="13.5" height="13.5"/>
	<rect x="374.1" y="34.6" class="st0" width="13.5" height="13.5"/>
	<rect x="360.7" y="465.9" class="st0" width="13.5" height="13.5"/>
	<rect x="360.7" y="452.4" class="st0" width="13.5" height="13.5"/>
	<rect x="360.7" y="438.9" class="st0" width="13.5" height="13.5"/>
	<rect x="360.7" y="425.4" class="st0" width="13.5" height="13.5"/>
	<rect x="360.7" y="398.5" class="st0" width="13.5" height="13.5"/>
	<rect x="360.7" y="371.5" class="st0" width="13.5" height="13.5"/>
	<rect x="360.7" y="358.1" class="st0" width="13.5" height="13.5"/>
	<rect x="360.7" y="317.6" class="st0" width="13.5" height="13.5"/>
	<rect x="360.7" y="304.1" class="st0" width="13.5" height="13.5"/>
	<rect x="360.7" y="290.7" class="st0" width="13.5" height="13.5"/>
	<rect x="360.7" y="277.2" class="st0" width="13.5" height="13.5"/>
	<rect x="360.7" y="250.2" class="st0" width="13.5" height="13.5"/>
	<rect x="360.7" y="209.8" class="st0" width="13.5" height="13.5"/>
	<rect x="360.7" y="196.3" class="st0" width="13.5" height="13.5"/>
	<rect x="360.7" y="155.9" class="st0" width="13.5" height="13.5"/>
	<rect x="360.7" y="115.5" class="st0" width="13.5" height="13.5"/>
	<rect x="360.7" y="88.5" class="st0" width="13.5" height="13.5"/>
	<rect x="360.7" y="75" class="st0" width="13.5" height="13.5"/>
	<rect x="360.7" y="34.6" class="st0" width="13.5" height="13.5"/>
	<rect x="347.2" y="465.9" class="st0" width="13.5" height="13.5"/>
	<rect x="347.2" y="425.4" class="st0" width="13.5" height="13.5"/>
	<rect x="347.2" y="412" class="st0" width="13.5" height="13.5"/>
	<rect x="347.2" y="398.5" class="st0" width="13.5" height="13.5"/>
	<rect x="347.2" y="371.5" class="st0" width="13.5" height="13.5"/>
	<rect x="347.2" y="358.1" class="st0" width="13.5" height="13.5"/>
	<rect x="347.2" y="331.1" class="st0" width="13.5" height="13.5"/>
	<rect x="347.2" y="317.6" class="st0" width="13.5" height="13.5"/>
	<rect x="347.2" y="304.1" class="st0" width="13.5" height="13.5"/>
	<rect x="347.2" y="277.2" class="st0" width="13.5" height="13.5"/>
	<rect x="347.2" y="250.2" class="st0" width="13.5" height="13.5"/>
	<rect x="347.2" y="209.8" class="st0" width="13.5" height="13.5"/>
	<rect x="347.2" y="196.3" class="st0" width="13.5" height="13.5"/>
	<rect x="347.2" y="155.9" class="st0" width="13.5" height="13.5"/>
	<rect x="347.2" y="128.9" class="st0" width="13.5" height="13.5"/>
	<rect x="347.2" y="115.5" class="st0" width="13.5" height="13.5"/>
	<rect x="347.2" y="102" class="st0" width="13.5" height="13.5"/>
	<rect x="347.2" y="88.5" class="st0" width="13.5" height="13.5"/>
	<rect x="347.2" y="75" class="st0" width="13.5" height="13.5"/>
	<rect x="347.2" y="34.6" class="st0" width="13.5" height="13.5"/>
	<rect x="333.7" y="465.9" class="st0" width="13.5" height="13.5"/>
	<rect x="333.7" y="425.4" class="st0" width="13.5" height="13.5"/>
	<rect x="333.7" y="358.1" class="st0" width="13.5" height="13.5"/>
	<rect x="333.7" y="317.6" class="st0" width="13.5" height="13.5"/>
	<rect x="333.7" y="277.2" class="st0" width="13.5" height="13.5"/>
	<rect x="333.7" y="250.2" class="st0" width="13.5" height="13.5"/>
	<rect x="333.7" y="223.3" class="st0" width="13.5" height="13.5"/>
	<rect x="333.7" y="209.8" class="st0" width="13.5" height="13.5"/>
	<rect x="333.7" y="196.3" class="st0" width="13.5" height="13.5"/>
	<rect x="333.7" y="182.8" class="st0" width="13.5" height="13.5"/>
	<rect x="333.7" y="169.4" class="st0" width="13.5" height="13.5"/>
	<rect x="333.7" y="155.9" class="st0" width="13.5" height="13.5"/>
	<rect x="333.7" y="142.4" class="st0" width="13.5" height="13.5"/>
	<rect x="333.7" y="128.9" class="st0" width="13.5" height="13.5"/>
	<rect x="333.7" y="115.5" class="st0" width="13.5" height="13.5"/>
	<rect x="333.7" y="102" class="st0" width="13.5" height="13.5"/>
	<rect x="333.7" y="88.5" class="st0" width="13.5" height="13.5"/>
	<rect x="333.7" y="75" class="st0" width="13.5" height="13.5"/>
	<rect x="333.7" y="34.6" class="st0" width="13.5" height="13.5"/>
	<rect x="320.2" y="465.9" class="st0" width="13.5" height="13.5"/>
	<rect x="320.2" y="452.4" class="st0" width="13.5" height="13.5"/>
	<rect x="320.2" y="438.9" class="st0" width="13.5" height="13.5"/>
	<rect x="320.2" y="425.4" class="st0" width="13.5" height="13.5"/>
	<rect x="320.2" y="412" class="st0" width="13.5" height="13.5"/>
	<rect x="320.2" y="398.5" class="st0" width="13.5" height="13.5"/>
	<rect x="320.2" y="385" class="st0" width="13.5" height="13.5"/>
	<rect x="320.2" y="371.5" class="st0" width="13.5" height="13.5"/>
	<rect x="320.2" y="358.1" class="st0" width="13.5" height="13.5"/>
	<rect x="320.2" y="344.6" class="st0" width="13.5" height="13.5"/>
	<rect x="320.2" y="331.1" class="st0" width="13.5" height="13.5"/>
	<rect x="320.2" y="317.6" class="st0" width="13.5" height="13.5"/>
	<rect x="320.2" y="304.1" class="st0" width="13.5" height="13.5"/>
	<rect x="320.2" y="290.7" class="st0" width="13.5" height="13.5"/>
	<rect x="320.2" y="277.2" class="st0" width="13.5" height="13.5"/>
	<rect x="320.2" y="250.2" class="st0" width="13.5" height="13.5"/>
	<rect x="320.2" y="223.3" class="st0" width="13.5" height="13.5"/>
	<rect x="320.2" y="182.8" class="st0" width="13.5" height="13.5"/>
	<rect x="320.2" y="155.9" class="st0" width="13.5" height="13.5"/>
	<rect x="320.2" y="128.9" class="st0" width="13.5" height="13.5"/>
	<rect x="320.2" y="115.5" class="st0" width="13.5" height="13.5"/>
	<rect x="320.2" y="102" class="st0" width="13.5" height="13.5"/>
	<rect x="320.2" y="88.5" class="st0" width="13.5" height="13.5"/>
	<rect x="320.2" y="75" class="st0" width="13.5" height="13.5"/>
	<rect x="320.2" y="34.6" class="st0" width="13.5" height="13.5"/>
	<rect x="306.7" y="465.9" class="st0" width="13.5" height="13.5"/>
	<rect x="306.7" y="425.4" class="st0" width="13.5" height="13.5"/>
	<rect x="306.7" y="358.1" class="st0" width="13.5" height="13.5"/>
	<rect x="306.7" y="317.6" class="st0" width="13.5" height="13.5"/>
	<rect x="306.7" y="277.2" class="st0" width="13.5" height="13.5"/>
	<rect x="306.7" y="250.2" class="st0" width="13.5" height="13.5"/>
	<rect x="306.7" y="223.3" class="st0" width="13.5" height="13.5"/>
	<rect x="306.7" y="196.3" class="st0" width="13.5" height="13.5"/>
	<rect x="306.7" y="182.8" class="st0" width="13.5" height="13.5"/>
	<rect x="306.7" y="155.9" class="st0" width="13.5" height="13.5"/>
	<rect x="306.7" y="115.5" class="st0" width="13.5" height="13.5"/>
	<rect x="306.7" y="88.5" class="st0" width="13.5" height="13.5"/>
	<rect x="306.7" y="75" class="st0" width="13.5" height="13.5"/>
	<rect x="306.7" y="34.6" class="st0" width="13.5" height="13.5"/>
	<rect x="293.3" y="465.9" class="st0" width="13.5" height="13.5"/>
	<rect x="293.3" y="452.4" class="st0" width="13.5" height="13.5"/>
	<rect x="293.3" y="425.4" class="st0" width="13.5" height="13.5"/>
	<rect x="293.3" y="398.5" class="st0" width="13.5" height="13.5"/>
	<rect x="293.3" y="385" class="st0" width="13.5" height="13.5"/>
	<rect x="293.3" y="371.5" class="st0" width="13.5" height="13.5"/>
	<rect x="293.3" y="358.1" class="st0" width="13.5" height="13.5"/>
	<rect x="293.3" y="331.1" class="st0" width="13.5" height="13.5"/>
	<rect x="293.3" y="317.6" class="st0" width="13.5" height="13.5"/>
	<rect x="293.3" y="304.1" class="st0" width="13.5" height="13.5"/>
	<rect x="293.3" y="277.2" class="st0" width="13.5" height="13.5"/>
	<rect x="293.3" y="250.2" class="st0" width="13.5" height="13.5"/>
	<rect x="293.3" y="223.3" class="st0" width="13.5" height="13.5"/>
	<rect x="293.3" y="155.9" class="st0" width="13.5" height="13.5"/>
	<rect x="293.3" y="115.5" class="st0" width="13.5" height="13.5"/>
	<rect x="293.3" y="88.5" class="st0" width="13.5" height="13.5"/>
	<rect x="293.3" y="75" class="st0" width="13.5" height="13.5"/>
	<rect x="293.3" y="34.6" class="st0" width="13.5" height="13.5"/>
	<rect x="279.8" y="465.9" class="st0" width="13.5" height="13.5"/>
	<rect x="279.8" y="452.4" class="st0" width="13.5" height="13.5"/>
	<rect x="279.8" y="425.4" class="st0" width="13.5" height="13.5"/>
	<rect x="279.8" y="398.5" class="st0" width="13.5" height="13.5"/>
	<rect x="279.8" y="385" class="st0" width="13.5" height="13.5"/>
	<rect x="279.8" y="371.5" class="st0" width="13.5" height="13.5"/>
	<rect x="279.8" y="358.1" class="st0" width="13.5" height="13.5"/>
	<rect x="279.8" y="331.1" class="st0" width="13.5" height="13.5"/>
	<rect x="279.8" y="317.6" class="st0" width="13.5" height="13.5"/>
	<rect x="279.8" y="304.1" class="st0" width="13.5" height="13.5"/>
	<rect x="279.8" y="277.2" class="st0" width="13.5" height="13.5"/>
	<rect x="279.8" y="263.7" class="st0" width="13.5" height="13.5"/>
	<rect x="279.8" y="250.2" class="st0" width="13.5" height="13.5"/>
	<rect x="279.8" y="223.3" class="st0" width="13.5" height="13.5"/>
	<rect x="279.8" y="209.8" class="st0" width="13.5" height="13.5"/>
	<rect x="279.8" y="196.3" class="st0" width="13.5" height="13.5"/>
	<rect x="279.8" y="182.8" class="st0" width="13.5" height="13.5"/>
	<rect x="279.8" y="169.4" class="st0" width="13.5" height="13.5"/>
	<rect x="279.8" y="155.9" class="st0" width="13.5" height="13.5"/>
	<rect x="279.8" y="142.4" class="st0" width="13.5" height="13.5"/>
	<rect x="279.8" y="128.9" class="st0" width="13.5" height="13.5"/>
	<rect x="279.8" y="115.5" class="st0" width="13.5" height="13.5"/>
	<rect x="279.8" y="102" class="st0" width="13.5" height="13.5"/>
	<rect x="279.8" y="88.5" class="st0" width="13.5" height="13.5"/>
	<rect x="279.8" y="75" class="st0" width="13.5" height="13.5"/>
	<rect x="279.8" y="34.6" class="st0" width="13.5" height="13.5"/>
	<rect x="266.3" y="465.9" class="st0" width="13.5" height="13.5"/>
	<rect x="266.3" y="425.4" class="st0" width="13.5" height="13.5"/>
	<rect x="266.3" y="277.2" class="st0" width="13.5" height="13.5"/>
	<rect x="266.3" y="250.2" class="st0" width="13.5" height="13.5"/>
	<rect x="266.3" y="223.3" class="st0" width="13.5" height="13.5"/>
	<rect x="266.3" y="155.9" class="st0" width="13.5" height="13.5"/>
	<rect x="266.3" y="115.5" class="st0" width="13.5" height="13.5"/>
	<rect x="266.3" y="88.5" class="st0" width="13.5" height="13.5"/>
	<rect x="266.3" y="75" class="st0" width="13.5" height="13.5"/>
	<rect x="266.3" y="34.6" class="st0" width="13.5" height="13.5"/>
	<rect x="252.8" y="465.9" class="st0" width="13.5" height="13.5"/>
	<rect x="252.8" y="452.4" class="st0" width="13.5" height="13.5"/>
	<rect x="252.8" y="438.9" class="st0" width="13.5" height="13.5"/>
	<rect x="252.8" y="425.4" class="st0" width="13.5" height="13.5"/>
	<rect x="252.8" y="412" class="st0" width="13.5" height="13.5"/>
	<rect x="252.8" y="398.5" class="st0" width="13.5" height="13.5"/>
	<rect x="252.8" y="385" class="st0" width="13.5" height="13.5"/>
	<rect x="252.8" y="371.5" class="st0" width="13.5" height="13.5"/>
	<rect x="252.8" y="358.1" class="st0" width="13.5" height="13.5"/>
	<rect x="252.8" y="344.6" class="st0" width="13.5" height="13.5"/>
	<rect x="252.8" y="331.1" class="st0" width="13.5" height="13.5"/>
	<rect x="252.8" y="317.6" class="st0" width="13.5" height="13.5"/>
	<rect x="252.8" y="304.1" class="st0" width="13.5" height="13.5"/>
	<rect x="252.8" y="277.2" class="st0" width="13.5" height="13.5"/>
	<rect x="252.8" y="250.2" class="st0" width="13.5" height="13.5"/>
	<rect x="252.8" y="223.3" class="st0" width="13.5" height="13.5"/>
	<rect x="252.8" y="196.3" class="st0" width="13.5" height="13.5"/>
	<rect x="252.8" y="182.8" class="st0" width="13.5" height="13.5"/>
	<rect x="252.8" y="155.9" class="st0" width="13.5" height="13.5"/>
	<rect x="252.8" y="115.5" class="st0" width="13.5" height="13.5"/>
	<rect x="252.8" y="102" class="st0" width="13.5" height="13.5"/>
	<rect x="252.8" y="88.5" class="st0" width="13.5" height="13.5"/>
	<rect x="252.8" y="75" class="st0" width="13.5" height="13.5"/>
	<rect x="252.8" y="34.6" class="st0" width="13.5" height="13.5"/>
	<rect x="239.4" y="465.9" class="st0" width="13.5" height="13.5"/>
	<rect x="239.4" y="425.4" class="st0" width="13.5" height="13.5"/>
	<rect x="239.4" y="358.1" class="st0" width="13.5" height="13.5"/>
	<rect x="239.4" y="317.6" class="st0" width="13.5" height="13.5"/>
	<rect x="239.4" y="277.2" class="st0" width="13.5" height="13.5"/>
	<rect x="239.4" y="250.2" class="st0" width="13.5" height="13.5"/>
	<rect x="239.4" y="223.3" class="st0" width="13.5" height="13.5"/>
	<rect x="239.4" y="209.8" class="st0" width="13.5" height="13.5"/>
	<rect x="239.4" y="196.3" class="st0" width="13.5" height="13.5"/>
	<rect x="239.4" y="182.8" class="st0" width="13.5" height="13.5"/>
	<rect x="239.4" y="169.4" class="st0" width="13.5" height="13.5"/>
	<rect x="239.4" y="155.9" class="st0" width="13.5" height="13.5"/>
	<rect x="239.4" y="128.9" class="st0" width="13.5" height="13.5"/>
	<rect x="239.4" y="115.5" class="st0" width="13.5" height="13.5"/>
	<rect x="239.4" y="102" class="st0" width="13.5" height="13.5"/>
	<rect x="239.4" y="88.5" class="st0" width="13.5" height="13.5"/>
	<rect x="239.4" y="75" class="st0" width="13.5" height="13.5"/>
	<rect x="239.4" y="34.6" class="st0" width="13.5" height="13.5"/>
	<rect x="225.9" y="465.9" class="st0" width="13.5" height="13.5"/>
	<rect x="225.9" y="452.4" class="st0" width="13.5" height="13.5"/>
	<rect x="225.9" y="425.4" class="st0" width="13.5" height="13.5"/>
	<rect x="225.9" y="412" class="st0" width="13.5" height="13.5"/>
	<rect x="225.9" y="398.5" class="st0" width="13.5" height="13.5"/>
	<rect x="225.9" y="385" class="st0" width="13.5" height="13.5"/>
	<rect x="225.9" y="371.5" class="st0" width="13.5" height="13.5"/>
	<rect x="225.9" y="358.1" class="st0" width="13.5" height="13.5"/>
	<rect x="225.9" y="317.6" class="st0" width="13.5" height="13.5"/>
	<rect x="225.9" y="304.1" class="st0" width="13.5" height="13.5"/>
	<rect x="225.9" y="277.2" class="st0" width="13.5" height="13.5"/>
	<rect x="225.9" y="250.2" class="st0" width="13.5" height="13.5"/>
	<rect x="225.9" y="209.8" class="st0" width="13.5" height="13.5"/>
	<rect x="225.9" y="196.3" class="st0" width="13.5" height="13.5"/>
	<rect x="225.9" y="182.8" class="st0" width="13.5" height="13.5"/>
	<rect x="225.9" y="155.9" class="st0" width="13.5" height="13.5"/>
	<rect x="225.9" y="128.9" class="st0" width="13.5" height="13.5"/>
	<rect x="225.9" y="115.5" class="st0" width="13.5" height="13.5"/>
	<rect x="225.9" y="102" class="st0" width="13.5" height="13.5"/>
	<rect x="225.9" y="88.5" class="st0" width="13.5" height="13.5"/>
	<rect x="225.9" y="75" class="st0" width="13.5" height="13.5"/>
	<rect x="225.9" y="34.6" class="st0" width="13.5" height="13.5"/>
	<rect x="212.4" y="452.4" class="st0" width="13.5" height="13.5"/>
	<rect x="212.4" y="425.4" class="st0" width="13.5" height="13.5"/>
	<rect x="212.4" y="398.5" class="st0" width="13.5" height="13.5"/>
	<rect x="212.4" y="385" class="st0" width="13.5" height="13.5"/>
	<rect x="212.4" y="371.5" class="st0" width="13.5" height="13.5"/>
	<rect x="212.4" y="358.1" class="st0" width="13.5" height="13.5"/>
	<rect x="212.4" y="331.1" class="st0" width="13.5" height="13.5"/>
	<rect x="212.4" y="317.6" class="st0" width="13.5" height="13.5"/>
	<rect x="212.4" y="304.1" class="st0" width="13.5" height="13.5"/>
	<rect x="212.4" y="277.2" class="st0" width="13.5" height="13.5"/>
	<rect x="212.4" y="263.7" class="st0" width="13.5" height="13.5"/>
	<rect x="212.4" y="209.8" class="st0" width="13.5" height="13.5"/>
	<rect x="212.4" y="196.3" class="st0" width="13.5" height="13.5"/>
	<rect x="212.4" y="182.8" class="st0" width="13.5" height="13.5"/>
	<rect x="212.4" y="155.9" class="st0" width="13.5" height="13.5"/>
	<rect x="212.4" y="142.4" class="st0" width="13.5" height="13.5"/>
	<rect x="212.4" y="128.9" class="st0" width="13.5" height="13.5"/>
	<rect x="212.4" y="115.5" class="st0" width="13.5" height="13.5"/>
	<rect x="212.4" y="102" class="st0" width="13.5" height="13.5"/>
	<rect x="212.4" y="88.5" class="st0" width="13.5" height="13.5"/>
	<rect x="212.4" y="75" class="st0" width="13.5" height="13.5"/>
	<rect x="212.4" y="21.1" class="st0" width="13.5" height="13.5"/>
	<rect x="198.9" y="465.9" class="st0" width="13.5" height="13.5"/>
	<rect x="198.9" y="452.4" class="st0" width="13.5" height="13.5"/>
	<rect x="198.9" y="425.4" class="st0" width="13.5" height="13.5"/>
	<rect x="198.9" y="358.1" class="st0" width="13.5" height="13.5"/>
	<rect x="198.9" y="331.1" class="st0" width="13.5" height="13.5"/>
	<rect x="198.9" y="317.6" class="st0" width="13.5" height="13.5"/>
	<rect x="198.9" y="304.1" class="st0" width="13.5" height="13.5"/>
	<rect x="198.9" y="290.7" class="st0" width="13.5" height="13.5"/>
	<rect x="198.9" y="277.2" class="st0" width="13.5" height="13.5"/>
	<rect x="198.9" y="250.2" class="st0" width="13.5" height="13.5"/>
	<rect x="198.9" y="223.3" class="st0" width="13.5" height="13.5"/>
	<rect x="198.9" y="209.8" class="st0" width="13.5" height="13.5"/>
	<rect x="198.9" y="182.8" class="st0" width="13.5" height="13.5"/>
	<rect x="198.9" y="155.9" class="st0" width="13.5" height="13.5"/>
	<rect x="198.9" y="128.9" class="st0" width="13.5" height="13.5"/>
	<rect x="198.9" y="115.5" class="st0" width="13.5" height="13.5"/>
	<rect x="198.9" y="102" class="st0" width="13.5" height="13.5"/>
	<rect x="198.9" y="88.5" class="st0" width="13.5" height="13.5"/>
	<rect x="198.9" y="75" class="st0" width="13.5" height="13.5"/>
	<rect x="198.9" y="21.1" class="st0" width="13.5" height="13.5"/>
	<rect x="185.4" y="465.9" class="st0" width="13.5" height="13.5"/>
	<rect x="185.4" y="452.4" class="st0" width="13.5" height="13.5"/>
	<rect x="185.4" y="425.4" class="st0" width="13.5" height="13.5"/>
	<rect x="185.4" y="398.5" class="st0" width="13.5" height="13.5"/>
	<rect x="185.4" y="385" class="st0" width="13.5" height="13.5"/>
	<rect x="185.4" y="358.1" class="st0" width="13.5" height="13.5"/>
	<rect x="185.4" y="331.1" class="st0" width="13.5" height="13.5"/>
	<rect x="185.4" y="317.6" class="st0" width="13.5" height="13.5"/>
	<rect x="185.4" y="304.1" class="st0" width="13.5" height="13.5"/>
	<rect x="185.4" y="277.2" class="st0" width="13.5" height="13.5"/>
	<rect x="185.4" y="250.2" class="st0" width="13.5" height="13.5"/>
	<rect x="185.4" y="223.3" class="st0" width="13.5" height="13.5"/>
	<rect x="185.4" y="182.8" class="st0" width="13.5" height="13.5"/>
	<rect x="185.4" y="155.9" class="st0" width="13.5" height="13.5"/>
	<rect x="185.4" y="128.9" class="st0" width="13.5" height="13.5"/>
	<rect x="185.4" y="115.5" class="st0" width="13.5" height="13.5"/>
	<rect x="185.4" y="102" class="st0" width="13.5" height="13.5"/>
	<rect x="185.4" y="88.5" class="st0" width="13.5" height="13.5"/>
	<rect x="185.4" y="75" class="st0" width="13.5" height="13.5"/>
	<rect x="185.4" y="21.1" class="st0" width="13.5" height="13.5"/>
	<rect x="172" y="465.9" class="st0" width="13.5" height="13.5"/>
	<rect x="172" y="452.4" class="st0" width="13.5" height="13.5"/>
	<rect x="172" y="425.4" class="st0" width="13.5" height="13.5"/>
	<rect x="172" y="398.5" class="st0" width="13.5" height="13.5"/>
	<rect x="172" y="277.2" class="st0" width="13.5" height="13.5"/>
	<rect x="172" y="250.2" class="st0" width="13.5" height="13.5"/>
	<rect x="172" y="223.3" class="st0" width="13.5" height="13.5"/>
	<rect x="172" y="209.8" class="st0" width="13.5" height="13.5"/>
	<rect x="172" y="196.3" class="st0" width="13.5" height="13.5"/>
	<rect x="172" y="182.8" class="st0" width="13.5" height="13.5"/>
	<rect x="172" y="169.4" class="st0" width="13.5" height="13.5"/>
	<rect x="172" y="155.9" class="st0" width="13.5" height="13.5"/>
	<rect x="172" y="115.5" class="st0" width="13.5" height="13.5"/>
	<rect x="172" y="102" class="st0" width="13.5" height="13.5"/>
	<rect x="172" y="88.5" class="st0" width="13.5" height="13.5"/>
	<rect x="172" y="75" class="st0" width="13.5" height="13.5"/>
	<rect x="172" y="21.1" class="st0" width="13.5" height="13.5"/>
	<rect x="158.5" y="465.9" class="st0" width="13.5" height="13.5"/>
	<rect x="158.5" y="425.4" class="st0" width="13.5" height="13.5"/>
	<rect x="158.5" y="412" class="st0" width="13.5" height="13.5"/>
	<rect x="158.5" y="398.5" class="st0" width="13.5" height="13.5"/>
	<rect x="158.5" y="385" class="st0" width="13.5" height="13.5"/>
	<rect x="158.5" y="371.5" class="st0" width="13.5" height="13.5"/>
	<rect x="158.5" y="358.1" class="st0" width="13.5" height="13.5"/>
	<rect x="158.5" y="344.6" class="st0" width="13.5" height="13.5"/>
	<rect x="158.5" y="331.1" class="st0" width="13.5" height="13.5"/>
	<rect x="158.5" y="317.6" class="st0" width="13.5" height="13.5"/>
	<rect x="158.5" y="304.1" class="st0" width="13.5" height="13.5"/>
	<rect x="158.5" y="290.7" class="st0" width="13.5" height="13.5"/>
	<rect x="158.5" y="277.2" class="st0" width="13.5" height="13.5"/>
	<rect x="158.5" y="263.7" class="st0" width="13.5" height="13.5"/>
	<rect x="158.5" y="250.2" class="st0" width="13.5" height="13.5"/>
	<rect x="158.5" y="223.3" class="st0" width="13.5" height="13.5"/>
	<rect x="158.5" y="155.9" class="st0" width="13.5" height="13.5"/>
	<rect x="158.5" y="115.5" class="st0" width="13.5" height="13.5"/>
	<rect x="158.5" y="102" class="st0" width="13.5" height="13.5"/>
	<rect x="158.5" y="88.5" class="st0" width="13.5" height="13.5"/>
	<rect x="158.5" y="21.1" class="st0" width="13.5" height="13.5"/>
	<rect x="145" y="465.9" class="st0" width="13.5" height="13.5"/>
	<rect x="145" y="425.4" class="st0" width="13.5" height="13.5"/>
	<rect x="145" y="398.5" class="st0" width="13.5" height="13.5"/>
	<rect x="145" y="385" class="st0" width="13.5" height="13.5"/>
	<rect x="145" y="371.5" class="st0" width="13.5" height="13.5"/>
	<rect x="145" y="358.1" class="st0" width="13.5" height="13.5"/>
	<rect x="145" y="344.6" class="st0" width="13.5" height="13.5"/>
	<rect x="145" y="331.1" class="st0" width="13.5" height="13.5"/>
	<rect x="145" y="317.6" class="st0" width="13.5" height="13.5"/>
	<rect x="145" y="304.1" class="st0" width="13.5" height="13.5"/>
	<rect x="145" y="290.7" class="st0" width="13.5" height="13.5"/>
	<rect x="145" y="277.2" class="st0" width="13.5" height="13.5"/>
	<rect x="145" y="263.7" class="st0" width="13.5" height="13.5"/>
	<rect x="145" y="250.2" class="st0" width="13.5" height="13.5"/>
	<rect x="145" y="223.3" class="st0" width="13.5" height="13.5"/>
	<rect x="145" y="209.8" class="st0" width="13.5" height="13.5"/>
	<rect x="145" y="196.3" class="st0" width="13.5" height="13.5"/>
	<rect x="145" y="182.8" class="st0" width="13.5" height="13.5"/>
	<rect x="145" y="169.4" class="st0" width="13.5" height="13.5"/>
	<rect x="145" y="155.9" class="st0" width="13.5" height="13.5"/>
	<rect x="145" y="115.5" class="st0" width="13.5" height="13.5"/>
	<rect x="145" y="102" class="st0" width="13.5" height="13.5"/>
	<rect x="145" y="88.5" class="st0" width="13.5" height="13.5"/>
	<rect x="145" y="21.1" class="st0" width="13.5" height="13.5"/>
	<rect x="131.5" y="452.4" class="st0" width="13.5" height="13.5"/>
	<rect x="131.5" y="438.9" class="st0" width="13.5" height="13.5"/>
	<rect x="131.5" y="425.4" class="st0" width="13.5" height="13.5"/>
	<rect x="131.5" y="412" class="st0" width="13.5" height="13.5"/>
	<rect x="131.5" y="250.2" class="st0" width="13.5" height="13.5"/>
	<rect x="131.5" y="169.4" class="st0" width="13.5" height="13.5"/>
	<rect x="131.5" y="155.9" class="st0" width="13.5" height="13.5"/>
	<rect x="131.5" y="142.4" class="st0" width="13.5" height="13.5"/>
	<rect x="131.5" y="128.9" class="st0" width="13.5" height="13.5"/>
	<rect x="131.5" y="115.5" class="st0" width="13.5" height="13.5"/>
	<rect x="131.5" y="102" class="st0" width="13.5" height="13.5"/>
	<rect x="131.5" y="88.5" class="st0" width="13.5" height="13.5"/>
	<rect x="131.5" y="21.1" class="st0" width="13.5" height="13.5"/>
	<rect x="118.1" y="438.9" class="st0" width="13.5" height="13.5"/>
	<rect x="118.1" y="425.4" class="st0" width="13.5" height="13.5"/>
	<rect x="118.1" y="412" class="st0" width="13.5" height="13.5"/>
	<rect x="118.1" y="250.2" class="st0" width="13.5" height="13.5"/>
	<rect x="118.1" y="236.8" class="st0" width="13.5" height="13.5"/>
	<rect x="118.1" y="155.9" class="st0" width="13.5" height="13.5"/>
	<rect x="118.1" y="142.4" class="st0" width="13.5" height="13.5"/>
	<rect x="118.1" y="128.9" class="st0" width="13.5" height="13.5"/>
	<rect x="118.1" y="115.5" class="st0" width="13.5" height="13.5"/>
	<rect x="118.1" y="102" class="st0" width="13.5" height="13.5"/>
	<rect x="118.1" y="88.5" class="st0" width="13.5" height="13.5"/>
	<rect x="118.1" y="21.1" class="st0" width="13.5" height="13.5"/>
	<rect x="104.6" y="465.9" class="st0" width="13.5" height="13.5"/>
	<rect x="104.6" y="452.4" class="st0" width="13.5" height="13.5"/>
	<rect x="104.6" y="438.9" class="st0" width="13.5" height="13.5"/>
	<rect x="104.6" y="236.8" class="st0" width="13.5" height="13.5"/>
	<rect x="104.6" y="102" class="st0" width="13.5" height="13.5"/>
	<rect x="104.6" y="88.5" class="st0" width="13.5" height="13.5"/>
	<rect x="104.6" y="75" class="st0" width="13.5" height="13.5"/>
	<rect x="104.6" y="61.5" class="st0" width="13.5" height="13.5"/>
	<rect x="104.6" y="34.6" class="st0" width="13.5" height="13.5"/>
	<rect x="104.6" y="21.1" class="st0" width="13.5" height="13.5"/>
	<rect x="91.1" y="465.9" class="st0" width="13.5" height="13.5"/>
	<rect x="91.1" y="317.6" class="st0" width="13.5" height="13.5"/>
	<rect x="91.1" y="304.1" class="st0" width="13.5" height="13.5"/>
	<rect x="91.1" y="236.8" class="st0" width="13.5" height="13.5"/>
	<rect x="91.1" y="102" class="st0" width="13.5" height="13.5"/>
	<rect x="91.1" y="88.5" class="st0" width="13.5" height="13.5"/>
	<rect x="91.1" y="75" class="st0" width="13.5" height="13.5"/>
	<rect x="91.1" y="61.5" class="st0" width="13.5" height="13.5"/>
	<rect x="91.1" y="48.1" class="st0" width="13.5" height="13.5"/>
	<rect x="91.1" y="34.6" class="st0" width="13.5" height="13.5"/>
	<rect x="77.6" y="465.9" class="st0" width="13.5" height="13.5"/>
	<rect x="77.6" y="236.8" class="st0" width="13.5" height="13.5"/>
	<rect x="64.2" y="452.4" class="st0" width="13.5" height="13.5"/>
	<rect x="64.2" y="438.9" class="st0" width="13.5" height="13.5"/>
	<rect x="64.2" y="425.4" class="st0" width="13.5" height="13.5"/>
	<rect x="64.2" y="412" class="st0" width="13.5" height="13.5"/>
	<rect x="64.2" y="398.5" class="st0" width="13.5" height="13.5"/>
	<rect x="64.2" y="385" class="st0" width="13.5" height="13.5"/>
	<rect x="64.2" y="371.5" class="st0" width="13.5" height="13.5"/>
	<rect x="64.2" y="358.1" class="st0" width="13.5" height="13.5"/>
	<rect x="64.2" y="344.6" class="st0" width="13.5" height="13.5"/>
	<rect x="64.2" y="331.1" class="st0" width="13.5" height="13.5"/>
	<rect x="64.2" y="317.6" class="st0" width="13.5" height="13.5"/>
	<rect x="64.2" y="304.1" class="st0" width="13.5" height="13.5"/>
	<rect x="64.2" y="290.7" class="st0" width="13.5" height="13.5"/>
	<rect x="64.2" y="277.2" class="st0" width="13.5" height="13.5"/>
	<rect x="64.2" y="263.7" class="st0" width="13.5" height="13.5"/>
	<rect x="64.2" y="250.2" class="st0" width="13.5" height="13.5"/>
</g>
</svg>
