<?xml version="1.0" encoding="utf-8"?>
<!-- Generator: Adobe Illustrator 22.1.0, SVG Export Plug-In . SVG Version: 6.00 Build 0)  -->
<svg version="1.1" id="Layer_1" xmlns="http://www.w3.org/2000/svg"  x="0px" y="0px"
	 viewBox="0 0 500 500" style="enable-background:new 0 0 500 500;" xml:space="preserve">
<style type="text/css">
	.st0{fill:#73896E;}
</style>
<g>
	<rect x="404.4" y="106.5" class="st0" width="16.8" height="16.8"/>
	<rect x="421.2" y="89.7" class="st0" width="16.8" height="16.8"/>
	<rect x="387.6" y="106.5" class="st0" width="16.8" height="16.8"/>
	<rect x="387.6" y="89.7" class="st0" width="16.8" height="16.8"/>
	<rect x="421.2" y="72.9" class="st0" width="16.8" height="16.8"/>
	<rect x="404.4" y="72.9" class="st0" width="16.8" height="16.8"/>
	<rect x="438.1" y="106.5" class="st0" width="16.8" height="16.8"/>
	<rect x="438.1" y="89.7" class="st0" width="16.8" height="16.8"/>
	<rect x="421.2" y="123.4" class="st0" width="16.8" height="16.8"/>
	<rect x="404.4" y="123.4" class="st0" width="16.8" height="16.8"/>
	<rect x="353.9" y="190.7" class="st0" width="16.8" height="16.8"/>
	<rect x="337.1" y="173.9" class="st0" width="16.8" height="16.8"/>
	<rect x="320.2" y="157" class="st0" width="16.8" height="16.8"/>
	<rect x="303.4" y="140.2" class="st0" width="16.8" height="16.8"/>
	<rect x="353.9" y="140.2" class="st0" width="16.8" height="16.8"/>
	<rect x="337.1" y="157" class="st0" width="16.8" height="16.8"/>
	<rect x="320.2" y="173.9" class="st0" width="16.8" height="16.8"/>
	<rect x="303.4" y="190.7" class="st0" width="16.8" height="16.8"/>
	<rect x="454.9" y="460.2" class="st0" width="16.8" height="16.8"/>
	<rect x="454.9" y="443.3" class="st0" width="16.8" height="16.8"/>
	<rect x="438.1" y="443.3" class="st0" width="16.8" height="16.8"/>
	<rect x="438.1" y="426.5" class="st0" width="16.8" height="16.8"/>
	<rect x="438.1" y="409.6" class="st0" width="16.8" height="16.8"/>
	<rect x="438.1" y="392.8" class="st0" width="16.8" height="16.8"/>
	<rect x="438.1" y="376" class="st0" width="16.8" height="16.8"/>
	<rect x="438.1" y="359.1" class="st0" width="16.8" height="16.8"/>
	<rect x="438.1" y="342.3" class="st0" width="16.8" height="16.8"/>
	<rect x="438.1" y="325.4" class="st0" width="16.8" height="16.8"/>
	<rect x="438.1" y="308.6" class="st0" width="16.8" height="16.8"/>
	<rect x="438.1" y="291.8" class="st0" width="16.8" height="16.8"/>
	<rect x="438.1" y="274.9" class="st0" width="16.8" height="16.8"/>
	<rect x="438.1" y="258.1" class="st0" width="16.8" height="16.8"/>
	<rect x="438.1" y="241.2" class="st0" width="16.8" height="16.8"/>
	<rect x="438.1" y="224.4" class="st0" width="16.8" height="16.8"/>
	<rect x="438.1" y="207.6" class="st0" width="16.8" height="16.8"/>
	<rect x="438.1" y="190.7" class="st0" width="16.8" height="16.8"/>
	<rect x="438.1" y="173.9" class="st0" width="16.8" height="16.8"/>
	<rect x="438.1" y="157" class="st0" width="16.8" height="16.8"/>
	<rect x="421.2" y="443.3" class="st0" width="16.8" height="16.8"/>
	<rect x="421.2" y="190.7" class="st0" width="16.8" height="16.8"/>
	<rect x="421.2" y="157" class="st0" width="16.8" height="16.8"/>
	<rect x="404.4" y="443.3" class="st0" width="16.8" height="16.8"/>
	<rect x="404.4" y="426.5" class="st0" width="16.8" height="16.8"/>
	<rect x="404.4" y="409.6" class="st0" width="16.8" height="16.8"/>
	<rect x="404.4" y="392.8" class="st0" width="16.8" height="16.8"/>
	<rect x="404.4" y="376" class="st0" width="16.8" height="16.8"/>
	<rect x="404.4" y="359.1" class="st0" width="16.8" height="16.8"/>
	<rect x="404.4" y="342.3" class="st0" width="16.8" height="16.8"/>
	<rect x="404.4" y="325.4" class="st0" width="16.8" height="16.8"/>
	<rect x="404.4" y="308.6" class="st0" width="16.8" height="16.8"/>
	<rect x="404.4" y="291.8" class="st0" width="16.8" height="16.8"/>
	<rect x="404.4" y="274.9" class="st0" width="16.8" height="16.8"/>
	<rect x="404.4" y="258.1" class="st0" width="16.8" height="16.8"/>
	<rect x="404.4" y="241.2" class="st0" width="16.8" height="16.8"/>
	<rect x="404.4" y="224.4" class="st0" width="16.8" height="16.8"/>
	<rect x="404.4" y="207.6" class="st0" width="16.8" height="16.8"/>
	<rect x="404.4" y="190.7" class="st0" width="16.8" height="16.8"/>
	<rect x="404.4" y="173.9" class="st0" width="16.8" height="16.8"/>
	<rect x="404.4" y="157" class="st0" width="16.8" height="16.8"/>
	<rect x="387.6" y="443.3" class="st0" width="16.8" height="16.8"/>
	<rect x="387.6" y="426.5" class="st0" width="16.8" height="16.8"/>
	<rect x="387.6" y="409.6" class="st0" width="16.8" height="16.8"/>
	<rect x="387.6" y="392.8" class="st0" width="16.8" height="16.8"/>
	<rect x="387.6" y="376" class="st0" width="16.8" height="16.8"/>
	<rect x="387.6" y="359.1" class="st0" width="16.8" height="16.8"/>
	<rect x="387.6" y="342.3" class="st0" width="16.8" height="16.8"/>
	<rect x="387.6" y="325.4" class="st0" width="16.8" height="16.8"/>
	<rect x="387.6" y="308.6" class="st0" width="16.8" height="16.8"/>
	<rect x="387.6" y="291.8" class="st0" width="16.8" height="16.8"/>
	<rect x="387.6" y="274.9" class="st0" width="16.8" height="16.8"/>
	<rect x="387.6" y="258.1" class="st0" width="16.8" height="16.8"/>
	<rect x="387.6" y="241.2" class="st0" width="16.8" height="16.8"/>
	<rect x="387.6" y="224.4" class="st0" width="16.8" height="16.8"/>
	<rect x="387.6" y="207.6" class="st0" width="16.8" height="16.8"/>
	<rect x="387.6" y="190.7" class="st0" width="16.8" height="16.8"/>
	<rect x="387.6" y="173.9" class="st0" width="16.8" height="16.8"/>
	<rect x="387.6" y="157" class="st0" width="16.8" height="16.8"/>
	<rect x="370.7" y="460.2" class="st0" width="16.8" height="16.8"/>
	<rect x="370.7" y="443.3" class="st0" width="16.8" height="16.8"/>
	<rect x="353.9" y="443.3" class="st0" width="16.8" height="16.8"/>
	<rect x="353.9" y="426.5" class="st0" width="16.8" height="16.8"/>
	<rect x="353.9" y="409.6" class="st0" width="16.8" height="16.8"/>
	<rect x="353.9" y="392.8" class="st0" width="16.8" height="16.8"/>
	<rect x="353.9" y="376" class="st0" width="16.8" height="16.8"/>
	<rect x="353.9" y="359.1" class="st0" width="16.8" height="16.8"/>
	<rect x="353.9" y="342.3" class="st0" width="16.8" height="16.8"/>
	<rect x="353.9" y="325.4" class="st0" width="16.8" height="16.8"/>
	<rect x="353.9" y="308.6" class="st0" width="16.8" height="16.8"/>
	<rect x="353.9" y="291.8" class="st0" width="16.8" height="16.8"/>
	<rect x="353.9" y="274.9" class="st0" width="16.8" height="16.8"/>
	<rect x="353.9" y="258.1" class="st0" width="16.8" height="16.8"/>
	<rect x="353.9" y="241.2" class="st0" width="16.8" height="16.8"/>
	<rect x="353.9" y="224.4" class="st0" width="16.8" height="16.8"/>
	<rect x="337.1" y="443.3" class="st0" width="16.8" height="16.8"/>
	<rect x="337.1" y="258.1" class="st0" width="16.8" height="16.8"/>
	<rect x="337.1" y="224.4" class="st0" width="16.8" height="16.8"/>
	<rect x="320.2" y="443.3" class="st0" width="16.8" height="16.8"/>
	<rect x="320.2" y="426.5" class="st0" width="16.8" height="16.8"/>
	<rect x="320.2" y="409.6" class="st0" width="16.8" height="16.8"/>
	<rect x="320.2" y="392.8" class="st0" width="16.8" height="16.8"/>
	<rect x="320.2" y="376" class="st0" width="16.8" height="16.8"/>
	<rect x="320.2" y="359.1" class="st0" width="16.8" height="16.8"/>
	<rect x="320.2" y="342.3" class="st0" width="16.8" height="16.8"/>
	<rect x="320.2" y="325.4" class="st0" width="16.8" height="16.8"/>
	<rect x="320.2" y="308.6" class="st0" width="16.8" height="16.8"/>
	<rect x="320.2" y="291.8" class="st0" width="16.8" height="16.8"/>
	<rect x="320.2" y="274.9" class="st0" width="16.8" height="16.8"/>
	<rect x="320.2" y="258.1" class="st0" width="16.8" height="16.8"/>
	<rect x="320.2" y="241.2" class="st0" width="16.8" height="16.8"/>
	<rect x="320.2" y="224.4" class="st0" width="16.8" height="16.8"/>
	<rect x="303.4" y="443.3" class="st0" width="16.8" height="16.8"/>
	<rect x="303.4" y="426.5" class="st0" width="16.8" height="16.8"/>
	<rect x="303.4" y="409.6" class="st0" width="16.8" height="16.8"/>
	<rect x="303.4" y="392.8" class="st0" width="16.8" height="16.8"/>
	<rect x="303.4" y="376" class="st0" width="16.8" height="16.8"/>
	<rect x="303.4" y="359.1" class="st0" width="16.8" height="16.8"/>
	<rect x="303.4" y="342.3" class="st0" width="16.8" height="16.8"/>
	<rect x="303.4" y="325.4" class="st0" width="16.8" height="16.8"/>
	<rect x="303.4" y="308.6" class="st0" width="16.8" height="16.8"/>
	<rect x="303.4" y="291.8" class="st0" width="16.8" height="16.8"/>
	<rect x="303.4" y="274.9" class="st0" width="16.8" height="16.8"/>
	<rect x="303.4" y="258.1" class="st0" width="16.8" height="16.8"/>
	<rect x="303.4" y="241.2" class="st0" width="16.8" height="16.8"/>
	<rect x="303.4" y="224.4" class="st0" width="16.8" height="16.8"/>
	<rect x="286.5" y="460.2" class="st0" width="16.8" height="16.8"/>
	<rect x="286.5" y="443.3" class="st0" width="16.8" height="16.8"/>
	<rect x="269.7" y="443.3" class="st0" width="16.8" height="16.8"/>
	<rect x="269.7" y="426.5" class="st0" width="16.8" height="16.8"/>
	<rect x="269.7" y="409.6" class="st0" width="16.8" height="16.8"/>
	<rect x="269.7" y="392.8" class="st0" width="16.8" height="16.8"/>
	<rect x="269.7" y="376" class="st0" width="16.8" height="16.8"/>
	<rect x="269.7" y="359.1" class="st0" width="16.8" height="16.8"/>
	<rect x="269.7" y="342.3" class="st0" width="16.8" height="16.8"/>
	<rect x="269.7" y="325.4" class="st0" width="16.8" height="16.8"/>
	<rect x="269.7" y="308.6" class="st0" width="16.8" height="16.8"/>
	<rect x="269.7" y="291.8" class="st0" width="16.8" height="16.8"/>
	<rect x="269.7" y="274.9" class="st0" width="16.8" height="16.8"/>
	<rect x="269.7" y="258.1" class="st0" width="16.8" height="16.8"/>
	<rect x="269.7" y="241.2" class="st0" width="16.8" height="16.8"/>
	<rect x="269.7" y="224.4" class="st0" width="16.8" height="16.8"/>
	<rect x="269.7" y="207.6" class="st0" width="16.8" height="16.8"/>
	<rect x="269.7" y="190.7" class="st0" width="16.8" height="16.8"/>
	<rect x="269.7" y="157" class="st0" width="16.8" height="16.8"/>
	<rect x="269.7" y="140.2" class="st0" width="16.8" height="16.8"/>
	<rect x="252.9" y="443.3" class="st0" width="16.8" height="16.8"/>
	<rect x="252.9" y="224.4" class="st0" width="16.8" height="16.8"/>
	<rect x="252.9" y="190.7" class="st0" width="16.8" height="16.8"/>
	<rect x="252.9" y="157" class="st0" width="16.8" height="16.8"/>
	<rect x="252.9" y="140.2" class="st0" width="16.8" height="16.8"/>
	<rect x="236" y="443.3" class="st0" width="16.8" height="16.8"/>
	<rect x="236" y="426.5" class="st0" width="16.8" height="16.8"/>
	<rect x="236" y="409.6" class="st0" width="16.8" height="16.8"/>
	<rect x="236" y="392.8" class="st0" width="16.8" height="16.8"/>
	<rect x="236" y="376" class="st0" width="16.8" height="16.8"/>
	<rect x="236" y="359.1" class="st0" width="16.8" height="16.8"/>
	<rect x="236" y="342.3" class="st0" width="16.8" height="16.8"/>
	<rect x="236" y="325.4" class="st0" width="16.8" height="16.8"/>
	<rect x="236" y="308.6" class="st0" width="16.8" height="16.8"/>
	<rect x="236" y="291.8" class="st0" width="16.8" height="16.8"/>
	<rect x="236" y="274.9" class="st0" width="16.8" height="16.8"/>
	<rect x="236" y="258.1" class="st0" width="16.8" height="16.8"/>
	<rect x="236" y="241.2" class="st0" width="16.8" height="16.8"/>
	<rect x="236" y="224.4" class="st0" width="16.8" height="16.8"/>
	<rect x="236" y="207.6" class="st0" width="16.8" height="16.8"/>
	<rect x="236" y="190.7" class="st0" width="16.8" height="16.8"/>
	<rect x="236" y="157" class="st0" width="16.8" height="16.8"/>
	<rect x="236" y="140.2" class="st0" width="16.8" height="16.8"/>
	<rect x="236" y="123.4" class="st0" width="16.8" height="16.8"/>
	<rect x="236" y="106.5" class="st0" width="16.8" height="16.8"/>
	<rect x="219.2" y="443.3" class="st0" width="16.8" height="16.8"/>
	<rect x="219.2" y="426.5" class="st0" width="16.8" height="16.8"/>
	<rect x="219.2" y="409.6" class="st0" width="16.8" height="16.8"/>
	<rect x="219.2" y="392.8" class="st0" width="16.8" height="16.8"/>
	<rect x="219.2" y="376" class="st0" width="16.8" height="16.8"/>
	<rect x="219.2" y="359.1" class="st0" width="16.8" height="16.8"/>
	<rect x="219.2" y="342.3" class="st0" width="16.8" height="16.8"/>
	<rect x="219.2" y="325.4" class="st0" width="16.8" height="16.8"/>
	<rect x="219.2" y="308.6" class="st0" width="16.8" height="16.8"/>
	<rect x="219.2" y="291.8" class="st0" width="16.8" height="16.8"/>
	<rect x="219.2" y="274.9" class="st0" width="16.8" height="16.8"/>
	<rect x="219.2" y="258.1" class="st0" width="16.8" height="16.8"/>
	<rect x="219.2" y="241.2" class="st0" width="16.8" height="16.8"/>
	<rect x="219.2" y="224.4" class="st0" width="16.8" height="16.8"/>
	<rect x="219.2" y="207.6" class="st0" width="16.8" height="16.8"/>
	<rect x="219.2" y="190.7" class="st0" width="16.8" height="16.8"/>
	<rect x="219.2" y="157" class="st0" width="16.8" height="16.8"/>
	<rect x="219.2" y="140.2" class="st0" width="16.8" height="16.8"/>
	<rect x="219.2" y="123.4" class="st0" width="16.8" height="16.8"/>
	<rect x="219.2" y="106.5" class="st0" width="16.8" height="16.8"/>
	<rect x="202.3" y="460.2" class="st0" width="16.8" height="16.8"/>
	<rect x="202.3" y="443.3" class="st0" width="16.8" height="16.8"/>
	<rect x="185.5" y="443.3" class="st0" width="16.8" height="16.8"/>
	<rect x="185.5" y="426.5" class="st0" width="16.8" height="16.8"/>
	<rect x="185.5" y="409.6" class="st0" width="16.8" height="16.8"/>
	<rect x="185.5" y="392.8" class="st0" width="16.8" height="16.8"/>
	<rect x="185.5" y="376" class="st0" width="16.8" height="16.8"/>
	<rect x="185.5" y="359.1" class="st0" width="16.8" height="16.8"/>
	<rect x="185.5" y="342.3" class="st0" width="16.8" height="16.8"/>
	<rect x="185.5" y="325.4" class="st0" width="16.8" height="16.8"/>
	<rect x="185.5" y="258.1" class="st0" width="16.8" height="16.8"/>
	<rect x="168.7" y="443.3" class="st0" width="16.8" height="16.8"/>
	<rect x="168.7" y="426.5" class="st0" width="16.8" height="16.8"/>
	<rect x="168.7" y="409.6" class="st0" width="16.8" height="16.8"/>
	<rect x="168.7" y="359.1" class="st0" width="16.8" height="16.8"/>
	<rect x="168.7" y="325.4" class="st0" width="16.8" height="16.8"/>
	<rect x="168.7" y="291.8" class="st0" width="16.8" height="16.8"/>
	<rect x="168.7" y="274.9" class="st0" width="16.8" height="16.8"/>
	<rect x="168.7" y="258.1" class="st0" width="16.8" height="16.8"/>
	<rect x="168.7" y="224.4" class="st0" width="16.8" height="16.8"/>
	<rect x="168.7" y="207.6" class="st0" width="16.8" height="16.8"/>
	<rect x="151.8" y="443.3" class="st0" width="16.8" height="16.8"/>
	<rect x="151.8" y="426.5" class="st0" width="16.8" height="16.8"/>
	<rect x="151.8" y="409.6" class="st0" width="16.8" height="16.8"/>
	<rect x="151.8" y="392.8" class="st0" width="16.8" height="16.8"/>
	<rect x="151.8" y="376" class="st0" width="16.8" height="16.8"/>
	<rect x="151.8" y="359.1" class="st0" width="16.8" height="16.8"/>
	<rect x="151.8" y="342.3" class="st0" width="16.8" height="16.8"/>
	<rect x="151.8" y="325.4" class="st0" width="16.8" height="16.8"/>
	<rect x="151.8" y="291.8" class="st0" width="16.8" height="16.8"/>
	<rect x="151.8" y="274.9" class="st0" width="16.8" height="16.8"/>
	<rect x="151.8" y="258.1" class="st0" width="16.8" height="16.8"/>
	<rect x="151.8" y="224.4" class="st0" width="16.8" height="16.8"/>
	<rect x="151.8" y="207.6" class="st0" width="16.8" height="16.8"/>
	<rect x="135" y="443.3" class="st0" width="16.8" height="16.8"/>
	<rect x="135" y="426.5" class="st0" width="16.8" height="16.8"/>
	<rect x="135" y="409.6" class="st0" width="16.8" height="16.8"/>
	<rect x="135" y="392.8" class="st0" width="16.8" height="16.8"/>
	<rect x="135" y="376" class="st0" width="16.8" height="16.8"/>
	<rect x="135" y="359.1" class="st0" width="16.8" height="16.8"/>
	<rect x="135" y="342.3" class="st0" width="16.8" height="16.8"/>
	<rect x="135" y="325.4" class="st0" width="16.8" height="16.8"/>
	<rect x="135" y="258.1" class="st0" width="16.8" height="16.8"/>
	<rect x="118.1" y="460.2" class="st0" width="16.8" height="16.8"/>
	<rect x="118.1" y="443.3" class="st0" width="16.8" height="16.8"/>
	<rect x="101.3" y="443.3" class="st0" width="16.8" height="16.8"/>
	<rect x="101.3" y="426.5" class="st0" width="16.8" height="16.8"/>
	<rect x="101.3" y="409.6" class="st0" width="16.8" height="16.8"/>
	<rect x="101.3" y="392.8" class="st0" width="16.8" height="16.8"/>
	<rect x="101.3" y="376" class="st0" width="16.8" height="16.8"/>
	<rect x="101.3" y="359.1" class="st0" width="16.8" height="16.8"/>
	<rect x="101.3" y="342.3" class="st0" width="16.8" height="16.8"/>
	<rect x="101.3" y="325.4" class="st0" width="16.8" height="16.8"/>
	<rect x="101.3" y="308.6" class="st0" width="16.8" height="16.8"/>
	<rect x="101.3" y="291.8" class="st0" width="16.8" height="16.8"/>
	<rect x="101.3" y="274.9" class="st0" width="16.8" height="16.8"/>
	<rect x="101.3" y="258.1" class="st0" width="16.8" height="16.8"/>
	<rect x="101.3" y="241.2" class="st0" width="16.8" height="16.8"/>
	<rect x="101.3" y="224.4" class="st0" width="16.8" height="16.8"/>
	<rect x="101.3" y="207.6" class="st0" width="16.8" height="16.8"/>
	<rect x="101.3" y="190.7" class="st0" width="16.8" height="16.8"/>
	<rect x="101.3" y="173.9" class="st0" width="16.8" height="16.8"/>
	<rect x="101.3" y="157" class="st0" width="16.8" height="16.8"/>
	<rect x="101.3" y="140.2" class="st0" width="16.8" height="16.8"/>
	<rect x="101.3" y="123.4" class="st0" width="16.8" height="16.8"/>
	<rect x="101.3" y="106.5" class="st0" width="16.8" height="16.8"/>
	<rect x="101.3" y="56" class="st0" width="16.8" height="16.8"/>
	<rect x="101.3" y="39.2" class="st0" width="16.8" height="16.8"/>
	<rect x="84.5" y="443.3" class="st0" width="16.8" height="16.8"/>
	<rect x="84.5" y="140.2" class="st0" width="16.8" height="16.8"/>
	<rect x="84.5" y="106.5" class="st0" width="16.8" height="16.8"/>
	<rect x="84.5" y="72.9" class="st0" width="16.8" height="16.8"/>
	<rect x="84.5" y="56" class="st0" width="16.8" height="16.8"/>
	<rect x="84.5" y="39.2" class="st0" width="16.8" height="16.8"/>
	<rect x="84.5" y="22.3" class="st0" width="16.8" height="16.8"/>
	<rect x="67.6" y="443.3" class="st0" width="16.8" height="16.8"/>
	<rect x="67.6" y="426.5" class="st0" width="16.8" height="16.8"/>
	<rect x="67.6" y="409.6" class="st0" width="16.8" height="16.8"/>
	<rect x="67.6" y="392.8" class="st0" width="16.8" height="16.8"/>
	<rect x="67.6" y="376" class="st0" width="16.8" height="16.8"/>
	<rect x="67.6" y="359.1" class="st0" width="16.8" height="16.8"/>
	<rect x="67.6" y="342.3" class="st0" width="16.8" height="16.8"/>
	<rect x="67.6" y="325.4" class="st0" width="16.8" height="16.8"/>
	<rect x="67.6" y="308.6" class="st0" width="16.8" height="16.8"/>
	<rect x="67.6" y="291.8" class="st0" width="16.8" height="16.8"/>
	<rect x="67.6" y="274.9" class="st0" width="16.8" height="16.8"/>
	<rect x="67.6" y="258.1" class="st0" width="16.8" height="16.8"/>
	<rect x="67.6" y="241.2" class="st0" width="16.8" height="16.8"/>
	<rect x="67.6" y="224.4" class="st0" width="16.8" height="16.8"/>
	<rect x="67.6" y="207.6" class="st0" width="16.8" height="16.8"/>
	<rect x="67.6" y="190.7" class="st0" width="16.8" height="16.8"/>
	<rect x="67.6" y="173.9" class="st0" width="16.8" height="16.8"/>
	<rect x="67.6" y="157" class="st0" width="16.8" height="16.8"/>
	<rect x="67.6" y="140.2" class="st0" width="16.8" height="16.8"/>
	<rect x="67.6" y="123.4" class="st0" width="16.8" height="16.8"/>
	<rect x="67.6" y="106.5" class="st0" width="16.8" height="16.8"/>
	<rect x="67.6" y="72.9" class="st0" width="16.8" height="16.8"/>
	<rect x="67.6" y="56" class="st0" width="16.8" height="16.8"/>
	<rect x="67.6" y="39.2" class="st0" width="16.8" height="16.8"/>
	<rect x="67.6" y="22.3" class="st0" width="16.8" height="16.8"/>
	<rect x="50.8" y="443.3" class="st0" width="16.8" height="16.8"/>
	<rect x="50.8" y="426.5" class="st0" width="16.8" height="16.8"/>
	<rect x="50.8" y="409.6" class="st0" width="16.8" height="16.8"/>
	<rect x="50.8" y="392.8" class="st0" width="16.8" height="16.8"/>
	<rect x="50.8" y="376" class="st0" width="16.8" height="16.8"/>
	<rect x="50.8" y="359.1" class="st0" width="16.8" height="16.8"/>
	<rect x="50.8" y="342.3" class="st0" width="16.8" height="16.8"/>
	<rect x="50.8" y="325.4" class="st0" width="16.8" height="16.8"/>
	<rect x="50.8" y="308.6" class="st0" width="16.8" height="16.8"/>
	<rect x="50.8" y="291.8" class="st0" width="16.8" height="16.8"/>
	<rect x="50.8" y="274.9" class="st0" width="16.8" height="16.8"/>
	<rect x="50.8" y="258.1" class="st0" width="16.8" height="16.8"/>
	<rect x="50.8" y="241.2" class="st0" width="16.8" height="16.8"/>
	<rect x="50.8" y="224.4" class="st0" width="16.8" height="16.8"/>
	<rect x="50.8" y="207.6" class="st0" width="16.8" height="16.8"/>
	<rect x="50.8" y="190.7" class="st0" width="16.8" height="16.8"/>
	<rect x="50.8" y="173.9" class="st0" width="16.8" height="16.8"/>
	<rect x="50.8" y="157" class="st0" width="16.8" height="16.8"/>
	<rect x="50.8" y="140.2" class="st0" width="16.8" height="16.8"/>
	<rect x="50.8" y="123.4" class="st0" width="16.8" height="16.8"/>
	<rect x="50.8" y="106.5" class="st0" width="16.8" height="16.8"/>
	<rect x="50.8" y="56" class="st0" width="16.8" height="16.8"/>
	<rect x="50.8" y="39.2" class="st0" width="16.8" height="16.8"/>
	<rect x="34" y="460.2" class="st0" width="16.8" height="16.8"/>
	<rect x="34" y="443.3" class="st0" width="16.8" height="16.8"/>
</g>
</svg>
